<?xml version="1.0" standalone="no"?>
<!DOCTYPE svg PUBLIC "-//W3C//DTD SVG 1.1//EN" "http://www.w3.org/Graphics/SVG/1.1/DTD/svg11.dtd" >
<svg xmlns="http://www.w3.org/2000/svg">
<metadata>
Created by FontPrep 20130207 at Thu Sep 24 15:16:36 2015
 By Julien Simshauser
Copyright (c) 2002,  2003 Linotype Library GmbH, www.linotype.com. All rights reserved. This software may not be reproduced, used, displayed, modified, disclosed or transferred without the express written approval of Linotype Library GmbH. Sabon is a trademark of Heidelberger Druckmaschinen AG which may be registered in certain jurisdictions, exclusively licensed through Linotype Library GmbH, a wholly owned subsidiary of Heidelberger Druckmaschinen AG. This typeface is original artwork of Jean Fran ois Porchez / Jan Tschichold. The design may be protected in certain jurisdictions.
</metadata>
<defs>
<font id="081a98b36d6b807c5e2cd7d5d2586660" horiz-adv-x='1024' >
  <font-face 
    font-family="SabonNextLT-Display"
    font-weight="400"
    font-stretch="normal"
    units-per-em="2048"
    panose-1="0 0 0 0 0 0 0 0 0 0"
    ascent="1536"
    descent="-512"
    x-height="895"
    cap-height="1395"
    bbox="-307 -569 2159 1874"
    underline-thickness="94"
    underline-position="-254"
    unicode-range="U+000D-FB04"
  />
<missing-glyph horiz-adv-x="2048" 
 />
    <glyph glyph-name=".notdef" horiz-adv-x="2048" 
 />
    <glyph glyph-name=".null" horiz-adv-x="512" 
 />
    <glyph glyph-name=".null" horiz-adv-x="512" 
 />
    <glyph glyph-name="nonmarkingreturn" unicode="&#xd;" horiz-adv-x="512" 
 />
    <glyph glyph-name="space" unicode=" " horiz-adv-x="512" 
 />
    <glyph glyph-name="exclam" unicode="!" horiz-adv-x="593" 
d="M403 90q0 -47 -28.5 -80t-75.5 -33t-76.5 32t-29.5 79t28.5 79t75.5 32t76.5 -31t29.5 -78zM331 1399.5q77 0.5 77 -119.5q0 -187 -34 -480.5t-46 -406.5q-27 -10 -49 0q-12 113 -46 406t-34 497q0 49 27.5 76t104.5 27.5z" />
    <glyph glyph-name="quotedbl" unicode="&#x22;" horiz-adv-x="847" 
d="M344 1341q0 -56 -8 -102l-47 -365q-2 -16 -5.5 -34.5t-25.5 -18.5t-27.5 18.5t-7.5 34.5l-47 365q-8 45 -8 91t18.5 74t88 28t69.5 -91zM680 1341q0 -56 -8 -102l-47 -365q-2 -16 -6.5 -34.5t-25.5 -18.5t-26.5 18.5t-7.5 34.5l-47 365q-8 45 -8 91t18.5 74t88 28
t69.5 -91z" />
    <glyph glyph-name="numbersign" unicode="#" horiz-adv-x="927" 
d="M600 788q-4 10 -10 15h-187q-12 -8 -14 -15l-61 -292q4 -10 10 -15h186q12 8 15 15zM924 863q0 -47 -27 -60h-207q-10 -6 -12 -15l-62 -292q4 -10 11 -15h188q12 -5 12 -52t-26 -60h-203q-10 -6 -12 -15l-78 -368q-6 -4 -34 -4t-42 18l76 354q-4 10 -10 15h-189
q-10 -6 -12 -15l-78 -368q-6 -4 -33 -4t-43 18l76 354q-4 10 -10 15h-193q-12 5 -12 52t27 60h207q10 6 12 15l61 292q-4 10 -10 15h-188q-13 5 -13 52t27 60h203q10 6 12 15l74 352q6 4 33 4t43 -18l-72 -338q4 -10 10 -15h188q10 6 13 15l74 352q6 4 33 4t42 -18l-71 -338
q4 -10 10 -15h192q13 -5 13 -52z" />
    <glyph glyph-name="dollar" unicode="$" 
d="M725 274q0 98 -50 156.5t-124 106.5q-7 -7 -8 -9v-477q2 -6 8 -10q78 20 126 77.5t48 155.5zM307 1029q0 -77 42 -130t108 -96q4 4 5 4t3 4v408q-2 6 -8 10q-66 -20 -108 -71.5t-42 -128.5zM810 1055q-18 0 -22 12q-29 94 -86 131t-149 41q-8 -6 -10 -12v-471q2 -4 2 -5
t4 -6q61 -35 122.5 -70.5t110.5 -80.5t80 -103.5t31 -172.5t-96 -213t-244 -132q-8 -6 -10 -12v-168q-4 -10 -10.5 -12t-34 -2t-33.5 14v160q-2 6 -8 10q-186 0 -314 76q-4 4 -6 8t-6 8q-2 18 -6 60.5t-27 173.5q12 4 30 4t22 -12q31 -125 104.5 -185.5t200.5 -64.5
q8 6 10 12v537q-2 8 -8 12q-51 29 -167 100t-116 266q0 115 71 212.5t210 123.5q8 6 10 13v168q4 10 10 12t34 2t34 -14v-160q2 -4 10 -10q131 0 250 -33q12 -8 14 -17q3 -58 23 -194q-12 -6 -30 -6z" />
    <glyph glyph-name="percent" unicode="%" horiz-adv-x="1650" 
d="M524 773q0 482 -171 482q-83 0 -117.5 -98t-34.5 -232q0 -235 45 -359t127 -124t116.5 98.5t34.5 232.5zM1450 343q0 482 -171 482q-83 0 -118 -98t-35 -232q0 -232 45.5 -357.5t126.5 -125.5q82 0 117 98.5t35 232.5zM666 846q0 -209 -82 -331t-226 -122t-221.5 126
t-77.5 335t81 330t225 121t222.5 -125t78.5 -334zM424 -49q-41 15 -59 39l862 1327q39 -14 59 -39zM1591 414q0 -209 -80.5 -330t-224.5 -121t-222.5 125t-78.5 334t82 330.5t226 121.5t221 -125.5t77 -334.5z" />
    <glyph glyph-name="ampersand" unicode="&#x26;" horiz-adv-x="1732" 
d="M233 469q0 -162 103.5 -263.5t243.5 -101.5q104 0 190.5 49.5t147.5 125.5q4 10 0 18q-164 229 -270.5 318.5t-182.5 144.5q-10 4 -21 0q-96 -43 -153.5 -122t-57.5 -169zM707 1092q0 70 -36 124t-112 54t-121 -37t-45 -108t53.5 -135t122.5 -107q12 -4 23 0
q115 53 115 209zM1671 137q27 -17 27 -31t-15 -26q-61 -66 -144 -117t-166 -51t-140 27.5t-103.5 71.5t-85 99.5t-77.5 112.5q-8 4 -19 0q-103 -121 -209.5 -189.5t-232.5 -68.5q-169 0 -288.5 117.5t-119.5 282.5q0 279 308 428q2 8 0 16q-142 123 -142 249q0 132 87 198.5
t208 66.5q177 0 227 -82t50 -133q0 -156 -201 -254q-2 -8 0 -18q248 -181 393 -400q10 -2 19 0q65 91 130 200q64 109 83.5 153.5t19.5 76.5q0 60 -61 68l-39 4q-23 4 -9 51q79 -6 215 -6t277 6q4 -13 4 -31t-12 -20l-78 -10q-51 -6 -86 -19t-103 -93t-146.5 -197
t-162.5 -234q-2 -8 0 -18q113 -160 160 -213.5t96 -89t121 -35.5q107 0 215 108z" />
    <glyph glyph-name="quotesingle" unicode="'" horiz-adv-x="512" 
d="M344 1341q0 -56 -8 -102l-47 -365q-2 -16 -5.5 -34.5t-25.5 -18.5t-27.5 18.5t-7.5 34.5l-47 365q-8 45 -8 91t18.5 74t88 28t69.5 -91z" />
    <glyph glyph-name="parenleft" unicode="(" horiz-adv-x="692" 
d="M168 575.5q0 241.5 74.5 466t210.5 404.5q14 18 45 -4q10 -6 18 -14.5t12 -12.5q-193 -240 -232.5 -484.5t-39.5 -414t71 -394.5t201 -386q-4 -4 -12 -12.5t-18 -14.5q-31 -23 -45 -4q-135 180 -210 404.5t-75 466z" />
    <glyph glyph-name="parenright" unicode=")" horiz-adv-x="692" 
d="M526 575.5q0 -241.5 -74.5 -466t-209.5 -404.5q-20 -25 -31 -14l-45 45q193 240 232.5 484.5t39.5 414t-70.5 392.5t-201.5 388q4 4 12 12.5t19 14.5q31 23 45 4q135 -180 209.5 -404.5t74.5 -466z" />
    <glyph glyph-name="asterisk" unicode="*" horiz-adv-x="841" 
d="M179 874q-26 0 -47 26t-21 52t26.5 47t62.5 35.5t72.5 24.5t57.5 16q18 -15 20 -31q-12 -16 -31.5 -44.5t-42 -56.5t-47 -48.5t-50.5 -20.5zM472 782q-71 0 -71 134q0 78 5 118l13 6q13 7 27 4q62 -72 85.5 -125t23.5 -79t-27.5 -42t-55.5 -16zM192 1348q24 0 48 -24
t45.5 -54.5t40 -61.5t28.5 -47q-10 -18 -28 -28q-14 6 -37 14t-62.5 24.5t-74.5 44.5q-34 28 -34 54t25 52t49 26zM741 1100q0 -72 -63 -72q-47 0 -103.5 24.5t-99.5 41.5q-4 23 6 41q135 36 193 36q67 1 67 -71zM496 1432q25 0 54.5 -16.5t29.5 -42.5t-15.5 -53.5t-36 -55
t-43 -52t-36.5 -41.5q-27 5 -37 19q7 146 26 199q12 43 58 43z" />
    <glyph glyph-name="plus" unicode="+" 
d="M547 428v-428h-70v428h-428v70h428v428h70v-428h428v-70h-428z" />
    <glyph glyph-name="comma" unicode="," horiz-adv-x="512" 
d="M109 114q0 46 34.5 74.5t96.5 28.5t111.5 -57.5t49.5 -135.5q0 -137 -74 -218.5t-184 -120.5q-33 -10 -39 7t-6 25q137 50 175 111t38 99t-18.5 64.5t-56.5 26.5l-46 -2q-35 0 -58 26t-23 72z" />
    <glyph glyph-name="hyphen" unicode="-" horiz-adv-x="512" 
d="M29 475q0 88 28 105h414q12 -4 12 -27q0 -87 -28 -98h-414q-12 4 -12 20z" />
    <glyph glyph-name="period" unicode="." horiz-adv-x="512" 
d="M381 104.5q0 -53.5 -34 -89t-88 -35.5t-90 34.5t-36 88t34 89t88 35.5t90 -34.5t36 -88z" />
    <glyph glyph-name="slash" unicode="/" horiz-adv-x="614" 
d="M53 -33q-49 10 -82 33l590 1464q54 -11 82 -32z" />
    <glyph glyph-name="zero" unicode="0" 
d="M528 20q246 0 246 572q0 271 -70.5 462t-202.5 191q-251 0 -251 -565q0 -276 51 -414.5t105 -192t122 -53.5zM828 142.5q-118 -179.5 -321 -179.5t-316 180.5t-113 493.5t116.5 490.5t320.5 177.5q203 0 317 -180.5t114 -491.5t-118 -490.5z" />
    <glyph glyph-name="one" unicode="1" 
d="M616 279q0 -140 10.5 -179t49.5 -43l112 -12q13 -2 13 -20.5t-4 -30.5q-177 6 -269 6l-282 -6q-4 12 -4 32t12 19l129 12q40 3 49.5 42.5t9.5 179.5v772q0 41 -11 52t-32 1l-176 -84q-11 11 -17 28q-7 17 3 25l215 125q74 43 119 75t59 32t21 -7l-7 -256v-763z" />
    <glyph glyph-name="two" unicode="2" 
d="M651 907q0 115 -69.5 187.5t-198.5 72.5t-244 -139q-12 2 -25 11q-26 18 1 51q164 215 379 215q141 0 238 -95t97 -239q0 -247 -236.5 -496.5t-297.5 -316.5v-4h422q94 0 129 14t48 42q18 38 54 19q-8 -35 -24.5 -100.5t-26.5 -118.5q-2 -6 -14 -14q-20 4 -45 4h-89h-249
l-422 -6q-10 20 -6 39q76 72 176 171t251.5 294t151.5 409z" />
    <glyph glyph-name="three" unicode="3" 
d="M768 1053q0 -187 -242 -310v-4q140 12 232 -80t92 -235q0 -100 -45 -192.5t-167 -204t-337 -111.5q-140 0 -196 37t-56 66t22.5 60.5t48.5 31.5t98.5 -57.5t138.5 -57.5q134 0 229.5 90.5t95.5 265.5q0 122 -64.5 201.5t-185.5 79.5q-57 0 -93.5 -10.5t-58.5 -10.5
t-24 19l-2 26q132 30 245 127t113 213q0 90 -48 139.5t-126 49.5q-127 0 -200 -107q-12 1 -24 11t-13.5 20t12.5 31q113 164 289 164t221 -95.5t45 -156.5z" />
    <glyph glyph-name="four" unicode="4" 
d="M629 1036h-4l-424 -579v-4h415q10 6 13 14v569zM266 322q-126 0 -243 -7q-6 26 0 39q10 12 62 72t138 180l340 463q57 78 110.5 147.5t86.5 116.5q15 6 39 0q-6 -117 -6 -243v-623q2 -8 12 -14h149q10 -6 12.5 -15.5t2.5 -48.5t-2 -50t-13 -17h-149q-10 -6 -12 -15v-362
q-6 -10 -20.5 -12.5t-57.5 -2.5t-61.5 2t-24.5 13v362q-2 8 -13 15h-350z" />
    <glyph glyph-name="five" unicode="5" 
d="M667 53q-146 -137 -360 -137q-140 0 -196 37t-56 66t22.5 60.5t46.5 31.5t46.5 -18.5t94 -79t204 -6.5t168 139t35.5 163q0 149 -110 259t-288 204q-6 12 -6 25l152 471h469q10 -6 12 -15l-31 -123q-2 -8 -12 -14h-418q-8 -2 -14 -12l-53 -164q0 -12 2 -18
q198 -104 318 -233.5t120 -313.5q0 -185 -146 -322z" />
    <glyph glyph-name="six" unicode="6" 
d="M543 580q-98 0 -162 -82q-48 16 -19 57q104 135 250 135t237 -87t91 -224q0 -179 -122 -297.5t-308 -118.5t-293.5 122t-107.5 309q0 337 238 601.5t568 393.5q49 20 62 -33q-481 -225 -587.5 -518t-106.5 -469q0 -227 87 -286.5t151 -59.5q120 0 183.5 88t63.5 213
q0 124 -63.5 190t-161.5 66z" />
    <glyph glyph-name="seven" unicode="7" 
d="M786 1104h-432q-118 0 -154 -15.5t-49.5 -33t-22.5 -37.5q-14 -30 -50 -12l9 40q9 41 24.5 107t21.5 104q2 6 14 15q20 -4 49 -4h334l428 6q11 -21 7 -39q-65 -88 -162 -274l-557 -1045q-23 0 -55.5 14.5t-43.5 30.5l639 1139v4z" />
    <glyph glyph-name="eight" unicode="8" 
d="M735 256q0 112 -65.5 178.5t-194.5 153.5q-8 4 -18 0q-72 -55 -118 -125.5t-46 -182.5t56.5 -184.5t168.5 -72.5q135 0 176 85.5t41 147.5zM741 1028q0 108 -62.5 164.5t-156.5 56.5t-149.5 -59.5t-55.5 -151.5t69 -161.5t179 -139.5q10 -2 19 0q70 53 113.5 118
t43.5 173zM895 309q0 -154 -115.5 -250t-275.5 -96t-258.5 97.5t-98.5 211.5q0 175 110 248.5t163 104.5v4q-116 78 -182 159t-66 210q0 128 106.5 217.5t250.5 89.5t248 -72.5t104 -202.5q0 -155 -103.5 -227t-154.5 -103v-4q125 -83 176 -141.5t73.5 -114t22.5 -131.5z
" />
    <glyph glyph-name="nine" unicode="9" 
d="M490 688q99 0 161 82q6 -2 9.5 -3t11.5 -7q20 -15 -2 -47q-104 -135 -250 -135t-237 87t-91 224q0 176 121.5 296t307.5 120q187 0 295 -123.5t108 -310.5q0 -338 -238 -600t-569 -392q-49 -20 -62 33q480 225 587.5 518t107.5 447t-57.5 261t-179.5 107t-185.5 -88
t-63.5 -213t63.5 -190.5t162.5 -65.5z" />
    <glyph glyph-name="colon" unicode=":" horiz-adv-x="512" 
d="M381 104.5q0 -53.5 -34 -89t-88 -35.5t-90 34.5t-36 88t34 89t88 35.5t90 -34.5t36 -88zM381 669.5q0 -53.5 -34 -89t-88 -35.5t-90 34.5t-36 88t34 89.5t88 36t90 -35t36 -88.5z" />
    <glyph glyph-name="semicolon" unicode=";" horiz-adv-x="512" 
d="M117 114q0 46 34.5 74.5t97.5 28.5t112 -57.5t49 -135.5q0 -138 -75 -218.5t-183 -120.5q-33 -10 -39 7t-7 25q137 50 175 111t38 99t-18 64.5t-57 26.5l-45 -2q-35 0 -58.5 26t-23.5 72zM381 669.5q0 -53.5 -34 -89t-88 -35.5t-90 34.5t-36 88t34 89.5t88 36t90 -35
t36 -88.5z" />
    <glyph glyph-name="less" unicode="&#x3c;" 
d="M49 428v70l926 422v-76l-854 -381l854 -381v-76z" />
    <glyph glyph-name="equal" unicode="=" 
d="M49 182v70h926v-70h-926zM49 674v69h926v-69h-926z" />
    <glyph glyph-name="greater" unicode="&#x3e;" 
d="M49 6v76l854 381l-854 381v76l926 -422v-70z" />
    <glyph glyph-name="question" unicode="?" horiz-adv-x="593" 
d="M291 90q0 -47 -29 -80t-75 -33t-76.5 32t-30.5 79t28.5 79t74.5 32t77 -31t31 -78zM100 1314q0 85 80 85q131 0 232.5 -117t101.5 -332q0 -298 -221 -342q-45 -8 -67.5 -20.5t-25.5 -51.5t-3 -71.5t-2 -56.5q-1 -17 -21 -17t-24 2q-19 135 -19 234q0 98 28.5 120.5
t114.5 35.5t131.5 69t45.5 122q0 121 -54.5 189t-165.5 68l-57 -2q-74 0 -74 85z" />
    <glyph glyph-name="at" unicode="@" horiz-adv-x="1593" 
d="M528 319q0 -122 90 -122q66 0 137.5 62.5t131 150.5t98.5 181t39 142q0 105 -90 105q-74 0 -146.5 -55.5t-130 -135.5t-93.5 -170t-36 -158zM1184 98q-106 -47 -216 -47q-110 1 -110 51q0 76 40 180.5t44 118.5h-4q-145 -220 -249.5 -284t-154.5 -64q-84 0 -116.5 46.5
t-32.5 133.5t60.5 213.5t150.5 234t194.5 178.5t194.5 71q51 0 75.5 -17.5t41.5 -42.5h2l20 54q10 39 46 39q20 0 36.5 -1t28.5 -1q-11 -23 -41 -119l-174 -625q-6 -25 -6 -46t30 -21q157 0 281.5 140.5t124.5 346.5q0 244 -162 382t-416 138q-304 0 -478.5 -204
t-174.5 -513q0 -310 173.5 -477.5t501.5 -167.5q173 0 316 90q6 -6 12.5 -15t12.5 -17t3 -21.5t-26 -24.5q-157 -86 -343 -86q-363 0 -585.5 177.5t-222.5 507.5q0 176 61.5 326.5t170 260t258 172t306.5 62.5q301 0 488 -153.5t187 -413.5t-121 -387.5t-227 -174.5z" />
    <glyph glyph-name="A" unicode="A" horiz-adv-x="1394" 
d="M621 1180h-5l-186 -566q2 -6 12 -12h377q10 6 12 12zM214 0q-20 0 -200 -6q-4 12 -4 30.5t13 20.5l47 12q43 11 77.5 55t71.5 158l326 947q16 43 16 58t-4 32q8 20 28.5 29.5t47.5 33.5t40 42t27 18t21 -5q19 -79 100 -280l346 -875q52 -123 79.5 -162t72.5 -51l51 -12
q14 -2 14 -20.5t-4 -30.5q-177 6 -237 6t-240 -6q-4 12 -4 30.5t12 20.5l52 8q55 9 55 44q0 36 -55 173l-84 226q-6 10 -15 12h-458q-8 -2 -15 -12l-76 -226q-26 -81 -26 -120t14 -65t55 -32l52 -8q12 -2 12 -20.5t-4 -30.5q-184 6 -204 6z" />
    <glyph glyph-name="B" unicode="B" horiz-adv-x="1232" 
d="M950 422q0 119 -105 196.5t-265 77.5h-140q-10 -6 -12 -12v-369q0 -147 29.5 -196t111.5 -49h52q225 0 277 116.5t52 235.5zM844 1043q0 151 -84 220.5t-209 69.5q-62 0 -100 -14q-23 -28 -23 -195v-350q2 -8 12 -14h129q119 0 197 66t78 217zM1036 1061
q0 -117 -74.5 -197t-189.5 -114v-2q137 0 260 -97t123 -256q0 -90 -43 -164.5t-98 -116.5q-91 -70 -187.5 -92t-208.5 -22h-292q-101 0 -230 -6q-4 12 -4 30.5t12 20.5l74 12q41 8 50.5 45t9.5 174v836q0 137 -7.5 166t-19.5 39t-33 14l-74 12q-12 2 -12 20.5t4 31.5
q55 -6 199 -6l285 14q200 0 328 -88t128 -254z" />
    <glyph glyph-name="C" unicode="C" horiz-adv-x="1458" 
d="M1330 1067q-14 0 -18.5 1t-8.5 11q-35 151 -166.5 214t-272.5 63q-271 0 -427 -164.5t-156 -450.5t173.5 -497t477.5 -211t387 303q8 20 29.5 14t25.5 -8l-8 -50q-8 -50 -12 -90t-8.5 -76t-4.5 -54q-8 -12 -14 -17q-206 -92 -459 -92q-330 0 -501.5 147.5t-237.5 283.5
t-66 305t65 304.5t230 278.5t494 143q106 0 233 -21.5t228 -62.5q4 -4 9 -8t7 -8q0 -83 27 -252q-12 -6 -26 -6z" />
    <glyph glyph-name="D" unicode="D" horiz-adv-x="1564" 
d="M1108.5 1152.5q-171.5 184.5 -449.5 184.5q-116 0 -206 -22q-25 -40 -25 -191v-807q0 -148 29.5 -195.5t111.5 -47.5h174q230 0 383.5 157.5t153.5 447.5q0 289 -171.5 473.5zM278 1389q126 0 208.5 12t215.5 12t299 -44t297 -177q203 -203 203 -492q0 -141 -56 -270
t-157 -229q-201 -201 -559 -201h-403q-101 0 -230 -6q-4 12 -4 30.5t12 20.5l74 12q41 8 50.5 45t9.5 174v836q0 137 -7.5 166t-19.5 39t-33 14l-74 12q-12 2 -12 20.5t4 31.5q56 -6 182 -6z" />
    <glyph glyph-name="E" unicode="E" horiz-adv-x="1191" 
d="M891 713q0 -19 6 -187q-11 -4 -29 -4t-20 13l-8 73q-4 41 -46 57.5t-163 16.5h-193q-10 -6 -12 -14v-351q0 -148 29.5 -195.5t111.5 -47.5h160q161 0 207.5 17.5t70 42t44.5 63.5l32 59q8 12 27 10t31 -10q-34 -85 -62 -246q-2 -8 -16 -14q-16 4 -37 4h-700
q-99 0 -228 -6q-4 12 -4 30.5t12 20.5l74 12q41 8 50.5 45t9.5 174v836q0 137 -7.5 166t-19.5 39t-33 14l-74 12q-12 2 -12 20.5t4 31.5q55 -6 274 -6h281q281 0 301 4q16 -8 19 -15q4 -20 12 -79t31 -148q-44 -22 -56 2l-18 47q-27 72 -87 93.5t-214 21.5h-188
q-25 -30 -25 -191v-354q2 -8 12 -14h193q121 0 163 16t46 55l8 62q2 12 19 12t30 -4q-6 -165 -6 -184z" />
    <glyph glyph-name="F" unicode="F" horiz-adv-x="1120" 
d="M98 1395q55 -6 281 -6h289q290 0 311 4q16 -7 19 -21t18.5 -101.5t25.5 -125.5q-8 -4 -28 -7t-27 9l-24 55q-27 69 -86.5 91t-212.5 22h-211q-25 -30 -25 -191v-364q2 -8 12 -15h205q121 0 163 16.5t46 55.5l8 60q2 12 20 12t29 -4q-6 -165 -6 -188.5t6 -188.5
q-12 -4 -29 -4t-20 14l-8 74q-4 41 -46 60.5t-163 19.5h-205q-10 -6 -12 -15v-368q0 -133 14.5 -167t30.5 -44t41 -15l94 -16q12 -2 12 -21t-4 -32q-258 9 -520 0q-4 12 -4 30.5t12 20.5l74 12q41 8 51.5 48.5t10.5 170.5v836q0 137 -7.5 166t-19.5 39t-33 14l-74 12
q-12 2 -12 20.5t4 31.5z" />
    <glyph glyph-name="G" unicode="G" horiz-adv-x="1525" 
d="M1241 592q60 0 240 6q4 -12 4 -30.5t-12 -20.5l-54 -8q-39 -6 -48 -45t-9 -148v-92q0 -125 31 -170q-4 -4 -6.5 -9t-6.5 -9q-261 -103 -520 -103q-340 0 -568.5 201.5t-228.5 535.5q0 172 62.5 307.5t225.5 276.5t495 141q284 0 504 -84q4 -4 9 -8t7 -8q0 -20 3 -53
t8 -92.5t14 -106.5q-11 -6 -31 -6t-25 12q-93 277 -491 277q-260 0 -411.5 -170t-151.5 -455t121.5 -433t236.5 -205.5t271 -57.5t253 86q8 32 8 108v93q0 135 -12 163.5t-28.5 35.5t-40.5 11l-78 15q-12 2 -12.5 20.5t4.5 30.5q177 -6 237 -6z" />
    <glyph glyph-name="H" unicode="H" horiz-adv-x="1650" 
d="M1317.5 1389q59.5 0 236.5 6q16 -47 -8 -52l-73 -12q-42 -8 -51 -43.5t-9 -173.5v-838q0 -137 7 -165.5t19.5 -39t33.5 -14.5l73 -12q13 -2 13 -20.5t-5 -30.5q-177 6 -235 6t-238 -6q-4 12 -4 30.5t13 20.5l73 12q40 8 50 43.5t10 173.5v392q-2 8 -13 14h-770
q-10 -6 -12 -14v-390q0 -137 7 -165.5t19.5 -39t32.5 -14.5l74 -12q12 -2 12 -20.5t-4 -30.5q-177 6 -235 6t-238 -6q-4 12 -4 30.5t12 20.5l74 12q40 8 50 43.5t10 173.5v838q0 137 -7.5 166t-19.5 39t-33 14l-74 12q-12 2 -12 20.5t4 31.5q177 -6 236.5 -6t236.5 6
q4 -12 4 -30.5t-12 -21.5l-74 -12q-41 -8 -50 -45t-9 -174v-328q2 -8 12 -14h770q10 6 13 14v328q0 137 -7.5 166t-19.5 39t-33 14l-73 12q-12 2 -12.5 20.5t3.5 31.5q177 -6 236.5 -6z" />
    <glyph glyph-name="I" unicode="I" horiz-adv-x="681" 
d="M339.5 1389q58.5 0 238.5 6q4 -12 4 -30.5t-13 -21.5l-73 -12q-41 -8 -50.5 -45t-9.5 -174v-836q0 -137 7.5 -165.5t19.5 -39t33 -14.5l73 -12q13 -2 13 -20.5t-4 -30.5q-235 8 -474 0q-4 12 -4 30.5t13 20.5l73 12q41 8 50.5 45t9.5 174v836q0 137 -7.5 166t-19.5 39
t-33 14l-73 12q-12 2 -12.5 20.5t3.5 31.5q177 -6 235.5 -6z" />
    <glyph glyph-name="J" unicode="J" horiz-adv-x="696" 
d="M365.5 1389q59.5 0 236.5 6q4 -13 4 -31t-12 -21l-74 -12q-41 -8 -51 -49.5t-10 -169.5v-866q0 -519 -164 -632.5t-289 -113.5q-53 0 -106.5 29.5t-53.5 70.5q0 40 29 71.5t57 31.5t41 -18.5t40 -57.5t91 -39q111 0 138.5 115t27.5 274v1133q0 137 -7 166t-19.5 40
t-32.5 15l-74 12q-12 2 -12 20.5t4 31.5q177 -6 236.5 -6z" />
    <glyph glyph-name="K" unicode="K" horiz-adv-x="1370" 
d="M1049 1389q106 0 194 6q4 -12 4 -30.5t-12 -21.5l-33 -4q-45 -6 -84 -29.5t-104 -92.5l-406 -426q-2 -10 0 -17q342 -413 503 -565.5t210 -157.5l33 -4q12 -2 12 -21t-4 -32q-81 6 -175 6t-136 -6q-166 160 -602 686q-12 -8 -21 -18v-386q0 -137 7 -165.5t19.5 -39
t32.5 -14.5l74 -12q12 -2 12 -20.5t-4 -30.5q-177 6 -235 6t-238 -6q-4 12 -4 30.5t12 20.5l74 12q41 8 50.5 45t9.5 174v836q0 137 -7.5 166t-19.5 39t-33 14l-74 12q-12 2 -12 20.5t4 31.5q177 -6 236.5 -6t236.5 6q4 -12 4 -30.5t-12 -21.5l-74 -12q-41 -8 -50 -45
t-9 -174v-373q12 0 18 2q53 50 186.5 192t193.5 210t91 106.5t31 59.5q0 27 -33 30l-51 4q-12 -1 -12 19t4 33q87 -6 193 -6z" />
    <glyph glyph-name="L" unicode="L" horiz-adv-x="1206" 
d="M338.5 1389q65.5 0 245.5 6q4 -12 4 -30.5t-13 -21.5l-81 -12q-42 -4 -54 -46t-12 -173v-795q0 -148 29.5 -195.5t111.5 -47.5h158q157 0 206.5 16t73 41t42.5 66l32 73q6 16 28 12t34 -12q-17 -42 -30 -104t-21.5 -97t-11.5 -51t-17 -22q-16 4 -37 4h-700q-50 0 -230 -6
q-4 12 -4 30.5t12 20.5l74 12q41 8 50.5 45t9.5 174v836q0 137 -7.5 166t-19.5 39t-33 14l-74 12q-12 2 -12 20.5t4 31.5q177 -6 242.5 -6z" />
    <glyph glyph-name="M" unicode="M" horiz-adv-x="1865" 
d="M1599 1389q93 0 136 6q4 -13 4 -33t-13 -23l-53 -6q-43 -4 -60.5 -48t-13.5 -163l27 -846q4 -133 13.5 -163.5t22.5 -41t34 -14.5l65 -12q13 -2 13 -20.5t-5 -30.5q-177 6 -235 6t-238 -6q-4 12 -4 30.5t13 20.5l73 12q41 8 51.5 48.5t6.5 170.5l-25 834h-4l-479 -1128
q-32 -13 -60 0l-520 1116h-4l-8 -711q0 -198 10 -244.5t27.5 -63t46.5 -22.5l69 -12q12 -2 12.5 -20.5t-3.5 -30.5q-178 6 -206 6t-196 -6q-4 12 -4 30.5t12 20.5l58 10q46 8 62 74t20 256l20 737q4 106 -21.5 156.5t-68.5 54.5l-53 6q-12 2 -12 23t4 33q117 -6 180 -6
t121 6q14 -4 24 -11q16 -39 40 -98t59 -135l413 -913h4l383 913q31 76 55.5 135.5t39.5 97.5q10 8 22 11q52 -6 145 -6z" />
    <glyph glyph-name="N" unicode="N" horiz-adv-x="1638" 
d="M1335 1389q44 0 215 6q4 -13 4 -31t-12 -21l-61 -10q-51 -8 -66.5 -70t-15.5 -259v-658q0 -179 16 -379q-13 -4 -41 -4t-31.5 3t-25.5 33t-107 124l-866 1003h-4v-739q0 -187 17.5 -239t38 -68.5t50.5 -22.5l72 -12q12 -2 12 -20.5t-4 -30.5q-177 6 -221 6t-215 -6
q-4 12 -4 30.5t14 20.5l62 10q50 8 66 71t16 259v760q0 81 -37 127q-37 45 -57.5 51t-43.5 10l-55 6q-12 2 -12 23t4 33q117 -6 134 -6h65q66 0 123 6q12 -2 22 -11q37 -45 82 -101t125 -148l704 -826h5v692q0 185 -17.5 238t-38 69.5t-51.5 22.5l-72 12q-14 2 -14 20.5
t4 31.5q177 -6 221 -6z" />
    <glyph glyph-name="O" unicode="O" horiz-adv-x="1566" 
d="M1284 657q0 115 -32.5 239t-98.5 226.5t-165 168t-230 65.5q-241 0 -358 -183.5t-117 -442.5t98 -412.5t197.5 -219t230.5 -65.5t221 55t146.5 143t82 199.5t25.5 226.5zM1503 695q0 -151 -53 -283.5t-148.5 -233t-225.5 -158t-282 -57.5t-285.5 58.5t-232 158t-156 234
t-57.5 284.5t53.5 282t148.5 231.5t226 156.5t283 57t285 -57t231.5 -157.5t155.5 -232.5t57 -283z" />
    <glyph glyph-name="P" unicode="P" horiz-adv-x="1181" 
d="M1085 1016q0 -182 -132.5 -308t-362.5 -126q-41 0 -53.5 8t-12.5 25t6 36q28 -4 62 -4q143 0 218 95.5t75 247.5t-87 247.5t-247 95.5q-62 0 -100 -14q-23 -28 -23 -195v-835q0 -133 14.5 -167t30.5 -44t41 -15l94 -16q12 -2 12 -21t-4 -32q-258 9 -520 0q-4 12 -4 30.5
t12 20.5l74 12q41 8 50.5 45t9.5 174v836q0 137 -7.5 166t-19.5 39t-33 14l-74 12q-12 2 -12 20.5t4 31.5q177 -6 203 -6l317 14q320 0 394.5 -148t74.5 -239z" />
    <glyph glyph-name="Q" unicode="Q" horiz-adv-x="1566" 
d="M1284 657q0 115 -32.5 239t-98.5 226.5t-165 168t-230 65.5q-241 0 -358 -183.5t-117 -442.5t98 -412.5t197.5 -219t230.5 -65.5t221 55t146.5 143t82 199.5t25.5 226.5zM674 -27q-262 47 -436.5 251t-174.5 490t148.5 441.5t279.5 212.5t283 57t285 -57t288.5 -215.5
t155.5 -458.5q0 -252 -146.5 -451t-383.5 -259v-2q166 -150 292.5 -243t196.5 -93t106 21.5t68 51.5q52 -23 19 -61q-246 -276 -447.5 -106.5t-318.5 286.5t-149.5 123t-65.5 12z" />
    <glyph glyph-name="R" unicode="R" horiz-adv-x="1398" 
d="M551 1333q-62 0 -100 -14q-23 -28 -23 -195v-395q2 -6 12 -12h142q137 0 220 78t83 222t-96 230t-238 86zM616 1403q211 0 339 -93.5t128 -269.5q0 -227 -272 -340q-2 -8 0 -16q25 -37 57.5 -86t92.5 -133t147 -192q86 -108 137 -162t105 -60l32 -4q13 -2 13 -21t-4 -32
q-81 6 -172 6t-134 -6q-143 137 -273 343t-187 298q-9 9 -15 12h-170q-10 -6 -12 -14v-357q0 -137 7 -165.5t19.5 -39t32.5 -14.5l74 -12q12 -2 12 -20.5t-4 -30.5q-177 6 -235 6t-238 -6q-4 12 -4 30.5t12 20.5l74 12q41 8 50.5 45t9.5 174v836q0 137 -7.5 166t-19.5 39
t-33 14l-74 12q-12 2 -12 20.5t4 31.5q177 -6 215 -6z" />
    <glyph glyph-name="S" unicode="S" horiz-adv-x="1044" 
d="M860 1147q-18 0 -22 12q-63 203 -273 203q-106 0 -179 -62.5t-73 -156.5t47.5 -153.5t118 -107.5t152.5 -92.5t152.5 -99.5t117.5 -126.5t47 -221t-146.5 -264.5t-342.5 -115t-332 80q-6 4 -14 16q-17 195 -33 267q12 6 32 6t23 -15q73 -288 346 -288q121 0 200 67.5
t79 179.5t-44 175t-111.5 110t-144.5 88t-144.5 92.5t-111.5 124t-44 162.5q0 174 106.5 285.5t323.5 111.5q149 0 262 -34q12 -8 14 -17q5 -104 25 -221q-13 -6 -31 -6z" />
    <glyph glyph-name="T" unicode="T" horiz-adv-x="1218" 
d="M864 1307h-131q-18 -32 -18 -201v-830q0 -137 7 -165.5t19.5 -39t32.5 -14.5l74 -12q12 -2 12 -20.5t-4 -30.5q-177 6 -236.5 6t-236.5 -6q-4 12 -4 30.5t12 20.5l74 12q41 8 50 45t9 174v830q0 166 -20 201h-135q-152 0 -194 -13.5t-57.5 -34t-25.5 -57.5l-16 -57
q-6 -16 -24 -18t-32 6q2 29 9.5 113.5t7.5 180.5q6 3 23 3q16 0 20 -10q10 -30 22 -34q30 -6 246 -6h535q217 0 237 4t24.5 14.5t8.5 20.5q3 11 19 11t22 -3q0 -236 4 -294q-43 -22 -55 12l-17 57q-10 37 -24.5 57.5t-53 34t-184.5 13.5z" />
    <glyph glyph-name="U" unicode="U" horiz-adv-x="1550" 
d="M1243 1389q58 0 232 6q4 -13 4 -31t-13 -21l-53 -10q-80 -13 -91 -124t-11 -205v-531q0 -252 -130 -381t-374 -129q-571 0 -571 498v651q0 132 -7.5 163.5t-19.5 41.5t-33 14l-74 12q-12 2 -12 20.5t4 31.5q177 -6 236.5 -6t236.5 6q4 -12 4 -30.5t-12 -21.5l-74 -12
q-41 -8 -50 -46t-9 -175v-629q0 -197 96 -315.5t295 -118.5q385 0 385 432v522q0 180 -20.5 235.5t-42 72t-52.5 22.5l-71 12q-12 2 -12 20.5t4 31.5q177 -6 235 -6z" />
    <glyph glyph-name="V" unicode="V" horiz-adv-x="1394" 
d="M1175 1389q28 0 205 6q4 -13 4 -31t-14 -21l-45 -12q-47 -14 -78.5 -57t-72.5 -156l-367 -946q-46 -122 -64 -199q-14 -8 -41.5 -8t-44.5 8q-19 87 -65 199l-367 946q-46 118 -69 151.5t-40.5 44.5t-39.5 17l-53 12q-12 2 -12.5 20.5t3.5 31.5q177 -6 237.5 -6t237.5 6
q16 -47 -8 -52l-51 -8q-55 -9 -55 -43q0 -31 23.5 -92t31.5 -82l320 -839h4l313 839q29 72 29 116t-15.5 69.5t-56.5 31.5l-51 8q-12 2 -12 20.5t4 31.5q182 -6 210 -6z" />
    <glyph glyph-name="W" unicode="W" horiz-adv-x="1986" 
d="M1774 1389q21 0 198 6q4 -13 4 -31t-14 -21l-47 -12q-44 -11 -72 -52.5t-78 -160.5l-389 -946q-39 -87 -63 -199q-14 -8 -41 -8t-43 8q-20 92 -66 199l-166 395h-2l-166 -395q-39 -84 -65 -199q-14 -8 -41 -8t-43 8q-18 83 -68 199l-387 946q-53 126 -79 163.5t-70 49.5
l-53 12q-12 2 -12.5 20.5t3.5 31.5q177 -6 225.5 -6t225.5 6q4 -12 4 -30.5t-14 -21.5l-39 -6q-41 -6 -41 -47t23.5 -96t31.5 -76l346 -854h4l166 393v19l-188 442q-57 128 -76.5 157.5t-35 39.5t-38.5 16l-49 12q-12 2 -12 20.5t4 31.5q177 -6 216 -6t216 6q4 -12 4 -30.5
t-12 -21.5l-39 -6q-39 -6 -39 -47t55 -172l105 -248h2l100 248q37 92 45 150.5t-51 68.5l-39 6q-14 2 -14 20.5t4 31.5q177 -6 180 -6t180 6q4 -12 4 -30.5t-12 -21.5l-53 -12q-41 -8 -73.5 -55t-78.5 -158l-143 -338v-18l207 -492h4l340 848q83 198 -27 217l-53 8
q-12 2 -12 20.5t4 31.5q182 -6 203 -6z" />
    <glyph glyph-name="X" unicode="X" horiz-adv-x="1306" 
d="M1268 1364.5q0 -18.5 -15 -21.5l-39 -4q-58 -4 -107.5 -43.5t-135.5 -175.5l-234 -360v-19l318 -471q39 -57 65.5 -96t54.5 -74t62 -43l47 -12q12 -2 12 -20.5t-4 -30.5q-177 6 -222 6t-222 -6q-4 12 -4 30.5t14 20.5l37 6q37 6 37 30q0 35 -105 187l-215 322h-4
l-186 -297q-90 -143 -90 -205q0 -35 33 -39l51 -4q12 0 12 -19t-4 -32q-86 6 -160 6t-102.5 -1l-57 -2t-52 -2t-38.5 -1q-4 12 -4 30.5t13 20.5l40 4q62 8 106.5 46t131.5 173l248 387v19l-297 444q-114 172 -140 189.5t-44 23.5l-45 12q-12 2 -12.5 20.5t3.5 31.5
q177 -6 218 -6t221 6q4 -12 4 -30.5t-13 -21.5l-38 -6q-23 -4 -29 -11t-6 -27t108 -179l197 -297h4l174 273q90 142 90 204q0 35 -33 39l-51 4q-12 -1 -12 19t4 33q87 -6 211 -6l201 6q4 -12 4 -30.5z" />
    <glyph glyph-name="Y" unicode="Y" horiz-adv-x="1255" 
d="M1050 1389q103 0 191 6q4 -13 4 -31t-12 -21l-29 -4q-56 -8 -94.5 -45t-124.5 -174l-229 -360q-23 -33 -29 -59.5t-6 -77.5v-347q0 -137 7 -165.5t19.5 -39t32.5 -14.5l74 -12q12 -2 12 -20.5t-4 -30.5q-177 6 -235 6t-238 -6q-4 12 -4 30.5t12 20.5l74 12q41 8 50 45
t9 174v330q0 39 -6 60.5t-26 56.5l-244 395q-103 169 -134.5 189t-49.5 24l-47 12q-12 2 -12.5 20.5t3.5 31.5q177 -6 223 -6t226 6q4 -12 4 -30.5t-14 -21.5l-37 -6q-37 -6 -37 -30q0 -23 29.5 -70t70.5 -117l197 -329h2l186 305q88 145 88 204q0 35 -32 39l-52 4
q-12 -1 -12 19t4 33q87 -6 190 -6z" />
    <glyph glyph-name="Z" unicode="Z" horiz-adv-x="1427" 
d="M1296 -4q-16 4 -73 4h-558q-501 0 -597 -6q-6 26 0 39q10 12 49.5 59t142.5 184l774 1035v4h-395q-249 0 -317 -25.5t-92.5 -57.5t-43.5 -81l-18 -47q-6 -14 -26 -14t-31 6q4 23 12 69.5t21 119t20 155.5q8 2 23 2t19 -10q10 -29 21 -31q96 -12 138 -12h397l82 1h258
q176 1 209 3q6 -18 0 -39q-12 -14 -34 -41t-63 -77t-92 -122l-774 -1036v-4h512q220 0 285 26.5t97 59.5t63 84l26 45q8 12 27 10t31 -10q-18 -45 -35 -111.5t-27 -105t-13 -54.5t-18 -22z" />
    <glyph glyph-name="bracketleft" unicode="[" horiz-adv-x="692" 
d="M526 -221q19 1 19 -21t-4 -39l-111 2h-178l-100 -2v1713l100 -2h178l111 2q4 -16 4 -38t-19 -22h-184q-37 0 -58.5 -4t-34.5 -28t-13 -179v-1171q0 -155 13 -179t34.5 -28t58.5 -4h184z" />
    <glyph glyph-name="backslash" unicode="\" horiz-adv-x="614" 
d="M643 0q-31 -23 -82 -33l-590 1465q28 21 82 32z" />
    <glyph glyph-name="bracketright" unicode="]" horiz-adv-x="692" 
d="M166 -221h184q37 0 58.5 4t35 28t13.5 179v1171q0 155 -13.5 179t-35 28t-58.5 4h-184q-19 0 -19 22t5 38l110 -2h178l101 2v-1713l-101 2h-178l-110 -2q-15 60 14 60z" />
    <glyph glyph-name="asciicircum" unicode="^" 
d="M854 438l-342 772l-342 -772h-78l385 844h70l385 -844h-78z" />
    <glyph glyph-name="underscore" unicode="_" 
d="M0 -389v94h1024v-94h-1024z" />
    <glyph glyph-name="grave" unicode="`" 
d="M338 1428q0 29 20 46t48 17t46 -25.5t44 -71.5t49.5 -91.5t49.5 -93.5t50.5 -93t40.5 -76q-4 -32 -37 -22q-59 72 -135 160t-126 155q-50 66 -50 95z" />
    <glyph glyph-name="a" unicode="a" horiz-adv-x="909" 
d="M266 208.5q0 -61.5 36 -100t85 -38.5q103 0 156 53q22 22 22 61v240q-214 -73 -256.5 -113.5t-42.5 -102zM870 100q16 0 15 -19q0 -19 -2 -28q-111 -80 -171 -80t-88 30t-44 73q-4 2 -15 2q-70 -59 -128 -87t-142 -28t-138.5 60.5t-54.5 148.5t44 129t125 75t284 101
q8 8 10 15v157q0 90 -50 130t-109 40t-100.5 -26.5t-41.5 -85.5v-17q0 -18 4 -28q-2 -8 -8 -17q-20 -16 -53 -31.5t-49 -15.5q-27 0 -27 45t21.5 79t83.5 80q151 113 284 113t169 -81.5t36 -137.5v-477q0 -97 20.5 -120t46.5 -23t44 12t34 12z" />
    <glyph glyph-name="b" unicode="b" horiz-adv-x="1114" 
d="M786 672q-95 110 -218 110t-201 -80q-23 -23 -23 -59v-407q0 -93 65.5 -153t153.5 -60t145.5 30.5t115 105.5t57.5 239t-95 274zM344 1319v-553q4 -4 16 -4q72 55 137 93t153 38q170 0 284.5 -125t114.5 -320t-140.5 -340t-335.5 -145q-162 0 -224 22.5t-91 30.5
q-45 -28 -58 -28t-20 6q4 106 4 213v1014q0 76 -6 102.5t-33 40.5l-57 31q-12 5 -12 16l2 21q133 32 186.5 67t65.5 35t18 -6q-4 -106 -4 -209z" />
    <glyph glyph-name="c" unicode="c" horiz-adv-x="880" 
d="M486 -37q-192 0 -306 137t-114 310q0 216 136 366t351 150q160 0 212 -42t52 -72t-23.5 -59.5t-54.5 -29.5t-44 20.5t-51.5 64.5t-160.5 44q-123 0 -194.5 -99.5t-71.5 -247.5t102 -283.5t265 -135.5q66 0 126 33t97 86q61 -10 20 -66q-61 -82 -151 -129t-190 -47z" />
    <glyph glyph-name="d" unicode="d" horiz-adv-x="1114" 
d="M756 647q0 97 -73 152t-153 55q-149 0 -227 -99.5t-78 -265.5t90.5 -291.5t243.5 -125.5q107 0 174 67q23 20 23 58v450zM741 88q-150 -108 -286 -108q-172 0 -280.5 132.5t-108.5 325.5q0 192 127.5 334.5t324.5 142.5q138 0 219 -43q12 6 19 17v332q0 76 -6.5 102.5
t-32.5 40.5l-58 31q-12 5 -12 16l2 21q132 32 186 67t66 35t19 -6q-5 -132 -5 -209v-1174q0 -39 8.5 -54t26.5 -13l80 6q21 2 21 -27l-2 -20q-138 -19 -199.5 -40.5t-73.5 -21.5t-18 7v92q-4 10 -17 14z" />
    <glyph glyph-name="e" unicode="e" horiz-adv-x="899" 
d="M326.5 810q-64.5 -56 -88.5 -153q2 -10 12 -14l399 6q9 9 13 21q0 96 -54 146t-135 50q-82 0 -146.5 -56zM207 498q0 -160 101 -287t263 -127q61 0 122 33t95 78q12 -1 24 -11t13.5 -20t-12.5 -31q-126 -170 -327 -170q-200 0 -310 140.5t-110 342.5q0 203 125.5 341.5
t281.5 138.5q155 0 251 -77t110 -235q-3 -20 -17 -34h-592q-18 -10 -18 -82z" />
    <glyph glyph-name="f" unicode="f" horiz-adv-x="628" 
d="M641 1552q71 0 132 -36t61 -80q0 -28 -31 -59t-58 -31t-40 12t-41 40q-61 62 -123 62q-112 0 -151.5 -102.5t-39.5 -218.5v-236q2 -6 15 -14h262q10 -4 12 -12.5t2 -46.5t-14 -44h-265q-10 -6 -12 -14v-547q0 -94 9.5 -128t43.5 -38l109 -14q12 -2 12 -20t-4 -31l-62 2
l-392 -2q-15 45 8 49l69 10q35 4 41 41t6 131v512q0 35 -5 42t-15 7h-49q-25 0 -25 29q77 48 94 78q0 249 63 371t107 166q122 122 281 122z" />
    <glyph glyph-name="g" unicode="g" horiz-adv-x="1015" 
d="M659 -59h-292q-31 0 -44 -5.5t-41 -31.5q-70 -68 -71 -142q0 -124 99 -186.5t200 -62.5q175 0 263.5 72.5t88.5 172.5t-59.5 141.5t-143.5 41.5zM616.5 787.5q-47.5 86.5 -147.5 86.5q-131 0 -149.5 -103t-18.5 -147t11.5 -94.5t35 -91.5t60 -67.5t88 -26.5t84 22.5
t58.5 73t26 155.5q0 106 -47.5 192.5zM991 -134q0 -200 -166.5 -317.5t-400.5 -117.5t-294 94t-60 166t55 130t129 118q4 8 2 16q-131 63 -131 184q0 41 10 66q47 33 92 64.5t88 66.5q-80 41 -133 114.5t-53 157.5q0 152 107.5 235t246.5 83q83 0 176 -52l308 15
q10 -4 12 -12.5t2 -42t-14 -39.5l-201 10q-6 -4 -10 -10q80 -95 80 -182q0 -155 -104 -237.5t-249 -82.5q-46 0 -82 7q-35 7 -44 2.5t-35 -22.5q-50 -37 -50 -92t46.5 -79.5t109.5 -24.5l279 6q133 0 208.5 -58t75.5 -166z" />
    <glyph glyph-name="h" unicode="h" horiz-adv-x="1153" 
d="M369 1319v-518q4 -4 16 -4q78 59 145.5 94t147.5 35q146 0 225 -80q61 -66 63.5 -143.5t2.5 -106.5v-371q0 -94 6 -130t41 -42l61 -10q13 -2 13 -19t-5 -30l-49 2l-344 -2q-4 12 -4 30t12 19l62 10q35 6 41 42t6 130v361q0 47 -8 91t-52 91q-43 47 -131 47t-140 -25.5
t-78 -45.5t-28.5 -33t-2.5 -35v-451q0 -94 6 -130t41 -42l61 -10q12 -2 12 -19t-4 -30l-49 2l-344 -2q-4 12 -4 30t12 19l62 10q35 6 41 42t6 130v996q0 76 -6 102.5t-33 40.5l-57 31q-13 5 -13 16l2 21q135 32 187.5 67t64.5 35t19 -6q-4 -106 -4 -209z" />
    <glyph glyph-name="i" unicode="i" horiz-adv-x="581" 
d="M371 725v-500q0 -94 6 -130t41 -42l61 -10q13 -2 13 -19t-5 -30l-49 2l-344 -2q-4 12 -4 30t12 19l62 10q35 6 41 42t6 130v469q0 35 -4 46.5t-21 21.5l-71 39q-13 5 -13 16l2 21q135 32 187.5 67t64.5 35t19 -6q-4 -106 -4 -209zM403 1364q0 -45 -27.5 -74.5
t-72.5 -29.5t-73.5 28.5t-28.5 73.5t27.5 75.5t72.5 30.5t73.5 -29.5t28.5 -74.5z" />
    <glyph glyph-name="j" unicode="j" horiz-adv-x="561" 
d="M369 725v-891q0 -141 -51 -231t-142.5 -129t-106.5 -42t-22 11q-4 10 -6 17.5t-4 11.5q163 48 167.5 169t4.5 181v872q0 35 -4 46.5t-21 21.5l-71 39q-13 5 -13 16l2 21q135 32 187.5 67t64.5 35t19 -6q-4 -106 -4 -209zM401 1364q0 -45 -27.5 -74.5t-72.5 -29.5
t-73.5 28.5t-28.5 73.5t27.5 75.5t72.5 30.5t73.5 -29.5t28.5 -74.5z" />
    <glyph glyph-name="k" unicode="k" horiz-adv-x="1058" 
d="M1071 24q0 -17 -4 -30l-102 6q-108 0 -160 -8q-20 23 -56 64.5t-66 74.5t-72 79t-83 91t-75.5 83t-57.5 56q-12 4 -26 0v-215q0 -94 6 -130t41 -42l61 -10q12 -2 12 -19t-4 -30l-49 2l-344 -2q-4 12 -4 30t12 19l62 10q35 6 41 42t6 130v996q0 76 -6 102.5t-33 40.5
l-57 31q-13 5 -13 16l2 21q135 32 187.5 67t64.5 35t19 -6q-4 -106 -4 -209v-830q37 -9 123 76q87 86 111 109.5t59.5 62.5t35.5 68t-32 35l-37 6q-13 2 -13 19t5 30l51 -1l329 1q15 -45 -8 -49l-53 -10q-49 -8 -82 -23.5t-86 -64.5l-233 -218q-2 -6 -1 -9t1 -7
q99 -105 167 -177q133 -142 207 -214t111 -76l35 -4q12 -2 12 -19z" />
    <glyph glyph-name="l" unicode="l" horiz-adv-x="581" 
d="M371 1319v-1094q0 -94 6 -130t41 -42l61 -10q13 -2 13 -19t-5 -30l-49 2l-344 -2q-4 12 -4 30t12 19l62 10q35 6 41 42t6 130v996q0 76 -6 102.5t-33 40.5l-57 31q-13 5 -13 16l2 21q135 32 187.5 67t64.5 35t19 -6q-4 -106 -4 -209z" />
    <glyph glyph-name="m" unicode="m" horiz-adv-x="1753" 
d="M348 940q12 0 19 -6l-5 -137q4 -4 17 -4q78 61 147.5 97t149.5 36q146 0 227 -80q21 -21 41 -64q8 -2 17 0q80 63 157.5 103.5t157.5 40.5q146 0 227 -80q61 -66 63.5 -143.5t2.5 -106.5v-371q0 -94 6 -130t41 -42l61 -10q13 -2 13 -19t-4 -30l-48 2l-346 -2q-4 12 -4 30
t12 19l62 10q35 6 41 42t6 130v361q0 47 -8 91t-52 91q-43 47 -131 47t-140 -25.5t-78 -45.5t-28.5 -33t-2.5 -35v-451q0 -94 6 -130t41 -42l61 -10q13 -2 13 -19t-5 -30l-49 2l-344 -2q-4 12 -4 30t12 19l62 10q35 6 41 42t6 130v361q0 47 -8 91t-52 91q-43 47 -131 47
t-140 -25.5t-78 -45.5t-28.5 -33t-2.5 -35v-451q0 -94 6 -130t41 -42l61 -10q12 -2 12 -19t-4 -30l-49 2l-344 -2q-4 12 -4 30t12 19l62 10q35 6 41 42t6 130v469q0 35 -4 46.5t-21 21.5l-71 39q-13 5 -13 16l2 21q122 29 178 65.5t68 36.5z" />
    <glyph glyph-name="n" unicode="n" horiz-adv-x="1167" 
d="M348 940q12 0 19 -6l-5 -137q4 -4 17 -4q92 69 162 101t147 32q147 0 218 -71t74 -150.5t3 -108.5v-371q0 -94 6 -130t41 -42l62 -10q12 -2 12 -19t-4 -30l-48 2l-345 -2q-15 45 8 49l61 10q35 6 41 42t6 130v361q0 47 -8 91t-55 91q-48 47 -136 47t-142 -25.5t-80 -45.5
t-29.5 -33t-3.5 -35v-451q0 -94 6 -130t41 -42l61 -10q12 -2 12 -19t-4 -30l-49 2l-344 -2q-4 12 -4 30t12 19l62 10q35 6 41 42t6 130v469q0 35 -4 46.5t-21 21.5l-71 39q-13 5 -13 16l2 21q122 29 178 65.5t68 36.5z" />
    <glyph glyph-name="o" unicode="o" horiz-adv-x="1083" 
d="M750.5 731.5q-78.5 134.5 -225.5 134.5t-209 -124t-62 -286t78 -297.5t226 -135.5t209.5 124t61.5 287t-78.5 297.5zM204.5 95.5q-138.5 132.5 -138.5 342.5t130.5 349t337 139t345.5 -133t139 -342t-131 -348.5t-337.5 -139.5t-345 132.5z" />
    <glyph glyph-name="p" unicode="p" horiz-adv-x="1114" 
d="M798 697q-83 118 -220 118q-107 0 -187 -80q-22 -19 -22 -59v-408q0 -94 66 -153.5t150 -59.5q83 0 137 31t106.5 107.5t52.5 230.5q0 155 -83 273zM348 940q12 0 19 -6l-5 -137q4 -4 17 -4q72 53 138.5 93t153.5 40t154.5 -34t116.5 -93.5t78 -141.5t29 -227
t-133.5 -289.5t-323.5 -144.5q-107 0 -201 24q-20 -10 -22 -12v-315q0 -94 6 -128t41 -38l102 -14q12 -3 12 -21t-4 -31l-58 1l-376 -1q-4 11 -4 29t12 21l62 10q35 6 41 42t6 130v1001q0 35 -4 46.5t-21 21.5l-71 39q-13 5 -13 16l2 21q122 29 178 65.5t68 36.5z" />
    <glyph glyph-name="q" unicode="q" horiz-adv-x="1101" 
d="M764 666q0 88 -71.5 144t-156.5 56q-156 0 -233.5 -100.5t-77.5 -260.5t91 -296.5t255 -136.5q104 0 168 55q25 23 25 59v480zM924 694v-1001q0 -94 6 -130t41 -40l84 -10q12 -2 12 -20.5t-4 -31.5l-55 1l-390 -1q-4 13 -4 31t13 21l90 14q35 6 41 39t6 127v373
q-4 4 -16 4q-147 -90 -289 -90q-175 0 -284 131t-109 326t134.5 342t352.5 147q156 0 270 -47q27 23 47.5 43t37.5 20t24 -6q-8 -212 -8 -242z" />
    <glyph glyph-name="r" unicode="r" horiz-adv-x="741" 
d="M336 940q12 0 18 -6l6 -162q4 -4 17 -4q23 25 82.5 91.5t177.5 66.5q35 0 64.5 -15.5t29.5 -68.5t-27.5 -79t-48.5 -26t-59 27t-74 27q-77 0 -139 -97q-18 -29 -18 -71v-398q0 -94 9 -128t44 -38l108 -14q23 -4 9 -51l-61 2l-394 -2q-4 12 -4 30t12 19l70 10q35 4 41 41
t6 131v465q0 35 -3 49.5t-22 18.5l-71 20q-13 5 -13 19l2 24q38 11 125 47q49 23 75 47.5t38 24.5z" />
    <glyph glyph-name="s" unicode="s" horiz-adv-x="710" 
d="M566 707q-18 0 -19 12q-20 78 -64.5 109.5t-114.5 31.5t-106.5 -39t-36.5 -88t30 -87t74 -69.5t95 -62.5t125 -90.5t74 -167.5q0 -136 -93 -214.5t-233 -78.5q-49 0 -115.5 13.5t-107.5 37.5q0 18 -1 49l-2 62t-2 57.5t-1 38.5q8 4 23 4t20 -16q16 -74 61 -127t131 -53
q174 0 174 147q0 83 -71.5 133.5t-193.5 120.5t-122 234q0 106 82 184t208 78t208 -49l4 -166q-8 -4 -26 -4z" />
    <glyph glyph-name="t" unicode="t" horiz-adv-x="647" 
d="M486 66q78 0 143 36q31 -31 -6 -59q-109 -80 -241 -80q-114 0 -162 63.5t-48 192.5v518q0 35 -5 42t-15 7h-70q-25 0 -25 29q82 66 147.5 134.5t94.5 113.5q6 8 15 8t22 -12q-4 -62 -4 -156q2 -6 14 -14h262q10 -4 12.5 -12.5t2.5 -45.5t-15 -45h-264q-10 -6 -12 -14
v-545q0 -92 38 -126.5t116 -34.5z" />
    <glyph glyph-name="u" unicode="u" horiz-adv-x="1138" 
d="M926 725v-580q0 -39 8 -54t27 -13l79 6q21 2 21 -27l-2 -20q-139 -19 -200 -40.5t-73 -21.5t-18 7l4 110q-4 4 -16 4q-78 -61 -146.5 -97t-149.5 -36q-147 0 -227 80q-63 68 -63 99v593q0 35 -4 48.5t-21 19.5l-49 18q-12 5 -12 17l2 24q101 10 159 30.5t70 20.5t19 -6
q-4 -106 -4 -182v-422q0 -47 7 -91t52 -91t131 -47q129 0 223 80q16 12 19.5 24t3.5 35v514q0 35 -7 50.5t-26 19.5l-98 22q-12 2 -12 17l2 26q23 2 62.5 5t92.5 13t88 21.5t45 11.5t17 -6q-4 -106 -4 -182z" />
    <glyph glyph-name="v" unicode="v" horiz-adv-x="935" 
d="M732 889q77 0 179 6q4 -13 4 -30t-12 -19q-36 -7 -61.5 -25t-83.5 -166l-205 -493q-26 -58 -66 -199q-14 -8 -37.5 -8t-39.5 8q-24 92 -66 199l-190 493q-41 104 -66 142.5t-57 44.5l-23 4q-12 2 -12 19t4 30l48 -1l343 1q4 -11 4 -29t-12 -20l-61 -10q-39 -6 -37 -39
t41 -135l170 -459h4l149 377q53 140 53 193q0 52 -63 67l-29 6q-12 2 -12 19t4 30q53 -6 130 -6z" />
    <glyph glyph-name="w" unicode="w" horiz-adv-x="1488" 
d="M1285 889q77 0 179 6q4 -13 4 -30t-12 -19q-35 -7 -47 -16t-29.5 -32.5t-68.5 -142.5l-207 -493q-26 -58 -66 -199q-14 -8 -36.5 -8t-38.5 8q-24 92 -66 199l-166 430h-6l-174 -430q-28 -65 -66 -199q-14 -8 -36.5 -8t-38.5 8q-24 92 -66 199l-190 493q-41 104 -66 142.5
t-57 44.5l-23 4q-12 2 -12 19t4 30l48 -1l343 1q4 -11 4 -29t-12 -20l-61 -10q-39 -6 -36 -39t40 -135l168 -459h4l151 377q30 80 34.5 107t-12.5 74q-26 71 -81 81l-29 4q-12 2 -12 19t4 30l47 -1l344 1q4 -11 4 -29t-12 -20l-62 -10q-39 -6 -35.5 -39t40.5 -135l168 -459
h4l151 377q53 123 53 184t-63 76l-29 6q-12 2 -12 19t4 30q53 -6 130 -6z" />
    <glyph glyph-name="x" unicode="x" horiz-adv-x="917" 
d="M724 889q91 0 153 6q4 -11 4 -29t-13 -20l-45 -8q-45 -9 -78.5 -33.5t-97.5 -120.5l-121 -178q-2 -6 -1 -10t1 -9l179 -247q70 -98 106.5 -142.5t67.5 -50.5l18 -4q12 -2 12 -19t-4 -30l-49 2l-328 -2q-4 12 -4 30t13 19l41 6q64 9 -33 146l-129 180h-4l-117 -180
q-45 -72 -45 -107t37 -39l41 -6q12 -2 12 -19t-4 -30q-98 6 -180 6t-144 -6q-4 12 -4 30t12 19l37 8q38 9 67 30.5t99 123.5l148 217q2 6 1 10t-1 8l-152 209q-72 100 -107.5 144.5t-66.5 48.5l-25 4q-12 2 -12 19t4 30l51 -1l332 1q4 -11 4 -29t-12 -20l-41 -6
q-64 -9 33 -146l102 -143h4l90 143q85 136 9 146l-41 6q-13 2 -13 19t5 30q98 -6 189 -6z" />
    <glyph glyph-name="y" unicode="y" horiz-adv-x="935" 
d="M743 889q76 0 181 6q4 -13 4 -30t-13 -19q-36 -7 -59.5 -24t-85.5 -167l-432 -1061q-31 -79 -59 -121t-79 -42q-50 0 -76 26.5t-26 66.5t21.5 67.5t62.5 27.5l44 -7q44 -7 69 60l131 314q-10 49 -61 174l-199 495q-41 102 -65.5 141.5t-57.5 45.5l-23 4q-12 2 -12 19
t4 30q12 0 37 -1t52.5 -2l55 -2t31.5 -1l215 6q15 -45 -8 -49l-61 -10q-39 -6 -36 -39t40 -135l170 -463h6l148 381q6 18 29.5 82t23.5 104q0 59 -64 74l-28 6q-23 4 -9 49q53 -6 129 -6z" />
    <glyph glyph-name="z" unicode="z" horiz-adv-x="878" 
d="M795 -4q-20 4 -49 4h-334l-353 -6q-4 14 2 29q16 23 47 67.5t56 85.5l407 647v4h-155q-165 0 -203.5 -17t-54 -44t-29.5 -70q-5 -12 -21 -12t-24 4q8 53 18.5 124t18.5 124q6 2 22 2q15 0 19 -10q11 -31 22 -33q30 -6 252 -6l355 6q6 -12 0 -27q-69 -99 -103 -155
l-409 -647v-5h202q155 0 211.5 33t108.5 139q7 19 24 15t21 -6q-7 -49 -19.5 -116t-17.5 -116q-2 -6 -14 -14z" />
    <glyph glyph-name="braceleft" unicode="{" horiz-adv-x="692" 
d="M403 340q0 -68 -27.5 -175.5t-27.5 -172.5q0 -127 66.5 -182.5t187.5 -63.5q4 -17 4 -36t-18 -19q-147 0 -239.5 84t-92.5 217q0 64 33 177.5t33 172.5q0 111 -68 156t-168 45q-2 10 -2 26.5t2 26.5q100 0 168 45t68 156q0 59 -33 172.5t-33 178.5q0 132 92.5 216
t239.5 84q18 0 18 -20t-4 -35q-121 -8 -187.5 -63.5t-66.5 -182.5q0 -65 27.5 -172.5t27.5 -184.5t-48 -133.5t-126 -85.5v-4q174 -65 174 -227z" />
    <glyph glyph-name="bar" unicode="|" horiz-adv-x="512" 
d="M257 -557q-24 0 -46 4v2048q20 4 44 4t46 -4v-2048q-20 -4 -44 -4z" />
    <glyph glyph-name="braceright" unicode="}" horiz-adv-x="692" 
d="M86 1428q0 20 18 20q147 0 239.5 -84t92.5 -217q0 -64 -32.5 -176t-32.5 -174q0 -111 67.5 -156t167.5 -45q2 -10 2 -26.5t-2 -26.5q-100 0 -167.5 -45t-67.5 -156q0 -62 32.5 -174t32.5 -177q0 -132 -92 -216t-240 -84q-18 0 -18 19t4 36q121 8 187.5 63.5t66.5 182.5
q0 71 -27.5 174t-27.5 181q0 79 48 135.5t126 84.5v4q-78 29 -126 85.5t-48 135.5t27.5 181.5t27.5 173.5q0 127 -66.5 182t-187.5 64q-4 15 -4 35z" />
    <glyph glyph-name="asciitilde" unicode="~" 
d="M272 496q-70 0 -122 -39t-101 -95v84q100 119 238 119q59 0 115.5 -21.5t112.5 -47t111.5 -47t125.5 -21.5t122 39t101 94v-84q-100 -119 -238 -119q-79 0 -181.5 47.5t-158 69t-125.5 21.5z" />
    <glyph glyph-name="nonbreakingspace" unicode="&#xa0;" horiz-adv-x="512" 
 />
    <glyph glyph-name="exclamdown" unicode="&#xa1;" horiz-adv-x="593" 
d="M297 -496q-104 0 -104 120q0 196 33.5 484.5t45.5 401.5q27 10 50 0q12 -113 26 -238t33.5 -329.5t19.5 -321.5t-104 -117zM408 815q0 -47 -29 -78.5t-76 -31.5t-76.5 30.5t-29.5 77.5t28.5 80t75.5 33t77 -32t30 -79z" />
    <glyph glyph-name="cent" unicode="&#xa2;" 
d="M348 240q0 -2 4 2l269 620q0 4 1 5t-4 5q-52 13 -106 13t-160 -56t-106 -296q0 -156 98 -291q4 0 4 -2zM594 963q34 0 57 -5l13 9l84 196q6 8 12 8t24.5 -8t24.5 -13t4 -15l-76 -179q0 -8 4 -12q129 -34 129 -98q0 -31 -25.5 -62.5t-59.5 -31.5t-50 25.5t-43 53.5
q-4 0 -5 1.5t-5 -3.5l-276 -643q0 -10 2 -12q97 -80 217 -80q68 0 130 34t101 91q37 -6 40 -27.5t-15 -46.5q-63 -86 -158 -134t-197 -48t-188 41q-4 0 -5 1t-5 -3l-84 -197q-6 -8 -12.5 -8t-25 8.5t-24.5 13.5t-4 15l86 203q0 4 1 7t-3 7q-88 66 -136 166t-48 267.5
t146 323t370 155.5z" />
    <glyph glyph-name="sterling" unicode="&#xa3;" 
d="M51 -20q-51 0 -51 59q0 93 236 180q108 169 120 567q-2 6 -14 15h-201q-14 4 -14 7v38q0 35 14 39h213q15 4 15 21.5t6 74.5t36.5 166.5t122.5 257t326 147.5q60 0 98.5 -23.5t56 -46t17.5 -53t-28.5 -54t-56.5 -23.5t-43 21.5t-29.5 46t-36 46t-69.5 21.5t-87 -34
t-63.5 -87t-38 -119.5t-20.5 -132t-9 -123t-4 -92.5q2 -6 14 -14h289q14 -4 14 -7v-38q0 -35 -14 -39h-299q-10 -4 -12 -15q-15 -276 -232 -553l2 -2q116 44 188 0.5t122.5 -81t99.5 -68.5t93 -31t69.5 22.5t25.5 53.5t-11 46t-35.5 39.5t-24.5 51.5t29.5 53.5t66.5 26.5
t60.5 -40t23.5 -87t-26.5 -95t-94.5 -103.5t-176 -55.5q-72 0 -130.5 33t-108.5 71.5t-96 71.5t-76 33t-38 -2q-122 -190 -219 -190z" />
    <glyph glyph-name="currency" unicode="&#xa4;" 
d="M920 1065q-18 0 -21 12q-50 168 -233 168q-123 0 -202 -101.5t-108 -266.5q2 -8 11 -13h456q10 -4 12.5 -10t2.5 -28.5t-2 -28.5t-13 -11h-467q-14 -6 -14 -14v-78q0 -82 6 -135q2 -8 12 -12h463q10 -4 12.5 -9.5t2.5 -28t-2 -29.5t-13 -11h-454q-2 -2 -7 -12
q51 -293 151.5 -362.5t188.5 -69.5q179 0 236 239q2 12 20 12t31 -4q-24 -139 -33 -223q-4 -4 -11 -18t-100 -41t-189 -27t-255 78t-227 416q-4 10 -10 12h-121q-10 4 -12 11t-2 29.5t2 28t12 9.5h111q6 2 8 10q-4 41 -4 95t10 124q-2 8 -8 10h-117q-10 4 -12 10.5t-2 29
t2 28.5t12 10h131q8 4 12 13q78 299 230.5 363.5t266.5 64.5t230 -33q12 -8 15 -17q3 -53 22 -184q-12 -6 -30 -6z" />
    <glyph glyph-name="yen" unicode="&#xa5;" 
d="M1036 1242q0 -20 -10 -21l-31 -2q-52 -4 -76 -32t-46.5 -67t-59.5 -102l-154 -266l9 -13h266q10 -4 12 -10t2 -28.5t-2 -28.5t-12 -10h-305q-11 -8 -21 -25t-10 -76v-127q2 -8 12 -12h324q10 -4 12 -9t2 -28t-2 -30t-12 -11h-324q-8 -4 -12 -14v-80q0 -120 6 -146
t16.5 -34.5t28.5 -12.5l70 -12q10 -2 10 -14v-17q0 -16 -2 -20q-159 6 -216 6t-216 -6q-4 12 -4 30t12 21l70 12q36 8 43.5 40.5t7.5 152.5v80q-4 10 -12 14h-324q-10 4 -12 11t-2 30t2 28t12 9h324q10 4 12 12v127q0 78 -33 101h-303q-10 4 -12 10t-2 28.5t2 28.5t12 10
h250q6 4 8 13l-151 266q-33 57 -53.5 93t-42.5 63.5t-54 35.5l-47 11q-10 2 -10 15v17q0 17 2 21q159 -6 199.5 -6t199.5 6q4 -12 4 -32t-12 -21l-33 -4q-33 -7 -33 -34q0 -28 76 -165l164 -295h2l154 278q65 123 65 183q0 16 -9 25.5t-19 9.5l-50 2q-12 1 -12 21t4 32
l187 -6l155 6q4 -12 4 -32z" />
    <glyph glyph-name="brokenbar" unicode="&#xa6;" horiz-adv-x="512" 
d="M221 0v563h70v-563h-70zM221 825v564h70v-564h-70z" />
    <glyph glyph-name="section" unicode="&#xa7;" horiz-adv-x="942" 
d="M754 20q0 178 -87 313.5t-146.5 213.5t-143 216.5t-76.5 336.5h-4q-59 -66 -70.5 -139.5t-11.5 -102.5q0 -177 86 -312.5t230 -324.5t131 -442h4q57 57 72.5 134.5t15.5 106.5zM691.5 -283.5q-142.5 -142.5 -337.5 -142.5q-132 0 -182.5 41t-50.5 72t20.5 60.5t49 29.5
t53 -21.5t52.5 -47t61 -47t93 -21.5t102 52t42 121t-34 139.5t-84 144t-192.5 266t-142.5 458.5q0 191 128.5 337.5t316.5 146.5q66 0 117 -19.5t75.5 -42t24.5 -53.5t-21.5 -54.5t-49.5 -23.5t-51.5 19.5t-69.5 63.5t-108 44q-63 0 -100.5 -52t-37.5 -122t34.5 -142.5
t87 -147.5t112.5 -154.5t147.5 -226t87.5 -341.5q0 -194 -142.5 -336.5z" />
    <glyph glyph-name="dieresis" unicode="&#xa8;" 
d="M444 1321q0 -41 -24.5 -66.5t-64.5 -25.5t-65.5 24.5t-25.5 65.5t24.5 67.5t64.5 26.5t65.5 -25.5t25.5 -66.5zM760 1321q0 -41 -24.5 -66.5t-64.5 -25.5t-65.5 24.5t-25.5 65.5t24.5 67.5t64.5 26.5t65.5 -25.5t25.5 -66.5z" />
    <glyph glyph-name="copyright" unicode="&#xa9;" horiz-adv-x="1566" 
d="M824 264q-84 0 -170.5 31t-191 120.5t-104.5 283.5t135.5 310.5t313.5 116.5t295 -49q8 -4 10 -8q2 -35 8 -91t10 -95q-12 -4 -25 -4t-15 10q-27 102 -95.5 139t-152.5 37q-154 0 -238 -93t-84 -255t96.5 -277.5t257.5 -115.5q100 0 149.5 48t76.5 142q2 10 18 10t23 -4
l-23 -194q-14 -27 -112 -44.5t-182 -17.5zM1421 694q0 135 -51 256t-138 210t-205 141.5t-253 52.5t-250.5 -52.5t-199.5 -141.5t-131.5 -209t-47.5 -255t51.5 -256t138.5 -211t204.5 -142t253 -52t251 52t199.5 141t131 210t47 256zM1503 695q0 -151 -53 -283.5
t-148.5 -233t-225.5 -158t-282 -57.5t-285.5 58.5t-232 158t-156 234t-57.5 284.5t53.5 282t148.5 231.5t226 156.5t283 57t285 -57t231.5 -157.5t155.5 -232.5t57 -283z" />
    <glyph glyph-name="ordfeminine" unicode="&#xaa;" horiz-adv-x="669" 
d="M209 598q0 -43 23.5 -70.5t55.5 -27.5t75 14.5t43 63.5v163q-23 -8 -54.5 -18.5t-65.5 -26.5t-55.5 -35.5t-21.5 -62.5zM644 518q11 0 11 -11v-12q0 -12 -2 -16q-86 -57 -134 -57t-68.5 20.5t-34.5 53.5q-4 2 -8 2q-98 -82 -178 -82t-122 43t-42 107t31.5 95t94.5 56
t205 71q6 6 9 11v104q0 61 -36 90t-77 29q-94 0 -94 -76v-13q0 -13 2 -22l-6 -12q-47 -35 -82 -35q-25 0 -25 34t15.5 59.5t61.5 58.5q117 84 196 84t131.5 -39t52.5 -123v-334q0 -71 13.5 -86.5t31.5 -15.5t30.5 8t23.5 8z" />
    <glyph glyph-name="guillemotleft" unicode="&#xab;" horiz-adv-x="841" 
d="M455 190q0 -16 -11.5 -22t-23.5 -2q-207 174 -361 346q-2 6 0 16q172 193 361 346q12 4 23.5 -2t11.5 -22q-60 -90 -100 -147.5t-69.5 -101.5t-52.5 -73q-2 -6 -1 -9t1 -7q23 -29 52.5 -73t88.5 -129t81 -120zM784 190q0 -16 -11 -22t-23 -2q-207 174 -361 346q-2 6 0 16
q172 193 361 346q12 4 23 -2t11 -22q-18 -27 -46.5 -70t-60.5 -89t-61.5 -90t-52.5 -73q-2 -6 -1 -9t1 -7q23 -29 52.5 -73t84 -122.5t84.5 -126.5z" />
    <glyph glyph-name="logicalnot" unicode="&#xac;" 
d="M905 -61v491h-856v70h926v-561h-70z" />
    <glyph glyph-name="registered" unicode="&#xae;" horiz-adv-x="1566" 
d="M913 886q0 85 -51.5 127t-111.5 42t-78 -6q-13 -26 -13 -117v-207q2 -4 1 -5t4 -3h81q76 0 122 42t46 127zM1065 899q0 -72 -46 -124t-112 -79q-5 -10 55 -97t107 -146.5t77 -90t64 -34.5l23 -2q10 -1 10 -20t-2 -25q-54 6 -106 6h-47q-46 0 -70 -4q-87 87 -252 368
q-4 4 -4 5t-4 3h-94q-4 -2 -3 -3t-2 -5v-170q0 -86 5.5 -115.5t33.5 -33.5l52 -8q12 -2 12 -20t-2 -23q-94 4 -172 4t-172 -4q-4 12 -4 26t10 17l51 8q29 4 35 33.5t6 115.5v428q0 86 -6 116t-35 34l-51 8q-10 2 -10 16t4 27q94 -4 155 -4l215 8q125 0 202 -54t77 -161z
M1421 694q0 135 -51 256t-138 210t-205 141.5t-253 52.5t-250.5 -52.5t-199.5 -141.5t-131.5 -209t-47.5 -255t51.5 -256t138.5 -211t204.5 -142t253 -52t251 52t199.5 141t131 210t47 256zM1503 695q0 -151 -53 -283.5t-148.5 -233t-225.5 -158t-282 -57.5t-285.5 58.5
t-232 158t-156 234t-57.5 284.5t53.5 282t148.5 231.5t226 156.5t283 57t285 -57t231.5 -157.5t155.5 -232.5t57 -283z" />
    <glyph glyph-name="macron" unicode="&#xaf;" 
d="M750 1352q0 -80 -29 -90h-434q-13 4 -13 16q-1 29 6.5 61.5t22.5 36.5h434q13 -4 13 -24z" />
    <glyph glyph-name="degree" unicode="&#xb0;" horiz-adv-x="720" 
d="M537 1020q0 41 -12.5 79t-35 67.5t-55.5 48t-74 18.5t-73.5 -18.5t-56 -48t-36 -67.5t-12.5 -79t12.5 -79t35 -67.5t55 -48t73.5 -18.5t74 18.5t56.5 48t36 67.5t12.5 79zM555.5 816.5q-83.5 -81.5 -196.5 -81.5t-195 82t-82 202.5t80.5 203t196.5 82.5t198 -82
t82 -203.5t-83.5 -203z" />
    <glyph glyph-name="plusminus" unicode="&#xb1;" 
d="M49 0v70h926v-70h-926zM547 510v-346h-70v346h-428v70h428v346h70v-346h428v-70h-428z" />
    <glyph glyph-name="twosuperior" unicode="&#xb2;" horiz-adv-x="700" 
d="M426 1026q0 76 -46 125t-130 49t-160 -90q-25 12 -27 22.5t11 26.5q114 146 264 146q100 0 167.5 -65.5t67.5 -151.5t-40.5 -162t-98 -147.5t-120 -134t-105.5 -107.5v-2h280q66 0 89.5 9t37.5 38q8 14 18 12t13.5 -2t7.5 -2q-6 -29 -17 -80t-17 -86q-2 -4 -11 -8l-116 1
q-117 1 -147 1l-298 -4q-11 17 -6 41q154 137 268.5 280t114.5 291z" />
    <glyph glyph-name="threesuperior" unicode="&#xb3;" horiz-adv-x="700" 
d="M539 1130q0 -128 -172 -210v-5q98 8 162.5 -54.5t64.5 -147.5q0 -154 -118 -256.5t-271 -102.5q-103 0 -140.5 28t-37.5 48t16.5 45t36.5 25t35.5 -13.5t51.5 -42t78 -28.5q85 0 145.5 60.5t60.5 155.5t-40 150.5t-124 55.5q-35 0 -59 -7.5t-42 -7.5t-20 17q-4 12 -4 20
q152 35 196.5 108.5t44.5 124.5t-30.5 85t-96.5 34t-120 -69q-30 10 -29 20.5t25 44.5t77 65.5t125 31.5t128.5 -45.5t56.5 -129.5z" />
    <glyph glyph-name="acute" unicode="&#xb4;" 
d="M667 1474q19 -17 19 -47t-41 -79q-59 -82 -135 -170t-135 -160q-12 -4 -23.5 1t-13.5 21q16 31 40.5 76t50.5 93t49.5 93.5t49.5 91.5t44 71.5t47 25.5t48 -17z" />
    <glyph glyph-name="mu" unicode="&#xb5;" horiz-adv-x="1118" 
d="M905 725v-580q0 -39 8.5 -54t26.5 -13l80 6q20 2 20 -27l-2 -20q-136 -19 -198 -40.5t-74 -21.5t-18 7l4 110q-4 4 -17 4q-78 -61 -146.5 -97t-172.5 -36t-174 57q-6 0 -13 -10q0 -148 33 -249t47.5 -146t14.5 -84q0 -100 -63.5 -100t-87 25.5t-23.5 74.5v1204
q0 35 -4.5 48.5t-20.5 19.5l-49 18q-13 5 -13 17l3 24q98 10 157.5 30.5t71.5 20.5t18 -6q-4 -106 -4 -182v-422q0 -47 7.5 -91t51.5 -91t132 -47q86 0 137 26t77 46t28.5 32t2.5 35v514q0 63 -32 70l-99 22q-12 2 -12 17l2 26q23 2 63 5t93 13t88 21.5t45 11.5t16 -6
q-4 -106 -4 -182z" />
    <glyph glyph-name="paragraph" unicode="&#xb6;" horiz-adv-x="1159" 
d="M543 -224q0 68 -80 68q-39 0 -63.5 -35t-24.5 -93t41 -102t139 -44t147.5 111t49.5 258v315q0 135 -15 190q-53 -6 -160 -6q-108 0 -208.5 42t-203 148.5t-102.5 309.5t137 334t373 131l371 -14h150q14 -4 14 -7v-38q0 -35 -14 -39h-246q-10 -4 -12 -15v-1290
q0 -336 -109 -418t-203 -82t-157.5 63.5t-63.5 146.5t46.5 142.5t116.5 59.5t108 -36t38 -80t-19.5 -78.5t-46.5 -34.5t-35.5 13t-12.5 30q45 16 45 50z" />
    <glyph glyph-name="periodcentered" unicode="&#xb7;" horiz-adv-x="512" 
d="M381 575.5q0 -53.5 -34 -89t-88 -35.5t-90 34.5t-36 88t34 89t88 35.5t90 -34.5t36 -88z" />
    <glyph glyph-name="cedilla" unicode="&#xb8;" 
d="M545 -125q0 -20 14 -40.5t45 -64.5t31 -91q0 -85 -70 -166.5t-143 -81.5q-72 0 -72 39q0 16 12.5 34.5t31.5 18.5t38.5 -8.5t43.5 -8.5t40 21.5t16 51.5t-17 60.5t-38.5 58.5t-40 53t-18.5 55q0 61 203 227l30 -35q-106 -88 -106 -123z" />
    <glyph glyph-name="onesuperior" unicode="&#xb9;" horiz-adv-x="499" 
d="M469 438q0 -18 -2 -24q-90 4 -204 4t-200 -4q-4 12 -4 26t13 15l88 8q29 4 34 34.5t5 108.5v516q0 51 -33 35l-123 -55q-9 9 -12.5 24t2.5 19l164 88q49 27 85 49.5t48 22.5t16 -5l-1 -34l-3 -660q0 -78 5 -108.5t34 -34.5l78 -8q10 1 10 -17z" />
    <glyph glyph-name="ordmasculine" unicode="&#xba;" horiz-adv-x="784" 
d="M584 759q0 112 -52.5 204t-144.5 92q-184 0 -184 -291q0 -112 51 -205.5t145 -93.5q145 0 165 123t20 171zM648 515q-95 -99 -248 -99q-154 0 -255.5 94t-101.5 247t94 251t250 98t256 -96t100 -246t-95 -249z" />
    <glyph glyph-name="guillemotright" unicode="&#xbb;" horiz-adv-x="841" 
d="M279 528l-222 322q0 16 11.5 22.5t23.5 1.5q170 -143 249 -226t112 -120q2 -6 0 -16q-154 -172 -361 -346q-12 -4 -23.5 2t-11.5 22q22 35 81 120t89.5 129t51.5 73q2 6 1 9t-1 7zM608 528l-221 322q0 16 11.5 22.5t23.5 1.5q221 -185 360 -346q2 -6 0 -16
q-157 -176 -360 -346q-12 -4 -23.5 2t-11.5 22q18 29 47 71t60.5 88t62.5 90t51 73q2 6 1 9t-1 7z" />
    <glyph glyph-name="onequarter" unicode="&#xbc;" horiz-adv-x="1527" 
d="M1241 684h-4l-270 -373v-4h268q2 2 6 8v369zM565 438q0 -18 -2 -24q-90 4 -203.5 4t-199.5 -4q-4 12 -4 26t12 15l88 8q29 4 34 34.5t5 108.5v516q0 51 -33 35l-123 -55q-9 9 -12.5 24t2.5 19l164 88q49 27 85 49.5t48 22.5t16 -5l-1 -34l-3 -660q0 -78 5.5 -108.5
t33.5 -34.5l78 -8q10 1 10 -17zM424 -49q-41 15 -59 39l862 1327q39 -14 59 -39zM1497 258q0 -44 -10 -49h-101q-4 -2 -8 -10v-242q-5 -10 -68.5 -10t-68.5 10v242q-4 10 -6 10h-227q-74 0 -168 -4q-7 29 0 43q50 50 131 164l225 309q39 53 74 100t57 80q18 9 55 0
q-4 -82 -4 -168v-418q2 -6 8 -8h101q10 -5 10 -49z" />
    <glyph glyph-name="onehalf" unicode="&#xbd;" horiz-adv-x="1652" 
d="M565 438q0 -18 -2 -24q-90 4 -203.5 4t-199.5 -4q-4 12 -4 26t12 15l88 8q29 4 34 34.5t5 108.5v516q0 51 -33 35l-123 -55q-9 9 -12.5 24t2.5 19l164 88q49 27 85 49.5t48 22.5t16 -5l-1 -34l-3 -660q0 -78 5.5 -108.5t33.5 -34.5l78 -8q10 1 10 -17zM424 -49
q-41 15 -59 39l862 1327q39 -14 59 -39zM1378 608q0 76 -46 125t-130 49t-160 -90q-25 13 -26.5 23t10.5 26q114 146 264 146q100 0 168 -65.5t68 -151.5t-41 -162t-98.5 -147.5t-120 -134t-105.5 -107.5v-2h281q66 0 89 8.5t35 30.5t21 20q10 -2 13.5 -2t7.5 -2
q-6 -29 -17.5 -80t-17.5 -86q-2 -4 -10 -8l-117 1q-117 1 -147 1l-298 -4q-12 18 -6 41q159 141 271 282.5t112 288.5z" />
    <glyph glyph-name="threequarters" unicode="&#xbe;" horiz-adv-x="1527" 
d="M1241 684h-4l-270 -373v-4h268q2 2 6 8v369zM539 1130q0 -128 -172 -210v-5q98 8 162.5 -54.5t64.5 -147.5q0 -154 -118 -256.5t-271 -102.5q-103 0 -140.5 28t-37.5 48t16.5 45t36.5 25t35.5 -13.5t51.5 -42t78 -28.5q85 0 145.5 60.5t60.5 155.5t-40 150.5t-124 55.5
q-35 0 -59 -7.5t-42 -7.5t-20 17q-4 12 -4 20q152 35 196.5 108.5t44.5 124.5t-30.5 85t-96.5 34t-120 -69q-30 10 -29 20.5t25 44.5t77 65.5t125 31.5t128.5 -45.5t56.5 -129.5zM424 -49q-41 15 -59 39l862 1327q39 -14 59 -39zM1497 258q0 -44 -10 -49h-101q-4 -2 -8 -10
v-242q-5 -10 -68.5 -10t-68.5 10v242q-4 10 -6 10h-227q-74 0 -168 -4q-7 29 0 43q50 50 131 164l225 309q39 53 74 100t57 80q18 9 55 0q-4 -82 -4 -168v-418q2 -6 8 -8h101q10 -5 10 -49z" />
    <glyph glyph-name="questiondown" unicode="&#xbf;" horiz-adv-x="593" 
d="M494 -411q0 -85 -80 -85q-133 0 -233.5 117t-100.5 332q0 301 221 342q45 8 67.5 20.5t25.5 51.5t3 72t1 53t34 20q8 0 12 -2q19 -135 19 -233q0 -97 -28.5 -120.5t-114.5 -36.5t-131.5 -68.5t-45.5 -121.5q0 -121 54.5 -189.5t164.5 -68.5l58 2q74 0 74 -85zM514 815
q0 -47 -28.5 -78.5t-74.5 -31.5t-77 30.5t-31 77.5t28.5 80t74.5 33t77 -32t31 -79z" />
    <glyph glyph-name="Agrave" unicode="&#xc0;" horiz-adv-x="1394" 
d="M276.5 1772.5q22.5 31.5 49.5 38.5t51 -14t58 -59t61.5 -69t58.5 -64.5t59.5 -66.5t53.5 -59q4 -16 -7.5 -24.5t-23.5 -6.5q-297 207 -340 250t-20.5 74.5zM621 1180h-5l-186 -566q2 -6 12 -12h377q10 6 12 12zM214 0q-20 0 -200 -6q-4 12 -4 30.5t13 20.5l47 12
q43 11 77.5 55t71.5 158l326 947q16 43 16 58t-4 32q8 20 28.5 29.5t47.5 33.5t40 42t27 18t21 -5q19 -79 100 -280l346 -875q52 -123 79.5 -162t72.5 -51l51 -12q14 -2 14 -20.5t-4 -30.5q-177 6 -237 6t-240 -6q-4 12 -4 30.5t14 20.5l50 8q55 9 55 44q0 36 -55 173
l-84 226q-6 10 -15 12h-458q-8 -2 -15 -12l-76 -226q-26 -81 -26 -120t14 -65t55 -32l52 -8q12 -2 12 -20.5t-4 -30.5q-184 6 -204 6z" />
    <glyph glyph-name="Aacute" unicode="&#xc1;" horiz-adv-x="1394" 
d="M621 1180h-5l-186 -566q2 -6 12 -12h377q10 6 12 12zM214 0q-20 0 -200 -6q-4 12 -4 30.5t13 20.5l47 12q43 11 77.5 55t71.5 158l326 947q16 43 16 58t-4 32q8 20 28.5 29.5t47.5 33.5t40 42t27 18t21 -5q19 -79 100 -280l346 -875q52 -123 79.5 -162t72.5 -51l51 -12
q14 -2 14 -20.5t-4 -30.5q-177 6 -237 6t-240 -6q-4 12 -4 30.5t14 20.5l50 8q55 9 55 44q0 36 -55 173l-84 226q-6 10 -15 12h-458q-8 -2 -15 -12l-76 -226q-26 -81 -26 -120t14 -65t55 -32l52 -8q12 -2 12 -20.5t-4 -30.5q-184 6 -204 6zM999 1782q15 -22 10 -44
t-36 -52.5t-328 -237.5q-12 -2 -23.5 6t-7.5 25q25 27 53.5 59.5t68.5 76t93 101.5q52 59 76.5 81.5t51.5 14.5t42 -30z" />
    <glyph glyph-name="Acircumflex" unicode="&#xc2;" horiz-adv-x="1394" 
d="M621 1180h-5l-186 -566q2 -6 12 -12h377q10 6 12 12zM214 0q-20 0 -200 -6q-4 12 -4 30.5t13 20.5l47 12q43 11 77.5 55t71.5 158l326 947q16 43 16 58t-4 32q8 20 28.5 29.5t47.5 33.5t40 42t27 18t21 -5q19 -79 100 -280l346 -875q52 -123 79.5 -162t72.5 -51l51 -12
q14 -2 14 -20.5t-4 -30.5q-177 6 -237 6t-240 -6q-4 12 -4 30.5t14 20.5l50 8q55 9 55 44q0 36 -55 173l-84 226q-6 10 -15 12h-458q-8 -2 -15 -12l-76 -226q-26 -81 -26 -120t14 -65t55 -32l52 -8q12 -2 12 -20.5t-4 -30.5q-184 6 -204 6zM671.5 1812q20.5 0 35 -17
t49.5 -55t62.5 -70t58 -65.5t59 -66t53.5 -59.5q4 -16 -7 -24.5t-24 -6.5q-94 69 -276 207q-10 6 -23 0q-70 -53 -136 -103.5t-138 -103.5q-12 -2 -23.5 6t-7.5 25q25 27 53.5 59.5t78 86t89.5 101.5q45 49 60.5 67.5t36 18.5z" />
    <glyph glyph-name="Atilde" unicode="&#xc3;" horiz-adv-x="1394" 
d="M905 1702q-1 46 53 47q24 0 37 -24.5t13 -51.5q0 -74 -51 -124t-119 -50t-119 24.5t-96 55.5t-81 55.5t-66 24.5t-49 -15.5t-19 -41.5t16 -38t16 -33t-14 -33.5t-33 -12.5q-55 0 -55 75t51 125t119 50t119 -24.5t96 -55.5t81 -55.5t66 -24.5t49 15.5t19 41.5t-16.5 37
t-16.5 33zM621 1180h-5l-186 -566q2 -6 12 -12h377q10 6 12 12zM214 0q-20 0 -200 -6q-4 12 -4 30.5t13 20.5l47 12q43 11 77.5 55t71.5 158l326 947q16 43 16 58t-4 32q8 20 28.5 29.5t47.5 33.5t40 42t27 18t21 -5q19 -79 100 -280l346 -875q52 -123 79.5 -162t72.5 -51
l51 -12q14 -2 14 -20.5t-4 -30.5q-177 6 -237 6t-240 -6q-4 12 -4 30.5t12 20.5l52 8q55 9 55 44q0 36 -55 173l-84 226q-6 10 -15 12h-458q-8 -2 -15 -12l-76 -226q-26 -81 -26 -120t14 -65t55 -32l52 -8q12 -2 12 -20.5t-4 -30.5q-184 6 -204 6z" />
    <glyph glyph-name="Adieresis" unicode="&#xc4;" horiz-adv-x="1394" 
d="M637 1593q0 -41 -24.5 -66.5t-64.5 -25.5t-65.5 24.5t-25.5 65.5t24.5 68t64.5 27t65.5 -26t25.5 -67zM952 1593q0 -41 -24.5 -66.5t-64.5 -25.5t-65.5 24.5t-25.5 65.5t24.5 68t64.5 27t65.5 -26t25.5 -67zM621 1180h-5l-186 -566q2 -6 12 -12h377q10 6 12 12zM214 0
q-20 0 -200 -6q-4 12 -4 30.5t13 20.5l47 12q43 11 77.5 55t71.5 158l326 947q16 43 16 58t-4 32q8 20 28.5 29.5t47.5 33.5t40 42t27 18t21 -5q19 -79 100 -280l346 -875q52 -123 79.5 -162t72.5 -51l51 -12q14 -2 14 -20.5t-4 -30.5q-177 6 -237 6t-240 -6q-4 12 -4 30.5
t12 20.5l52 8q55 9 55 44q0 36 -55 173l-84 226q-6 10 -15 12h-458q-8 -2 -15 -12l-76 -226q-26 -81 -26 -120t14 -65t55 -32l52 -8q12 -2 12 -20.5t-4 -30.5q-184 6 -204 6z" />
    <glyph glyph-name="Aring" unicode="&#xc5;" horiz-adv-x="1394" 
d="M592.5 1558.5q29.5 -53.5 87.5 -53.5q57 0 80.5 48t23.5 108.5t-29 113t-86 52.5t-81.5 -46.5t-24.5 -107.5t29.5 -114.5zM885 1670q0 -91 -55.5 -151.5t-150.5 -60.5t-155.5 57.5t-60.5 148.5t54.5 150.5t150.5 59.5t156.5 -56.5t60.5 -147.5zM621 1180h-5l-186 -566
q2 -6 12 -12h377q10 6 12 12zM214 0q-20 0 -200 -6q-4 12 -4 30.5t13 20.5l47 12q43 11 77.5 55t71.5 158l326 947q16 43 16 58t-4 32q8 20 28.5 29.5t47.5 33.5t40 42t27 18t21 -5q19 -79 100 -280l346 -875q52 -123 79.5 -162t72.5 -51l51 -12q14 -2 14 -20.5t-4 -30.5
q-177 6 -237 6t-240 -6q-4 12 -4 30.5t12 20.5l52 8q55 9 55 44q0 36 -55 173l-84 226q-6 10 -15 12h-458q-8 -2 -15 -12l-76 -226q-26 -81 -26 -120t14 -65t55 -32l52 -8q12 -2 12 -20.5t-4 -30.5q-184 6 -204 6z" />
    <glyph glyph-name="AE" unicode="&#xc6;" horiz-adv-x="1804" 
d="M850 1257h-4l-283 -526q4 -10 12 -16h263q10 6 12 14v528zM1503 683q0 -10 6 -175q-12 -4 -29 -4t-20 12l-8 53q-6 39 -47 55.5t-162 16.5h-192q-10 -6 -13 -14v-310q0 -145 29.5 -194t112.5 -49h159q154 0 204 20.5t73.5 45t46.5 63.5l31 53q8 12 26 10t31 -10
q-32 -81 -61 -246q-2 -8 -17 -14q-16 4 -37 4h-698q-100 0 -229 -6q-4 12 -4 30.5t12 20.5l74 12q41 8 50 45t9 174v351q-2 8 -12 14h-312q-12 -4 -16 -8l-193 -359q-106 -204 9 -221l53 -8q12 -2 12 -20.5t-4 -30.5q-183 6 -192 6t-189 -6q-4 12 -4 30t12 21l37 12
q36 9 62.5 46t99.5 167l469 844q47 86 52 126t-7 64.5t-53 30.5l-53 8q-12 2 -12.5 20.5t3.5 31.5q183 -6 357 -6h289q288 0 309 4q14 -7 17 -21t7 -44t10.5 -61.5t12.5 -62t12 -53.5q-8 -4 -29 -7q-20 -3 -26 9l-19 45q-27 68 -88.5 92.5t-212.5 24.5h-188
q-25 -30 -25 -191v-395q2 -8 13 -14h192q121 0 163 16.5t46 54.5l8 62q2 14 20 14t29 -4q-6 -165 -6 -175z" />
    <glyph glyph-name="Ccedilla" unicode="&#xc7;" horiz-adv-x="1458" 
d="M1330 1067q-14 0 -18.5 1t-8.5 11q-35 151 -166.5 214t-272.5 63q-271 0 -427 -164.5t-156 -450.5t173.5 -497t477.5 -211t387 303q8 20 29.5 14t25.5 -8l-8 -50q-8 -50 -12 -90t-8.5 -76t-4.5 -54q-8 -12 -14 -17q-185 -84 -422 -92q-65 -65 -65 -87t14 -42t45 -64
t31 -91q0 -86 -71 -167t-143 -81q-71 0 -71 39q0 16 12.5 34.5t31.5 18.5t37.5 -8.5t43.5 -8.5t41 21.5t16 51.5t-17 60.5t-38.5 58.5t-40 52.5t-18.5 46.5q0 60 121 168q-154 6 -294.5 59.5t-246 148.5t-168 229t-62.5 300t65 301.5t230 278.5t494 143q106 0 233 -21.5
t228 -62.5q4 -4 9 -8t7 -8q0 -83 27 -252q-12 -6 -26 -6z" />
    <glyph glyph-name="Egrave" unicode="&#xc8;" horiz-adv-x="1191" 
d="M891 713q0 -19 6 -187q-11 -4 -29 -4t-20 13l-8 73q-4 41 -46 57.5t-163 16.5h-193q-10 -6 -12 -14v-351q0 -148 29.5 -195.5t111.5 -47.5h160q161 0 207.5 17.5t70 42t44.5 63.5l32 59q8 12 27 10t31 -10q-34 -85 -62 -246q-2 -8 -16 -14q-16 4 -37 4h-700
q-99 0 -228 -6q-4 12 -4 30.5t12 20.5l74 12q41 8 50.5 45t9.5 174v836q0 137 -7.5 166t-19.5 39t-33 14l-74 12q-12 2 -12 20.5t4 31.5q55 -6 274 -6h281q281 0 301 4q16 -8 19 -15q4 -20 12 -79t31 -148q-44 -22 -56 2l-18 47q-27 72 -87 93.5t-214 21.5h-188
q-25 -30 -25 -191v-354q2 -8 12 -14h193q121 0 163 16t46 55l8 62q2 12 19 12t30 -4q-6 -165 -6 -184zM623 1479q4 -16 -7.5 -24.5t-23.5 -6.5q-293 204 -326 236t-38 54t10.5 44t41.5 29t51 -14t59 -59t61.5 -69t58.5 -64.5t59.5 -66t53.5 -59.5z" />
    <glyph glyph-name="Eacute" unicode="&#xc9;" horiz-adv-x="1191" 
d="M891 713q0 -19 6 -187q-11 -4 -29 -4t-20 13l-8 73q-4 41 -46 57.5t-163 16.5h-193q-10 -6 -12 -14v-351q0 -148 29.5 -195.5t111.5 -47.5h160q161 0 207.5 17.5t70 42t44.5 63.5l32 59q8 12 27 10t31 -10q-34 -85 -62 -246q-2 -8 -16 -14q-16 4 -37 4h-700
q-99 0 -228 -6q-4 12 -4 30.5t12 20.5l74 12q41 8 50.5 45t9.5 174v836q0 137 -7.5 166t-19.5 39t-33 14l-74 12q-12 2 -12 20.5t4 31.5q55 -6 274 -6h281q281 0 301 4q16 -8 19 -15q4 -20 12 -79t31 -148q-44 -22 -56 2l-18 47q-27 72 -87 93.5t-214 21.5h-188
q-25 -30 -25 -191v-354q2 -8 12 -14h193q121 0 163 16t46 55l8 62q2 12 19 12t30 -4q-6 -165 -6 -184zM941 1782q15 -22 10 -44t-33.5 -51t-329.5 -239q-12 -2 -23.5 6t-7.5 25q25 27 53.5 59.5t86.5 96.5t92 102t58.5 60.5t51.5 14.5t42 -30z" />
    <glyph glyph-name="Ecircumflex" unicode="&#xca;" horiz-adv-x="1191" 
d="M891 713q0 -19 6 -187q-11 -4 -29 -4t-20 13l-8 73q-4 41 -46 57.5t-163 16.5h-193q-10 -6 -12 -14v-351q0 -148 29.5 -195.5t111.5 -47.5h160q161 0 207.5 17.5t70 42t44.5 63.5l32 59q8 12 27 10t31 -10q-34 -85 -62 -246q-2 -8 -16 -14q-16 4 -37 4h-700
q-99 0 -228 -6q-4 12 -4 30.5t12 20.5l74 12q41 8 50.5 45t9.5 174v836q0 137 -7.5 166t-19.5 39t-33 14l-74 12q-12 2 -12 20.5t4 31.5q55 -6 274 -6h281q281 0 301 4q16 -8 19 -15q4 -20 12 -79t31 -148q-44 -22 -56 2l-18 47q-27 72 -87 93.5t-214 21.5h-188
q-25 -30 -25 -191v-354q2 -8 12 -14h193q121 0 163 16t46 55l8 62q2 12 19 12t30 -4q-6 -165 -6 -184zM577.5 1812q20.5 0 35 -17t49.5 -55t62.5 -70t58 -65.5t59 -66t53.5 -59.5q4 -16 -7 -24.5t-24 -6.5q-156 115 -276 207q-10 6 -23 0q-70 -53 -136.5 -103.5
t-137.5 -103.5q-12 -2 -23.5 6t-7.5 25q25 27 53.5 59.5t86.5 96.5t92 102t49.5 56.5t36 18.5z" />
    <glyph glyph-name="Edieresis" unicode="&#xcb;" horiz-adv-x="1191" 
d="M506 1595q0 -41 -24.5 -66.5t-64.5 -25.5t-65.5 24.5t-25.5 65.5t24.5 68t64.5 27t65.5 -26t25.5 -67zM821 1595q0 -41 -24.5 -66.5t-64.5 -25.5t-65.5 24.5t-25.5 65.5t24.5 68t64.5 27t65.5 -26t25.5 -67zM891 713q0 -19 6 -187q-11 -4 -29 -4t-20 13l-8 73
q-4 41 -46 57.5t-163 16.5h-193q-10 -6 -12 -14v-351q0 -148 29.5 -195.5t111.5 -47.5h160q161 0 207.5 17.5t70 42t44.5 63.5l32 59q8 12 27 10t31 -10q-34 -85 -62 -246q-2 -8 -16 -14q-16 4 -37 4h-700q-99 0 -228 -6q-4 12 -4 30.5t12 20.5l74 12q41 8 50.5 45t9.5 174
v836q0 137 -7.5 166t-19.5 39t-33 14l-74 12q-12 2 -12 20.5t4 31.5q55 -6 274 -6h281q281 0 301 4q16 -8 19 -15q4 -20 12 -79t31 -148q-44 -22 -56 2l-18 47q-27 72 -87 93.5t-214 21.5h-188q-25 -30 -25 -191v-354q2 -8 12 -14h193q121 0 163 16t46 55l8 62q2 12 19 12
t30 -4q-6 -165 -6 -184z" />
    <glyph glyph-name="Igrave" unicode="&#xcc;" horiz-adv-x="681" 
d="M339.5 1389q58.5 0 238.5 6q4 -12 4 -30.5t-13 -21.5l-73 -12q-41 -8 -50.5 -45t-9.5 -174v-836q0 -137 7.5 -165.5t19.5 -39t33 -14.5l73 -12q13 -2 13 -20.5t-4 -30.5q-235 8 -474 0q-4 12 -4 30.5t13 20.5l73 12q41 8 50.5 45t9.5 174v836q0 137 -7.5 166t-19.5 39
t-33 14l-73 12q-12 2 -12.5 20.5t3.5 31.5q177 -6 235.5 -6zM385 1475q4 -16 -6 -24.5t-23 -6.5q-74 51 -152 103.5t-126 90.5t-61 50t-18 34t10 45t41 30t50 -13.5t56 -55.5t60 -66.5t57.5 -64l59 -65t52.5 -57.5z" />
    <glyph glyph-name="Iacute" unicode="&#xcd;" horiz-adv-x="681" 
d="M339.5 1389q58.5 0 238.5 6q4 -12 4 -30.5t-13 -21.5l-73 -12q-41 -8 -50.5 -45t-9.5 -174v-836q0 -137 7.5 -165.5t19.5 -39t33 -14.5l73 -12q13 -2 13 -20.5t-4 -30.5q-235 8 -474 0q-4 12 -4 30.5t13 20.5l73 12q41 8 50.5 45t9.5 174v836q0 137 -7.5 166t-19.5 39
t-33 14l-73 12q-12 2 -12.5 20.5t3.5 31.5q177 -6 235.5 -6zM663 1767q15 -23 10 -45t-19 -34t-62 -50t-125.5 -90.5t-151.5 -103.5q-12 -2 -22 6t-6 25q23 25 52.5 57.5l59 65t57 64.5t59.5 66t56.5 55t50.5 14t41 -30z" />
    <glyph glyph-name="Icircumflex" unicode="&#xce;" horiz-adv-x="681" 
d="M339.5 1389q58.5 0 238.5 6q4 -12 4 -30.5t-13 -21.5l-73 -12q-41 -8 -50.5 -45t-9.5 -174v-836q0 -137 7.5 -165.5t19.5 -39t33 -14.5l73 -12q13 -2 13 -20.5t-4 -30.5q-235 8 -474 0q-4 12 -4 30.5t13 20.5l73 12q41 8 50.5 45t9.5 174v836q0 137 -7.5 166t-19.5 39
t-33 14l-73 12q-12 2 -12.5 20.5t3.5 31.5q177 -6 235.5 -6zM342 1812q20 0 34.5 -17t49.5 -55t62.5 -70t58.5 -65.5t59 -66t53 -59.5q4 -16 -7 -24.5t-23 -6.5q-130 95 -277 207q-10 6 -22 0q-70 -53 -136.5 -103.5t-138.5 -103.5q-12 -2 -23.5 6t-6.5 25q25 27 53 59.5
t68 76t93 101.5q52 59 67.5 77.5t35.5 18.5z" />
    <glyph glyph-name="Idieresis" unicode="&#xcf;" horiz-adv-x="681" 
d="M281 1634q0 -41 -25 -66.5t-65 -25.5t-65.5 24.5t-25.5 65.5t25 67.5t65 26.5t65.5 -25.5t25.5 -66.5zM596 1634q0 -41 -24.5 -66.5t-64.5 -25.5t-65.5 24.5t-25.5 65.5t24.5 67.5t64.5 26.5t65.5 -25.5t25.5 -66.5zM339.5 1389q58.5 0 238.5 6q4 -12 4 -30.5t-13 -21.5
l-73 -12q-41 -8 -50.5 -45t-9.5 -174v-836q0 -137 7.5 -165.5t19.5 -39t33 -14.5l73 -12q13 -2 13 -20.5t-4 -30.5q-235 8 -474 0q-4 12 -4 30.5t13 20.5l73 12q41 8 50.5 45t9.5 174v836q0 137 -7.5 166t-19.5 39t-33 14l-73 12q-12 2 -12.5 20.5t3.5 31.5q177 -6 235.5 -6
z" />
    <glyph glyph-name="Eth" unicode="&#xd0;" horiz-adv-x="1564" 
d="M1108.5 1152.5q-171.5 184.5 -449.5 184.5q-116 0 -206 -22q-25 -40 -25 -191v-348q4 -10 10 -14h406q6 -39 0 -84h-406q-6 -4 -10 -14v-347q0 -148 29.5 -195.5t111.5 -47.5h174q230 0 383.5 157.5t153.5 447.5q0 289 -171.5 473.5zM278 1389q126 0 208.5 12t215.5 12
t299 -44t297 -177q203 -203 203 -492q0 -141 -56 -270t-157 -229q-201 -201 -559 -201h-403q-101 0 -230 -6q-4 12 -4 30.5t12 20.5l74 12q41 8 50.5 45t9.5 174v388q-4 10 -11 14h-135q-6 39 0 84h135q6 4 11 14v336q0 137 -7.5 166t-19.5 39t-33 14l-74 12q-12 2 -12 20.5
t4 31.5q56 -6 182 -6z" />
    <glyph glyph-name="Ntilde" unicode="&#xd1;" horiz-adv-x="1638" 
d="M1083 1740q-1 46 53 46q24 0 37 -24.5t13 -51.5q0 -74 -51.5 -124t-118.5 -50t-118.5 24.5t-96.5 55.5t-81 55.5t-66 24.5t-49 -15.5t-19 -41.5t16 -38t16 -33t-14 -33.5t-33 -12.5q-55 0 -55 74t51 125t119 51t119 -25t96 -55.5t81 -55t66 -24.5q68 0 68 59
q0 23 -16.5 35t-16.5 34zM1335 1389q44 0 215 6q4 -13 4 -31t-12 -21l-61 -10q-51 -8 -66.5 -70t-15.5 -259v-658q0 -179 16 -379q-13 -4 -41 -4t-31.5 3t-25.5 33t-107 124l-866 1003h-4v-739q0 -187 17.5 -239t38 -68.5t50.5 -22.5l72 -12q12 -2 12 -20.5t-4 -30.5
q-177 6 -221 6t-215 -6q-4 12 -4 30.5t14 20.5l62 10q50 8 66 71t16 259v760q0 81 -37 127q-37 45 -57.5 51t-43.5 10l-55 6q-12 2 -12 23t4 33q117 -6 134 -6h65q66 0 123 6q12 -2 22 -11q37 -45 82 -101t125 -148l704 -826h5v692q0 185 -17.5 238t-38 69.5t-51.5 22.5
l-72 12q-14 2 -14 20.5t4 31.5q177 -6 221 -6z" />
    <glyph glyph-name="Ograve" unicode="&#xd2;" horiz-adv-x="1566" 
d="M447 1688q-13 12 -18 34t10 45t41 30t50 -13.5t56 -55.5t77.5 -86t151.5 -167q4 -16 -6 -24.5t-23 -6.5q-74 51 -152 103.5t-126 90.5t-61 50zM1284 657q0 115 -32.5 239t-98.5 226.5t-165 168t-230 65.5q-241 0 -358 -183.5t-117 -442.5t98 -412.5t197.5 -219
t230.5 -65.5t221 55t146.5 143t82 199.5t25.5 226.5zM1503 695q0 -151 -53 -283.5t-148.5 -233t-225.5 -158t-282 -57.5t-285.5 58.5t-232 158t-156 234t-57.5 284.5t53.5 282t148.5 231.5t226 156.5t283 57t285 -57t231.5 -157.5t155.5 -232.5t57 -283z" />
    <glyph glyph-name="Oacute" unicode="&#xd3;" horiz-adv-x="1566" 
d="M1284 657q0 115 -32.5 239t-98.5 226.5t-165 168t-230 65.5q-241 0 -358 -183.5t-117 -442.5t98 -412.5t197.5 -219t230.5 -65.5t221 55t146.5 143t82 199.5t25.5 226.5zM1503 695q0 -151 -53 -283.5t-148.5 -233t-225.5 -158t-282 -57.5t-285.5 58.5t-232 158t-156 234
t-57.5 284.5t53.5 282t148.5 231.5t226 156.5t283 57t285 -57t231.5 -157.5t155.5 -232.5t57 -283zM1093 1767q15 -23 10 -45t-19 -34t-62 -50t-125.5 -90.5t-151.5 -103.5q-12 -2 -22 6t-6 25q23 25 52.5 57.5l59 65t57 64.5t59.5 66t56.5 55t50.5 14t41 -30z" />
    <glyph glyph-name="Ocircumflex" unicode="&#xd4;" horiz-adv-x="1566" 
d="M1284 657q0 115 -32.5 239t-98.5 226.5t-165 168t-230 65.5q-241 0 -358 -183.5t-117 -442.5t98 -412.5t197.5 -219t230.5 -65.5t221 55t146.5 143t82 199.5t25.5 226.5zM1503 695q0 -151 -53 -283.5t-148.5 -233t-225.5 -158t-282 -57.5t-285.5 58.5t-232 158t-156 234
t-57.5 284.5t53.5 282t148.5 231.5t226 156.5t283 57t285 -57t231.5 -157.5t155.5 -232.5t57 -283zM776.5 1812q20.5 0 34.5 -17t49 -55t62.5 -70t58.5 -65.5t59.5 -66t53.5 -59.5q4 -16 -7.5 -24.5t-23.5 -6.5q-130 95 -277 207q-10 6 -22 0q-70 -53 -136.5 -103.5
t-138.5 -103.5q-12 -2 -23 6t-7 25q25 27 53.5 59.5t72 80t91.5 102.5q49 54 64.5 72.5t36 18.5z" />
    <glyph glyph-name="Otilde" unicode="&#xd5;" horiz-adv-x="1566" 
d="M1053 1749q55 0 55 -75t-51 -125t-119 -50t-119 24.5t-96 55.5t-81 55.5t-66 24.5t-49 -15.5t-19 -41.5t16.5 -38t16.5 -33t-14.5 -33.5t-38.5 -12.5t-37 24.5t-13 51.5q0 74 51.5 124t118.5 50t118.5 -24.5t96.5 -55.5t81 -55.5t66 -24.5t49 15.5t19 41.5t-16 37t-16 33
t14 34.5t33 12.5zM1284 657q0 115 -32.5 239t-98.5 226.5t-165 168t-230 65.5q-241 0 -358 -183.5t-117 -442.5t98 -412.5t197.5 -219t230.5 -65.5t221 55t146.5 143t82 199.5t25.5 226.5zM1503 695q0 -151 -53 -283.5t-148.5 -233t-225.5 -158t-282 -57.5t-285.5 58.5
t-232 158t-156 234t-57.5 284.5t53.5 282t148.5 231.5t226 156.5t283 57t285 -57t231.5 -157.5t155.5 -232.5t57 -283z" />
    <glyph glyph-name="Odieresis" unicode="&#xd6;" horiz-adv-x="1566" 
d="M707 1593q0 -41 -25 -66.5t-65 -25.5t-65.5 24.5t-25.5 65.5t24.5 68t64.5 27t66 -26t26 -67zM1022 1593q0 -41 -24.5 -66.5t-64.5 -25.5t-65.5 24.5t-25.5 65.5t24.5 68t64.5 27t65.5 -26t25.5 -67zM1284 657q0 115 -32.5 239t-98.5 226.5t-165 168t-230 65.5
q-241 0 -358 -183.5t-117 -442.5t98 -412.5t197.5 -219t230.5 -65.5t221 55t146.5 143t82 199.5t25.5 226.5zM1503 695q0 -151 -53 -283.5t-148.5 -233t-225.5 -158t-282 -57.5t-285.5 58.5t-232 158t-156 234t-57.5 284.5t53.5 282t148.5 231.5t226 156.5t283 57t285 -57
t231.5 -157.5t155.5 -232.5t57 -283z" />
    <glyph glyph-name="multiply" unicode="&#xd7;" 
d="M887 39l-375 375l-375 -375l-49 49l375 375l-375 375l49 49l375 -375l375 375l49 -49l-375 -375l375 -375z" />
    <glyph glyph-name="Oslash" unicode="&#xd8;" horiz-adv-x="1566" 
d="M1288 628q0 226 -76 394q-4 2 -5 3t-5 -1l-782 -760q-4 -8 -2 -14q152 -219 393 -219t359 185.5t118 411.5zM758 1360q-248 0 -366 -187.5t-118 -424.5t91 -412q4 -2 5 -3t5 1l786 760q4 8 2 14q-66 111 -168 181.5t-237 70.5zM1497 684q0 -138 -53 -270.5t-147.5 -233
t-223.5 -159t-274 -58.5q-280 0 -488 184q-6 2 -12 0l-233 -225q-22 16 -52 62l226 219q4 10 2 14q-179 209 -179 479q0 150 53.5 283t201.5 289.5t452 156.5q147 0 278.5 -55t229.5 -151q8 -2 14 0l199 194q27 -19 53 -61l-198 -193q-4 -10 -3 -14q154 -191 154 -461z" />
    <glyph glyph-name="Ugrave" unicode="&#xd9;" horiz-adv-x="1550" 
d="M1243 1389q58 0 232 6q4 -13 4 -31t-13 -21l-53 -10q-80 -13 -91 -124t-11 -205v-531q0 -252 -130 -381t-374 -129q-571 0 -571 498v651q0 132 -7.5 163.5t-19.5 41.5t-33 14l-74 12q-12 2 -12 20.5t4 31.5q177 -6 236.5 -6t236.5 6q4 -12 4 -30.5t-12 -21.5l-74 -12
q-41 -8 -50 -46t-9 -175v-629q0 -197 96 -315.5t295 -118.5q385 0 385 432v522q0 180 -20.5 235.5t-42 72t-52.5 22.5l-71 12q-12 2 -12 20.5t4 31.5q177 -6 235 -6zM829 1475q4 -16 -6 -24.5t-22 -6.5q-74 51 -152 103.5t-126 90.5t-60.5 50t-18.5 34t9.5 45t41.5 30
t49.5 -13.5t55.5 -55.5t60 -66.5t58 -64t59 -65t52 -57.5z" />
    <glyph glyph-name="Uacute" unicode="&#xda;" horiz-adv-x="1550" 
d="M1243 1389q58 0 232 6q4 -13 4 -31t-13 -21l-53 -10q-80 -13 -91 -124t-11 -205v-531q0 -252 -130 -381t-374 -129q-571 0 -571 498v651q0 132 -7.5 163.5t-19.5 41.5t-33 14l-74 12q-12 2 -12 20.5t4 31.5q177 -6 236.5 -6t236.5 6q4 -12 4 -30.5t-12 -21.5l-74 -12
q-41 -8 -50 -46t-9 -175v-629q0 -197 96 -315.5t295 -118.5q385 0 385 432v522q0 180 -20.5 235.5t-42 72t-52.5 22.5l-71 12q-12 2 -12 20.5t4 31.5q177 -6 235 -6zM1128 1767q15 -23 10 -45t-18.5 -34t-61.5 -50t-126 -90.5t-152 -103.5q-12 -2 -22 6t-6 25
q23 25 52.5 57.5l59 65t57 64.5t59.5 66t56.5 55t50.5 14t41 -30z" />
    <glyph glyph-name="Ucircumflex" unicode="&#xdb;" horiz-adv-x="1550" 
d="M1243 1389q58 0 232 6q4 -13 4 -31t-13 -21l-53 -10q-80 -13 -91 -124t-11 -205v-531q0 -252 -130 -381t-374 -129q-571 0 -571 498v651q0 132 -7.5 163.5t-19.5 41.5t-33 14l-74 12q-12 2 -12 20.5t4 31.5q177 -6 236.5 -6t236.5 6q4 -12 4 -30.5t-12 -21.5l-74 -12
q-41 -8 -50 -46t-9 -175v-629q0 -197 96 -315.5t295 -118.5q385 0 385 432v522q0 180 -20.5 235.5t-42 72t-52.5 22.5l-71 12q-12 2 -12 20.5t4 31.5q177 -6 235 -6zM788.5 1812q20.5 0 35 -17t49.5 -55t62.5 -70t58 -65.5t59 -66t53.5 -59.5q4 -16 -7.5 -24.5t-23.5 -6.5
q-156 115 -276 207q-10 6 -23 0q-70 -53 -136.5 -103.5t-137.5 -103.5q-12 -2 -23.5 6t-7.5 25q25 27 53.5 59.5t86.5 96.5t92 102t49.5 56.5t36 18.5z" />
    <glyph glyph-name="Udieresis" unicode="&#xdc;" horiz-adv-x="1550" 
d="M733 1593q0 -41 -24.5 -66.5t-64.5 -25.5t-65.5 24.5t-25.5 65.5t24.5 68t64.5 27t65.5 -26t25.5 -67zM1049 1593q0 -41 -25 -66.5t-65 -25.5t-65.5 24.5t-25.5 65.5t25 68t65 27t65.5 -26t25.5 -67zM1243 1389q58 0 232 6q4 -13 4 -31t-13 -21l-53 -10q-80 -13 -91 -124
t-11 -205v-531q0 -252 -130 -381t-374 -129q-571 0 -571 498v651q0 132 -7.5 163.5t-19.5 41.5t-33 14l-74 12q-12 2 -12 20.5t4 31.5q177 -6 236.5 -6t236.5 6q4 -12 4 -30.5t-12 -21.5l-74 -12q-41 -8 -50 -46t-9 -175v-629q0 -197 96 -315.5t295 -118.5q385 0 385 432
v522q0 180 -20.5 235.5t-42 72t-52.5 22.5l-71 12q-12 2 -12 20.5t4 31.5q177 -6 235 -6z" />
    <glyph glyph-name="Yacute" unicode="&#xdd;" horiz-adv-x="1255" 
d="M1050 1389q103 0 191 6q4 -13 4 -31t-12 -21l-29 -4q-56 -8 -94.5 -45t-124.5 -174l-229 -360q-23 -33 -29 -59.5t-6 -77.5v-347q0 -137 7 -165.5t19.5 -39t32.5 -14.5l74 -12q12 -2 12 -20.5t-4 -30.5q-177 6 -235 6t-238 -6q-4 12 -4 30.5t12 20.5l74 12q41 8 50 45
t9 174v330q0 39 -6 60.5t-26 56.5l-244 395q-103 169 -134.5 189t-49.5 24l-47 12q-12 2 -12.5 20.5t3.5 31.5q177 -6 223 -6t226 6q4 -12 4 -30.5t-14 -21.5l-37 -6q-37 -6 -37 -30q0 -23 29.5 -70t70.5 -117l197 -329h2l186 305q88 145 88 204q0 35 -32 39l-52 4
q-12 -1 -12 19t4 33q87 -6 190 -6zM1011 1767q15 -23 10 -45t-18.5 -34t-61.5 -50t-126 -90.5t-151 -103.5q-12 -2 -22.5 6t-6.5 25q23 25 52.5 57.5l59 65t57 64.5t59.5 66t56.5 55t50.5 14t41 -30z" />
    <glyph glyph-name="Thorn" unicode="&#xde;" horiz-adv-x="1181" 
d="M612 1229q200 0 336.5 -99t136.5 -301q0 -168 -133 -292.5t-362 -124.5q-41 0 -53.5 8t-12.5 25t6 36q28 -4 62 -4q143 0 218 93.5t75 247.5t-87 247.5t-247 93.5q-117 0 -123 -29v-841q0 -133 14.5 -167t30.5 -44t41 -15l94 -16q12 -2 12 -21t-4 -32q-258 9 -520 0
q-4 12 -4 30.5t12 20.5l74 12q41 8 50.5 45t9.5 174v836q0 137 -7.5 166t-19.5 39t-33 14l-74 12q-12 2 -12 20.5t4 31.5q177 -6 236.5 -6t236.5 6q4 -12 4 -30.5t-12 -21.5l-82 -12q-29 -4 -42 -21.5t-13 -76.5q2 -6 10 -12q86 8 178 8z" />
    <glyph glyph-name="germandbls" unicode="&#xdf;" horiz-adv-x="1087" 
d="M694 1552q135 0 225.5 -81t90.5 -220t-91 -201t-149 -98t-99.5 -76t-41.5 -90t29.5 -91.5t73.5 -77t169 -120.5t125 -226q0 -142 -93.5 -225t-201.5 -83t-171.5 28.5t-63.5 76.5q0 25 20 53.5t48 28.5t44.5 -19.5t35 -42t43 -42t76.5 -19.5t85 47t33 104t-29 99t-72 77
t-93 68t-121.5 97t-71.5 189t97 194.5t149 103.5t99.5 91t47.5 131q0 122 -69.5 185.5t-155.5 63.5q-152 0 -232 -125.5t-80 -304.5v-816q0 -94 6 -131t41 -45l52 -10q12 -2 12 -20t-4 -31q-12 0 -36 1t-50.5 2l-53 2t-31.5 1l-220 -6q-15 45 8 49l69 10q35 4 41 41t6 131
v512q0 35 -5 42t-15 7h-49q-25 0 -25 29q77 48 94 78q0 251 133.5 455t370.5 204z" />
    <glyph glyph-name="agrave" unicode="&#xe0;" horiz-adv-x="909" 
d="M139 1428q0 29 19.5 46t48.5 17t47 -25.5t44 -71.5t49.5 -91.5t49 -93.5t50 -93t40.5 -76q-4 -33 -36 -22q-59 72 -135 160t-126 155q-50 66 -51 95zM266 208.5q0 -61.5 36 -100t85 -38.5q103 0 156 53q22 22 22 61v240q-214 -73 -256.5 -113.5t-42.5 -102zM870 100
q16 0 15 -19q0 -19 -2 -28q-111 -80 -171 -80t-88 30t-44 73q-4 2 -15 2q-70 -59 -128 -87t-142 -28t-138.5 60.5t-54.5 148.5t44 129t125 75t284 101q8 8 10 15v157q0 90 -50 130t-109 40t-100.5 -26.5t-41.5 -85.5v-17q0 -18 4 -28q-2 -8 -8 -17q-20 -16 -53 -31.5
t-49 -15.5q-27 0 -27 45t21.5 79t83.5 80q151 113 284 113t169 -81.5t36 -137.5v-477q0 -97 20.5 -120t46.5 -23t44 12t34 12z" />
    <glyph glyph-name="aacute" unicode="&#xe1;" horiz-adv-x="909" 
d="M726 1474q19 -17 19 -46q1 -29 -49 -96q-50 -66 -126 -154t-136 -160q-12 -4 -23.5 1t-13.5 21q16 31 41 76t50.5 93t49 93.5t49.5 91.5t44 71.5t47 25.5t48 -17zM266 208.5q0 -61.5 36 -100t85 -38.5q103 0 156 53q22 22 22 61v240q-214 -73 -256.5 -113.5t-42.5 -102z
M870 100q16 0 15 -19q0 -19 -2 -28q-111 -80 -171 -80t-88 30t-44 73q-4 2 -15 2q-70 -59 -128 -87t-142 -28t-138.5 60.5t-54.5 148.5t44 129t125 75t284 101q8 8 10 15v157q0 90 -50 130t-109 40t-100.5 -26.5t-41.5 -85.5v-17q0 -18 4 -28q-2 -8 -8 -17
q-20 -16 -53 -31.5t-49 -15.5q-27 0 -27 45t21.5 79t83.5 80q151 113 284 113t169 -81.5t36 -137.5v-477q0 -97 20.5 -120t46.5 -23t44 12t34 12z" />
    <glyph glyph-name="acircumflex" unicode="&#xe2;" horiz-adv-x="909" 
d="M452 1509q30 0 48 -31.5t38 -74.5t41 -91t58.5 -130t62.5 -142q-9 -35 -38 -20q-45 59 -97.5 138t-101.5 151q-10 6 -21 0q-49 -72 -101 -151t-97 -138q-12 -6 -23.5 -1t-15.5 21q25 60 79.5 179.5t77.5 171.5q23 51 41.5 84.5t48.5 33.5zM266 208.5q0 -61.5 36 -100
t85 -38.5q103 0 156 53q22 22 22 61v240q-214 -73 -256.5 -113.5t-42.5 -102zM870 100q16 0 15 -19q0 -19 -2 -28q-111 -80 -171 -80t-88 30t-44 73q-4 2 -15 2q-70 -59 -128 -87t-142 -28t-138.5 60.5t-54.5 148.5t44 129t125 75t284 101q8 8 10 15v157q0 90 -50 130
t-109 40t-100.5 -26.5t-41.5 -85.5v-17q0 -18 4 -28q-2 -8 -8 -17q-20 -16 -53 -31.5t-49 -15.5q-27 0 -27 45t21.5 79t83.5 80q151 113 284 113t169 -81.5t36 -137.5v-477q0 -97 20.5 -120t46.5 -23t44 12t34 12z" />
    <glyph glyph-name="atilde" unicode="&#xe3;" horiz-adv-x="909" 
d="M215 1214q1 -46 -53 -47q-24 0 -36.5 25t-12.5 51q0 74 50.5 124t118.5 50t119.5 -24.5t96.5 -55t80.5 -55.5t65.5 -25t49.5 15.5t19.5 41.5t-16.5 38t-16.5 33t14.5 34t32.5 13q55 0 55 -75t-51 -125t-119 -50t-119 24.5t-96 55t-80.5 55t-65.5 24.5t-49.5 -15
t-19.5 -41t16.5 -37.5t16.5 -33.5zM266 208.5q0 -61.5 36 -100t85 -38.5q103 0 156 53q22 22 22 61v240q-214 -73 -256.5 -113.5t-42.5 -102zM870 100q16 0 15 -19q0 -19 -2 -28q-111 -80 -171 -80t-88 30t-44 73q-4 2 -15 2q-70 -59 -128 -87t-142 -28t-138.5 60.5
t-54.5 148.5t44 129t125 75t284 101q8 8 10 15v157q0 90 -50 130t-109 40t-100.5 -26.5t-41.5 -85.5v-17q0 -18 4 -28q-2 -8 -8 -17q-20 -16 -53 -31.5t-49 -15.5q-27 0 -27 45t21.5 79t83.5 80q151 113 284 113t169 -81.5t36 -137.5v-477q0 -97 20.5 -120t46.5 -23t44 12
t34 12z" />
    <glyph glyph-name="adieresis" unicode="&#xe4;" horiz-adv-x="909" 
d="M391 1321q0 -41 -24.5 -66.5t-64.5 -25.5t-65.5 24.5t-25.5 65.5t24.5 67.5t64.5 26.5t65.5 -25.5t25.5 -66.5zM707 1321q0 -41 -25 -66.5t-65 -25.5t-65.5 24.5t-25.5 65.5t24.5 67.5t64.5 26.5t66 -25.5t26 -66.5zM266 208.5q0 -61.5 36 -100t85 -38.5q103 0 156 53
q22 22 22 61v240q-214 -73 -256.5 -113.5t-42.5 -102zM870 100q16 0 15 -19q0 -19 -2 -28q-111 -80 -171 -80t-88 30t-44 73q-4 2 -15 2q-70 -59 -128 -87t-142 -28t-138.5 60.5t-54.5 148.5t44 129t125 75t284 101q8 8 10 15v157q0 90 -50 130t-109 40t-100.5 -26.5
t-41.5 -85.5v-17q0 -18 4 -28q-2 -8 -8 -17q-20 -16 -53 -31.5t-49 -15.5q-27 0 -27 45t21.5 79t83.5 80q151 113 284 113t169 -81.5t36 -137.5v-477q0 -97 20.5 -120t46.5 -23t44 12t34 12z" />
    <glyph glyph-name="aring" unicode="&#xe5;" horiz-adv-x="909" 
d="M370 1166q30 -52 86 -52t80.5 48t24.5 108.5t-29 113t-86 52.5t-81.5 -46.5t-24.5 -109t30 -114.5zM662 1279q0 -91 -55.5 -151.5t-150.5 -60.5t-155.5 57.5t-60.5 148.5t55 150.5t150 59.5t156 -56.5t61 -147.5zM266 208.5q0 -61.5 36 -100t85 -38.5q103 0 156 53
q22 22 22 61v240q-214 -73 -256.5 -113.5t-42.5 -102zM870 100q16 0 15 -19q0 -19 -2 -28q-111 -80 -171 -80t-88 30t-44 73q-4 2 -15 2q-70 -59 -128 -87t-142 -28t-138.5 60.5t-54.5 148.5t44 129t125 75t284 101q8 8 10 15v157q0 90 -50 130t-109 40t-100.5 -26.5
t-41.5 -85.5v-17q0 -18 4 -28q-2 -8 -8 -17q-20 -16 -53 -31.5t-49 -15.5q-27 0 -27 45t21.5 79t83.5 80q151 113 284 113t169 -81.5t36 -137.5v-477q0 -97 20.5 -120t46.5 -23t44 12t34 12z" />
    <glyph glyph-name="ae" unicode="&#xe6;" horiz-adv-x="1316" 
d="M266 208.5q0 -61.5 36 -100t85 -38.5q103 0 156 53q22 22 22 61v240q-214 -73 -256.5 -113.5t-42.5 -102zM930 866q-114 0 -164.5 -91t-50.5 -224q6 -10 16 -10l342 131q6 6 10 22q-6 68 -48 120t-105 52zM310 -37q-98 0 -153 60.5t-55 148.5t44 129t125 75t284 101
q8 8 10 15v159q0 82 -47 125t-109 43t-103.5 -26.5t-41.5 -85.5v-17q0 -18 4 -28q-2 -8 -8 -17q-20 -16 -53 -31.5t-49 -15.5q-27 0 -27 45t21.5 79t83.5 80q151 113 272 113t188 -94q10 -4 17 0q101 105 227 105q125 0 206.5 -63t104.5 -169q-3 -18 -14 -35l-512 -184
q-4 -8 -8 -20q0 -152 73.5 -261.5t205.5 -109.5t223 111q12 -2 29 -15t-5 -47q-129 -170 -319 -170q-104 0 -178 43t-115 113q-8 0 -15 -2q-63 -57 -135.5 -105.5t-170.5 -48.5z" />
    <glyph glyph-name="ccedilla" unicode="&#xe7;" horiz-adv-x="880" 
d="M66 410q0 216 136 366t351 150q160 0 212 -42t52 -72t-23.5 -59.5t-54.5 -29.5t-44 20.5t-51.5 64.5t-160.5 44q-123 0 -194.5 -99.5t-71.5 -247.5t102 -283.5t265 -135.5q66 0 126 33t97 86q61 -10 11 -78q-50 -67 -165.5 -130.5t-115.5 -121.5q0 -20 14 -40.5t45 -64.5
t31 -91q0 -86 -71 -167t-143 -81q-71 0 -71 39q0 16 12.5 34.5t31.5 18.5t37.5 -8.5t43.5 -8.5t41 21.5t16 51.5t-17.5 60.5t-39 58.5t-39.5 52t-18 50t29.5 70t95.5 97q-28 -4 -54 -4q-187 0 -301 137t-114 310z" />
    <glyph glyph-name="egrave" unicode="&#xe8;" horiz-adv-x="899" 
d="M176 1428q0 29 19.5 46t48.5 17t46.5 -25.5t43.5 -71.5t50 -91.5t49.5 -93.5t50 -93t40.5 -76q-4 -32 -37 -22q-59 72 -135 160t-126 155q-50 66 -50 95zM326.5 810q-64.5 -56 -88.5 -153q2 -10 12 -14l399 6q9 9 13 21q0 96 -54 146t-135 50q-82 0 -146.5 -56zM207 498
q0 -160 101 -287t263 -127q61 0 122 33t95 78q12 -1 24 -11t13.5 -20t-12.5 -31q-126 -170 -327 -170q-200 0 -310 140.5t-110 342.5q0 203 125.5 341.5t281.5 138.5q155 0 251 -77t110 -235q-3 -20 -17 -34h-592q-18 -10 -18 -82z" />
    <glyph glyph-name="eacute" unicode="&#xe9;" horiz-adv-x="899" 
d="M781.5 1474q19.5 -17 19.5 -45t-50 -96q-50 -67 -126 -155t-136 -160q-32 -11 -36 22q16 31 40.5 76t50 93t49 93.5t49.5 91.5t45 71.5t47 25.5t47.5 -17zM326.5 810q-64.5 -56 -88.5 -153q2 -10 12 -14l399 6q9 9 13 21q0 96 -54 146t-135 50q-82 0 -146.5 -56zM207 498
q0 -160 101 -287t263 -127q61 0 122 33t95 78q12 -1 24 -11t13.5 -20t-12.5 -31q-126 -170 -327 -170q-200 0 -310 140.5t-110 342.5q0 203 125.5 341.5t281.5 138.5q155 0 251 -77t110 -235q-3 -20 -17 -34h-592q-18 -10 -18 -82z" />
    <glyph glyph-name="ecircumflex" unicode="&#xea;" horiz-adv-x="899" 
d="M486 1509q30 0 49 -31.5t39 -74.5t40.5 -91t58 -130t62.5 -142q-9 -34 -39 -20q-45 59 -97 138t-101 151q-10 6 -21 0q-49 -72 -101 -151t-97 -138q-12 -6 -23.5 -1t-15.5 21q25 60 79.5 179.5t77.5 171.5q23 51 41 84.5t48 33.5zM326.5 810q-64.5 -56 -88.5 -153
q2 -10 12 -14l399 6q9 9 13 21q0 96 -54 146t-135 50q-82 0 -146.5 -56zM207 498q0 -160 101 -287t263 -127q61 0 122 33t95 78q12 -1 24 -11t13.5 -20t-12.5 -31q-126 -170 -327 -170q-200 0 -310 140.5t-110 342.5q0 203 125.5 341.5t281.5 138.5q155 0 251 -77t110 -235
q-3 -20 -17 -34h-592q-18 -10 -18 -82z" />
    <glyph glyph-name="edieresis" unicode="&#xeb;" horiz-adv-x="899" 
d="M403 1321q0 -41 -24.5 -66.5t-64.5 -25.5t-65.5 24.5t-25.5 65.5t24.5 67.5t64.5 26.5t65.5 -25.5t25.5 -66.5zM719 1321q0 -41 -24.5 -66.5t-64.5 -25.5t-65.5 24.5t-25.5 65.5t24.5 67.5t64.5 26.5t65.5 -25.5t25.5 -66.5zM326.5 810q-64.5 -56 -88.5 -153
q2 -10 12 -14l399 6q9 9 13 21q0 96 -54 146t-135 50q-82 0 -146.5 -56zM207 498q0 -160 101 -287t263 -127q61 0 122 33t95 78q12 -1 24 -11t13.5 -20t-12.5 -31q-126 -170 -327 -170q-200 0 -310 140.5t-110 342.5q0 203 125.5 341.5t281.5 138.5q155 0 251 -77t110 -235
q-3 -20 -17 -34h-592q-18 -10 -18 -82z" />
    <glyph glyph-name="igrave" unicode="&#xec;" horiz-adv-x="581" 
d="M-72 1428q0 29 19.5 46t48.5 17t46.5 -25.5t43.5 -71.5t50 -91.5t49.5 -93.5t50 -93t40.5 -76q-4 -33 -36 -22q-59 72 -135.5 160t-126.5 155q-50 66 -50 95zM371 725v-500q0 -94 6 -130t41 -42l61 -10q13 -2 13 -19t-5 -30l-49 2l-344 -2q-4 12 -4 30t12 19l62 10
q35 6 41 42t6 130v469q0 35 -4 46.5t-21 21.5l-71 39q-13 5 -13 16l2 21q135 32 187.5 67t64.5 35t19 -6q-4 -106 -4 -209z" />
    <glyph glyph-name="iacute" unicode="&#xed;" horiz-adv-x="581" 
d="M566.5 1474q19.5 -17 19.5 -45t-50 -96q-50 -67 -126 -155t-136 -160q-32 -11 -36 22q16 31 40.5 76t50 93t49 93.5t49.5 91.5t44 71.5t47 25.5t48.5 -17zM371 725v-500q0 -94 6 -130t41 -42l61 -10q13 -2 13 -19t-5 -30l-49 2l-344 -2q-4 12 -4 30t12 19l62 10
q35 6 41 42t6 130v469q0 35 -4 46.5t-21 21.5l-71 39q-13 5 -13 16l2 21q135 32 187.5 67t64.5 35t19 -6q-4 -106 -4 -209z" />
    <glyph glyph-name="icircumflex" unicode="&#xee;" horiz-adv-x="581" 
d="M288 1509q30 0 48 -31.5t38 -74.5t41 -91t43.5 -97.5t43.5 -95.5t35 -79q-4 -16 -15.5 -21t-23.5 1q-45 59 -97.5 138t-101.5 151q-10 6 -20 0q-49 -72 -101.5 -151t-97.5 -138q-12 -6 -23.5 -1t-15.5 21q25 60 62.5 142t59 130t40.5 89t37 74.5t48 33.5zM371 725v-500
q0 -94 6 -130t41 -42l61 -10q13 -2 13 -19t-5 -30l-49 2l-344 -2q-4 12 -4 30t12 19l62 10q35 6 41 42t6 130v469q0 35 -4 46.5t-21 21.5l-71 39q-13 5 -13 16l2 21q135 32 187.5 67t64.5 35t19 -6q-4 -106 -4 -209z" />
    <glyph glyph-name="idieresis" unicode="&#xef;" horiz-adv-x="581" 
d="M223 1321q0 -41 -24.5 -66.5t-64.5 -25.5t-65.5 24.5t-25.5 65.5t24.5 67.5t64.5 26.5t65.5 -25.5t25.5 -66.5zM539 1321q0 -41 -24.5 -66.5t-64.5 -25.5t-66 24.5t-26 65.5t25 67.5t65 26.5t65.5 -25.5t25.5 -66.5zM371 725v-500q0 -94 6 -130t41 -42l61 -10
q13 -2 13 -19t-5 -30l-49 2l-344 -2q-4 12 -4 30t12 19l62 10q35 6 41 42t6 130v469q0 35 -4 46.5t-21 21.5l-71 39q-13 5 -13 16l2 21q135 32 187.5 67t64.5 35t19 -6q-4 -106 -4 -209z" />
    <glyph glyph-name="eth" unicode="&#xf0;" horiz-adv-x="1081" 
d="M752 740.5q-73 129.5 -225 129.5t-214.5 -125t-62.5 -288t77 -301t225 -138t210.5 125.5t62.5 296.5t-73 300.5zM528 926q144 0 244 -88q8 0 16 8q-46 218 -194 391q-8 4 -19 2l-260 -143q-18 23 -32 59l243 135q2 4 0 17q-156 144 -370 202q0 14 8 28.5t20 14.5t77 -16
t168 -62.5t196 -117.5q8 -2 20 0l221 123q19 -23 33 -62l-197 -108q-4 -6 -2 -17q320 -294 320 -743q0 -244 -120 -415t-342 -171t-359.5 133.5t-137.5 341.5t131 348t336 140z" />
    <glyph glyph-name="ntilde" unicode="&#xf1;" horiz-adv-x="1167" 
d="M387 1214q1 -46 -53 -47q-24 0 -36.5 25t-12.5 51q0 74 50.5 124t118.5 50t119.5 -24.5t96.5 -55t80.5 -55.5t65.5 -25t49.5 15.5t19.5 41.5t-16.5 38t-16.5 33t14.5 34t32.5 13q55 0 55 -75t-51 -125t-119 -50t-119 24.5t-96 55t-80.5 55t-65.5 24.5t-49.5 -15
t-19.5 -41t16.5 -37.5t16.5 -33.5zM348 940q12 0 19 -6l-5 -137q4 -4 17 -4q92 69 162 101t147 32q147 0 218 -71t74 -150.5t3 -108.5v-371q0 -94 6 -130t41 -42l62 -10q12 -2 12 -19t-4 -30l-48 2l-345 -2q-15 45 8 49l61 10q35 6 41 42t6 130v361q0 47 -8 91t-55 91
q-48 47 -136 47t-142 -25.5t-80 -45.5t-29.5 -33t-3.5 -35v-451q0 -94 6 -130t41 -42l61 -10q12 -2 12 -19t-4 -30l-49 2l-344 -2q-4 12 -4 30t12 19l62 10q35 6 41 42t6 130v469q0 35 -4 46.5t-21 21.5l-71 39q-13 5 -13 16l2 21q122 29 178 65.5t68 36.5z" />
    <glyph glyph-name="ograve" unicode="&#xf2;" horiz-adv-x="1083" 
d="M207 1428q0 29 19.5 46t47.5 17t47 -25.5t45 -71.5t49 -91.5t48.5 -93.5t50.5 -93t41 -76q-2 -16 -13.5 -21t-23.5 -1q-59 72 -135 160t-126 155q-50 66 -50 95zM750.5 731.5q-78.5 134.5 -225.5 134.5t-209 -124t-62 -286t78 -297.5t226 -135.5t209.5 124t61.5 287
t-78.5 297.5zM204.5 95.5q-138.5 132.5 -138.5 342.5t130.5 349t337 139t345.5 -133t139 -342t-131 -348.5t-337.5 -139.5t-345 132.5z" />
    <glyph glyph-name="oacute" unicode="&#xf3;" horiz-adv-x="1083" 
d="M832 1474q20 -17 20 -47t-41 -79q-59 -82 -135 -170t-135 -160q-12 -4 -23.5 1t-13.5 21q16 31 40.5 76t50.5 93t49.5 93.5t49.5 91.5t44 71.5t46 25.5t48 -17zM750.5 731.5q-78.5 134.5 -225.5 134.5t-209 -124t-62 -286t78 -297.5t226 -135.5t209.5 124t61.5 287
t-78.5 297.5zM204.5 95.5q-138.5 132.5 -138.5 342.5t130.5 349t337 139t345.5 -133t139 -342t-131 -348.5t-337.5 -139.5t-345 132.5z" />
    <glyph glyph-name="ocircumflex" unicode="&#xf4;" horiz-adv-x="1083" 
d="M532 1509q30 0 48 -31.5t38 -74.5t41 -91t58.5 -130t62.5 -142q-9 -34 -39 -20q-45 59 -97 138t-101 151q-10 6 -21 0q-49 -72 -101 -151t-97 -138q-12 -6 -23.5 -1t-15.5 21q25 60 79.5 179.5t77.5 171.5q23 51 41.5 84.5t48.5 33.5zM750.5 731.5
q-78.5 134.5 -225.5 134.5t-209 -124t-62 -286t78 -297.5t226 -135.5t209.5 124t61.5 287t-78.5 297.5zM204.5 95.5q-138.5 132.5 -138.5 342.5t130.5 349t337 139t345.5 -133t139 -342t-131 -348.5t-337.5 -139.5t-345 132.5z" />
    <glyph glyph-name="otilde" unicode="&#xf5;" horiz-adv-x="1083" 
d="M319 1214q0 -46 -53 -47q-25 0 -37 25t-12 51q0 74 50.5 124t118.5 50t119.5 -24.5t96.5 -55t81 -55.5t66 -25t49 15.5t19 41.5t-16.5 38t-16.5 33t15 34t39 13t36.5 -24.5t12.5 -51.5q0 -74 -51.5 -124t-118.5 -50t-118.5 24.5t-96.5 55t-81 55t-66 24.5q-68 0 -68 -59
q0 -23 16 -34.5t16 -33.5zM750.5 731.5q-78.5 134.5 -225.5 134.5t-209 -124t-62 -286t78 -297.5t226 -135.5t209.5 124t61.5 287t-78.5 297.5zM204.5 95.5q-138.5 132.5 -138.5 342.5t130.5 349t337 139t345.5 -133t139 -342t-131 -348.5t-337.5 -139.5t-345 132.5z" />
    <glyph glyph-name="odieresis" unicode="&#xf6;" horiz-adv-x="1083" 
d="M483 1321q0 -41 -24.5 -66.5t-64.5 -25.5t-65.5 24.5t-25.5 65.5t24.5 67.5t64.5 26.5t65.5 -25.5t25.5 -66.5zM799 1321q0 -41 -24.5 -66.5t-64.5 -25.5t-66 24.5t-26 65.5t25 67.5t65 26.5t65.5 -25.5t25.5 -66.5zM750.5 731.5q-78.5 134.5 -225.5 134.5t-209 -124
t-62 -286t78 -297.5t226 -135.5t209.5 124t61.5 287t-78.5 297.5zM204.5 95.5q-138.5 132.5 -138.5 342.5t130.5 349t337 139t345.5 -133t139 -342t-131 -348.5t-337.5 -139.5t-345 132.5z" />
    <glyph glyph-name="divide" unicode="&#xf7;" 
d="M512 145q61 0 61 -45t-16 -62.5t-45 -17.5t-45 17.5t-16 62.5t61 45zM49 428v70h926v-70h-926zM512 905q61 0 61 -45t-16 -62.5t-45 -17.5t-45 17.5t-16 62.5t61 45z" />
    <glyph glyph-name="oslash" unicode="&#xf8;" horiz-adv-x="1083" 
d="M825 407q0 136 -30 224q-4 2 -5.5 3t-5.5 -1l-460 -449q-4 -8 -2 -14q86 -147 233 -147t208.5 124t61.5 260zM250 446q0 -99 33 -190q4 -2 5 -3t5 1l461 446q4 9 2 15q-89 151 -235 151q-147 0 -209 -124t-62 -296zM1014 443q0 -94 -34 -183.5t-131 -193t-293 -103.5
t-333 113q-6 2 -14 0l-98 -96q-22 12 -50 51l97 96q4 10 2 14q-99 124 -99 315t131 330.5t329 139.5t335 -115q8 -2 14 0l101 100q21 -12 49 -51l-102 -98q-4 -10 -3 -14q99 -124 99 -305z" />
    <glyph glyph-name="ugrave" unicode="&#xf9;" horiz-adv-x="1138" 
d="M186 1428q0 29 19.5 46t48.5 17t46.5 -25.5t43.5 -71.5t50 -91.5t49.5 -93.5t50.5 -93t41 -76q-2 -16 -13.5 -21t-23.5 -1q-59 72 -135.5 160t-126.5 155q-50 66 -50 95zM926 725v-580q0 -39 8 -54t27 -13l79 6q21 2 21 -27l-2 -20q-139 -19 -200 -40.5t-73 -21.5t-18 7
l4 110q-4 4 -16 4q-78 -61 -146.5 -97t-149.5 -36q-147 0 -227 80q-63 68 -63 99v593q0 35 -4 48.5t-21 19.5l-49 18q-12 5 -12 17l2 24q101 10 159 30.5t70 20.5t19 -6q-4 -106 -4 -182v-422q0 -47 7 -91t52 -91t131 -47q129 0 223 80q16 12 19.5 24t3.5 35v514
q0 35 -7 50.5t-26 19.5l-98 22q-12 2 -12 17l2 26q23 2 62.5 5t92.5 13t88 21.5t45 11.5t17 -6q-4 -106 -4 -182z" />
    <glyph glyph-name="uacute" unicode="&#xfa;" horiz-adv-x="1138" 
d="M794 1474q19 -17 19 -47t-41 -79q-59 -82 -135 -170t-135 -160q-12 -4 -23.5 1t-13.5 21q16 31 40.5 76t50.5 93t49 93.5t49 91.5t44.5 71.5t47.5 25.5t48 -17zM926 725v-580q0 -39 8 -54t27 -13l79 6q21 2 21 -27l-2 -20q-139 -19 -200 -40.5t-73 -21.5t-18 7l4 110
q-4 4 -16 4q-78 -61 -146.5 -97t-149.5 -36q-147 0 -227 80q-63 68 -63 99v593q0 35 -4 48.5t-21 19.5l-49 18q-12 5 -12 17l2 24q101 10 159 30.5t70 20.5t19 -6q-4 -106 -4 -182v-422q0 -47 7 -91t52 -91t131 -47q129 0 223 80q16 12 19.5 24t3.5 35v514q0 35 -7 50.5
t-26 19.5l-98 22q-12 2 -12 17l2 26q23 2 62.5 5t92.5 13t88 21.5t45 11.5t17 -6q-4 -106 -4 -182z" />
    <glyph glyph-name="ucircumflex" unicode="&#xfb;" horiz-adv-x="1138" 
d="M515 1509q30 0 48.5 -31.5t38.5 -74.5t41 -91t58.5 -130t62.5 -142q-4 -16 -15.5 -21t-23.5 1q-45 59 -97.5 138t-101.5 151q-10 6 -20 0q-49 -72 -101.5 -151t-97.5 -138q-12 -6 -23.5 -1t-15.5 21q14 33 35 79t60.5 133t62.5 139q23 51 41 84.5t48 33.5zM926 725v-580
q0 -39 8 -54t27 -13l79 6q21 2 21 -27l-2 -20q-139 -19 -200 -40.5t-73 -21.5t-18 7l4 110q-4 4 -16 4q-78 -61 -146.5 -97t-149.5 -36q-147 0 -227 80q-63 68 -63 99v593q0 35 -4 48.5t-21 19.5l-49 18q-12 5 -12 17l2 24q101 10 159 30.5t70 20.5t19 -6q-4 -106 -4 -182
v-422q0 -47 7 -91t52 -91t131 -47q129 0 223 80q16 12 19.5 24t3.5 35v514q0 35 -7 50.5t-26 19.5l-98 22q-12 2 -12 17l2 26q23 2 62.5 5t92.5 13t88 21.5t45 11.5t17 -6q-4 -106 -4 -182z" />
    <glyph glyph-name="udieresis" unicode="&#xfc;" horiz-adv-x="1138" 
d="M446 1321q0 -41 -24.5 -66.5t-64.5 -25.5t-65.5 24.5t-25.5 65.5t24.5 67.5t64.5 26.5t65.5 -25.5t25.5 -66.5zM762 1321q0 -41 -24.5 -66.5t-64.5 -25.5t-65.5 24.5t-25.5 65.5t24.5 67.5t64.5 26.5t65.5 -25.5t25.5 -66.5zM926 725v-580q0 -39 8 -54t27 -13l79 6
q21 2 21 -27l-2 -20q-139 -19 -200 -40.5t-73 -21.5t-18 7l4 110q-4 4 -16 4q-78 -61 -146.5 -97t-149.5 -36q-147 0 -227 80q-63 68 -63 99v593q0 35 -4 48.5t-21 19.5l-49 18q-12 5 -12 17l2 24q101 10 159 30.5t70 20.5t19 -6q-4 -106 -4 -182v-422q0 -47 7 -91t52 -91
t131 -47q129 0 223 80q16 12 19.5 24t3.5 35v514q0 35 -7 50.5t-26 19.5l-98 22q-12 2 -12 17l2 26q23 2 62.5 5t92.5 13t88 21.5t45 11.5t17 -6q-4 -106 -4 -182z" />
    <glyph glyph-name="yacute" unicode="&#xfd;" horiz-adv-x="935" 
d="M789.5 1474q19.5 -17 19.5 -47t-41 -79q-59 -82 -135 -170t-135 -160q-12 -4 -23.5 1t-13.5 21q16 31 40.5 76t50.5 93t49 93.5t49 91.5t45 71.5t47 25.5t47.5 -17zM743 889q76 0 181 6q4 -13 4 -30t-13 -19q-36 -7 -59.5 -24t-85.5 -167l-432 -1061q-31 -79 -59 -121
t-79 -42q-50 0 -76 26.5t-26 66.5t21.5 67.5t62.5 27.5l44 -7q44 -7 69 60l131 314q-10 49 -61 174l-199 495q-41 102 -65.5 141.5t-57.5 45.5l-23 4q-12 2 -12 19t4 30q12 0 37 -1t52.5 -2l55 -2t31.5 -1l215 6q15 -45 -8 -49l-61 -10q-39 -6 -36 -39t40 -135l170 -463h6
l148 381q6 18 29.5 82t23.5 104q0 59 -64 74l-28 6q-23 4 -9 49q53 -6 129 -6z" />
    <glyph glyph-name="thorn" unicode="&#xfe;" horiz-adv-x="1114" 
d="M798 697q-83 118 -220 118q-107 0 -187 -80q-22 -19 -22 -59v-408q0 -94 66 -153.5t150 -59.5q83 0 137 31t106.5 107.5t52.5 230.5q0 155 -83 273zM369 1319v-518q4 -4 16 -4q72 53 135.5 91t150.5 38t154.5 -34t116.5 -93.5t78 -141.5t29 -227t-133.5 -289.5
t-323.5 -144.5q-107 0 -201 24q-20 -10 -22 -12v-336q0 -94 6 -127.5t41 -38.5l102 -14q12 -2 12 -20t-4 -31q-12 0 -43.5 1t-66.5 2l-70 2t-40 1l-214 -6q-4 11 -4 29t12 20l62 10q35 6 41 42t6 130v1549q0 76 -6 102.5t-33 40.5l-57 31q-13 5 -13 16l2 21q135 32 187.5 67
t64.5 35t19 -6q-4 -106 -4 -209z" />
    <glyph glyph-name="ydieresis" unicode="&#xff;" horiz-adv-x="935" 
d="M424 1321q0 -41 -24.5 -66.5t-64.5 -25.5t-65.5 24.5t-25.5 65.5t24.5 67.5t64.5 26.5t65.5 -25.5t25.5 -66.5zM739 1321q0 -41 -24.5 -66.5t-64.5 -25.5t-65.5 24.5t-25.5 65.5t24.5 67.5t64.5 26.5t65.5 -25.5t25.5 -66.5zM743 889q76 0 181 6q4 -13 4 -30t-13 -19
q-36 -7 -59.5 -24t-85.5 -167l-432 -1061q-31 -79 -59 -121t-79 -42q-50 0 -76 26.5t-26 66.5t21.5 67.5t62.5 27.5l44 -7q44 -7 69 60l131 314q-10 49 -61 174l-199 495q-41 102 -65.5 141.5t-57.5 45.5l-23 4q-12 2 -12 19t4 30q12 0 37 -1t52.5 -2l55 -2t31.5 -1l215 6
q15 -45 -8 -49l-61 -10q-39 -6 -36 -39t40 -135l170 -463h6l148 381q6 18 29.5 82t23.5 104q0 59 -64 74l-28 6q-23 4 -9 49q53 -6 129 -6z" />
    <glyph glyph-name="dotlessi" unicode="&#x131;" horiz-adv-x="581" 
d="M371 725v-500q0 -94 6 -130t41 -42l61 -10q13 -2 13 -19t-5 -30l-49 2l-344 -2q-4 12 -4 30t12 19l62 10q35 6 41 42t6 130v469q0 35 -4 46.5t-21 21.5l-71 39q-13 5 -13 16l2 21q135 32 187.5 67t64.5 35t19 -6q-4 -106 -4 -209z" />
    <glyph glyph-name="Lslash" unicode="&#x141;" horiz-adv-x="1206" 
d="M334.5 1389q65.5 0 245.5 6q4 -12 4 -30.5t-13 -21.5l-82 -12q-41 -4 -53 -46t-12 -173v-332q6 -6 10 -6l414 238q20 -27 39 -74l-453 -258q-8 -8 -10 -18v-345q0 -148 29.5 -195.5t111.5 -47.5h158q157 0 206.5 16t73 41t41.5 66l33 73q6 16 28 12t34 -12
q-17 -42 -30 -104t-21.5 -97t-11.5 -51t-17 -22q-16 4 -37 4h-700q-50 0 -230 -6q-4 12 -4 30.5t12 20.5l74 12q41 8 50 45t9 174v279q-6 6 -10 6l-98 -57q-25 31 -41 74l139 77q8 8 10 19v438q0 137 -7 166t-19 39t-33 14l-74 12q-12 2 -12 20.5t4 31.5q177 -6 242.5 -6z
" />
    <glyph glyph-name="lslash" unicode="&#x142;" horiz-adv-x="559" 
d="M362 1319v-467q6 -6 11 -6l153 90q20 -24 33 -59l-186 -109q-8 -8 -11 -18v-525q0 -94 6.5 -130t41.5 -42l61 -10q12 -2 12 -19t-4 -30l-49 2l-344 -2q-4 12 -4 30t12 19l62 10q35 6 41 42t6 130v432q-6 6 -10 7l-121 -70q-20 24 -33 59l154 88q8 8 10 19v461
q0 76 -6.5 102.5t-32.5 40.5l-58 31q-12 5 -12 16l2 21q132 32 186 67t66 35t19 -6q-5 -133 -5 -209z" />
    <glyph glyph-name="OE" unicode="&#x152;" horiz-adv-x="2088" 
d="M1135 1071q0 152 -73 209t-216 57t-248.5 -48t-175.5 -132t-104.5 -198.5t-34.5 -247.5t38.5 -253t113.5 -210t184.5 -143.5t251 -53.5t203 61.5t61.5 202.5v756zM1788 713q0 -19 6 -187q-12 -4 -30 -4t-19 13l-8 73q-4 41 -46 57.5t-163 16.5h-193q-10 -6 -12 -14v-351
q0 -148 29.5 -195.5t111.5 -47.5h160q161 0 207.5 17.5t70 42t44.5 63.5l32 59q8 12 27 10t31 -10q-34 -85 -62 -246q-2 -8 -16 -14q-16 4 -37 4h-655q-117 0 -217.5 -13.5t-230.5 -13.5t-273.5 48.5t-312.5 194.5t-169 484q0 289 203 492q133 133 291 177t294 44t228 -12
t262 -12h244q244 0 264 4q16 -8 19 -15q4 -20 12 -79t31 -148q-44 -22 -56 2l-18 47q-27 72 -87 93.5t-214 21.5h-188q-25 -30 -25 -191v-354q2 -8 12 -14h193q121 0 163 16t46 55l8 62q2 12 19 12t30 -4q-6 -165 -6 -184z" />
    <glyph glyph-name="oe" unicode="&#x153;" horiz-adv-x="1685" 
d="M750.5 731.5q-78.5 134.5 -225.5 134.5t-209 -124t-62 -286t78 -297.5t226 -135.5t209.5 124t61.5 287t-78.5 297.5zM1113.5 810q-64.5 -56 -89.5 -153q2 -10 12 -14l400 6q10 11 12 21q0 96 -54 146t-135 50t-145.5 -56zM993 497q0 -71 25.5 -147t102 -171t237.5 -95
q61 0 121.5 33t95.5 78q12 -1 24 -11t13.5 -20t-13.5 -31q-126 -170 -339 -170t-326 191q-10 2 -21 0q-124 -191 -362 -191q-208 0 -346.5 132.5t-138.5 342.5t130.5 349t335.5 139q129 0 230.5 -53.5t161.5 -147.5q8 -2 14 0q59 94 145 147.5t185 53.5q147 0 242.5 -77
t109.5 -235q-3 -21 -16 -34h-592q-19 -12 -19 -83z" />
    <glyph glyph-name="Scaron" unicode="&#x160;" horiz-adv-x="1044" 
d="M860 1147q-18 0 -22 12q-63 203 -273 203q-106 0 -179 -62.5t-73 -156.5t47.5 -153.5t118 -107.5t152.5 -92.5t152.5 -99.5t117.5 -126.5t47 -221t-146.5 -264.5t-342.5 -115t-332 80q-6 4 -14 16q-17 195 -33 267q12 6 32 6t23 -15q73 -288 346 -288q121 0 200 67.5
t79 179.5t-44 175t-111.5 110t-144.5 88t-144.5 92.5t-111.5 124t-44 162.5q0 174 106.5 285.5t323.5 111.5q149 0 262 -34q12 -8 14 -17q5 -104 25 -221q-13 -6 -31 -6zM557.5 1448q-20.5 0 -35 17.5t-48.5 55.5t-74 81.5t-160 179.5q-4 16 7 24.5t23 5.5
q177 -131 277 -206q12 -6 22 0q170 128 275 206q12 2 23 -6t7 -24q-25 -27 -53 -59.5t-59 -66.5t-58.5 -65.5t-61.5 -68.5t-49 -55.5t-35.5 -18.5z" />
    <glyph glyph-name="scaron" unicode="&#x161;" horiz-adv-x="710" 
d="M349 1020q-30 0 -47.5 32t-37.5 76t-41.5 91t-44 96t-43 95t-35.5 79q4 16 15.5 21.5t23.5 -1.5q45 -59 97.5 -138t101.5 -150q10 -4 20 0q49 72 101.5 150.5t97.5 137.5q12 6 23.5 1t15.5 -21q-29 -69 -64.5 -146t-56 -124t-40.5 -89t-38 -76t-48 -34zM566 707
q-18 0 -19 12q-20 78 -64.5 109.5t-114.5 31.5t-106.5 -39t-36.5 -88t30 -87t74 -69.5t95 -62.5t125 -90.5t74 -167.5q0 -136 -93 -214.5t-233 -78.5q-49 0 -115.5 13.5t-107.5 37.5q0 18 -1 49l-2 62t-2 57.5t-1 38.5q8 4 23 4t20 -16q16 -74 61 -127t131 -53
q174 0 174 147q0 83 -71.5 133.5t-193.5 120.5t-122 234q0 106 82 184t208 78t208 -49l4 -166q-8 -4 -26 -4z" />
    <glyph glyph-name="Ydieresis" unicode="&#x178;" horiz-adv-x="1255" 
d="M608 1593q0 -41 -24.5 -66.5t-64.5 -25.5t-65.5 24.5t-25.5 65.5t24.5 68t64.5 27t65.5 -26t25.5 -67zM924 1593q0 -41 -25 -66.5t-65 -25.5t-65.5 24.5t-25.5 65.5t25 68t65 27t65.5 -26t25.5 -67zM1050 1389q103 0 191 6q4 -13 4 -31t-12 -21l-29 -4q-56 -8 -94.5 -45
t-124.5 -174l-229 -360q-23 -33 -29 -59.5t-6 -77.5v-347q0 -137 7 -165.5t19.5 -39t32.5 -14.5l74 -12q12 -2 12 -20.5t-4 -30.5q-177 6 -235 6t-238 -6q-4 12 -4 30.5t12 20.5l74 12q41 8 50 45t9 174v330q0 39 -6 60.5t-26 56.5l-244 395q-103 169 -134.5 189t-49.5 24
l-47 12q-12 2 -12.5 20.5t3.5 31.5q177 -6 223 -6t226 6q4 -12 4 -30.5t-14 -21.5l-37 -6q-37 -6 -37 -30q0 -23 29.5 -70t70.5 -117l197 -329h2l186 305q88 145 88 204q0 35 -32 39l-52 4q-12 -1 -12 19t4 33q87 -6 190 -6z" />
    <glyph glyph-name="Zcaron" unicode="&#x17d;" horiz-adv-x="1427" 
d="M700.5 1448q-20.5 0 -34.5 17.5t-48 55.5t-63 69.5t-59.5 65.5t-59 66.5t-53.5 59.5q-4 16 7 24.5t24 5.5q187 -138 276 -206q12 -6 23 0q70 53 136 103t138 103q12 2 23.5 -6t7.5 -24q-25 -27 -53.5 -59.5t-59.5 -66.5t-58 -65.5t-61 -68.5t-49.5 -55.5t-36 -18.5z
M1296 -4q-16 4 -73 4h-558q-501 0 -597 -6q-6 26 0 39q10 12 49.5 59t142.5 184l774 1035v4h-395q-249 0 -317 -25.5t-92.5 -57.5t-43.5 -81l-18 -47q-6 -14 -26 -14t-31 6q4 23 12 69.5t21 119t20 155.5q9 5 24 3q14 -1 18 -11q10 -29 21 -31q96 -12 138 -12h397l82 1h258
q176 1 209 3q6 -18 0 -39q-12 -14 -34 -41t-63 -77t-92 -122l-774 -1036v-4h512q220 0 285 26.5t97 59.5t63 84l26 45q8 12 27 10t31 -10q-18 -45 -35 -111.5t-27 -105t-13 -54.5t-18 -22z" />
    <glyph glyph-name="zcaron" unicode="&#x17e;" horiz-adv-x="878" 
d="M439 1020q-30 0 -47.5 32t-37.5 76t-41.5 91t-44 96t-43 95t-35.5 79q4 16 15.5 21.5t23.5 -1.5q45 -59 97.5 -138t101.5 -150q10 -4 21 0q49 72 101 150.5t97 137.5q12 6 23.5 1t15.5 -21q-29 -69 -64.5 -146t-56 -124t-40.5 -89t-38 -76t-48 -34zM580 827h-156
q-164 0 -203 -17t-54 -44t-30 -70q-5 -12 -21 -12t-24 4q8 53 18.5 124t18.5 124q7 2 23 2t19 -10q9 -31 31 -35t242 -4l355 6q6 -12 0 -27q-69 -99 -103 -155l-409 -647v-5h202q155 0 211.5 33t108.5 139q7 19 24 15t21 -6q-7 -49 -19.5 -116t-17.5 -116q-2 -6 -14 -14
q-20 4 -45 4h-89h-249l-352 -6q-4 14 2 29q71 101 102 153l408 647v4z" />
    <glyph glyph-name="florin" unicode="&#x192;" 
d="M1014 1179.5q0 -30.5 -29 -54t-57.5 -23.5t-44 21.5t-30.5 48.5t-35.5 45t-59.5 18q-80 0 -124 -64.5t-70.5 -168.5t-33.5 -324q2 -6 15 -14h289q14 -4 14 -7v-38q0 -35 -14 -39h-299q-10 -4 -13 -15q-50 -694 -217.5 -842.5t-296.5 -148.5t-137 72q-4 25 9.5 59.5
t41.5 34.5t46 -11.5t56.5 -36t80.5 -24.5q91 0 150.5 133.5t72 430t14.5 333.5q-2 6 -14 15h-203q-14 4 -14 7v37q0 35 14 40h211q12 3 15 41.5t9 88.5t36 147t124 229.5t322 132.5q58 0 97.5 -24t57 -46.5t17.5 -53z" />
    <glyph glyph-name="circumflex" unicode="&#x2c6;" 
d="M511 1509q30 0 48.5 -31.5t38.5 -74.5t40.5 -91t55 -122t66.5 -150q-4 -16 -15.5 -21t-23.5 1q-45 59 -97.5 138t-101.5 151q-10 6 -20 0q-49 -72 -101.5 -151t-97.5 -138q-12 -6 -23.5 -1t-15.5 21q32 76 79.5 178t74.5 163t45 94.5t48 33.5z" />
    <glyph glyph-name="caron" unicode="&#x2c7;" 
d="M513 1020q-30 0 -48.5 32t-37.5 76t-40.5 91t-44.5 96t-43 95t-35 79q4 16 15.5 21.5t23.5 -1.5q45 -59 97.5 -138t101.5 -150q10 -4 20 0q49 72 101.5 150.5t97.5 137.5q12 6 23.5 1t15.5 -21q-35 -81 -68 -152t-53.5 -118t-40.5 -89t-37.5 -76t-47.5 -34z" />
    <glyph glyph-name="breve" unicode="&#x2d8;" 
d="M512 1165q-84 0 -170.5 65.5t-93.5 242.5q6 12 19.5 15t23.5 -9q35 -113 92 -152t127 -39t130 39t93 152q10 12 23.5 9t19.5 -15q-7 -177 -93.5 -242.5t-170.5 -65.5z" />
    <glyph glyph-name="dotaccent" unicode="&#x2d9;" 
d="M614 1364q0 -45 -27.5 -74.5t-72.5 -29.5t-73.5 28.5t-28.5 73.5t27.5 75.5t72.5 30.5t73.5 -29.5t28.5 -74.5z" />
    <glyph glyph-name="ring" unicode="&#x2da;" 
d="M623 1221q0 107 -28.5 161t-86.5 54q-107 0 -107 -107.5t29.5 -161t85.5 -53.5q107 0 107 107zM723 1279q0 -91 -55.5 -151.5t-150.5 -60.5t-155.5 57.5t-60.5 148.5t55.5 150.5t150.5 59.5t155.5 -56.5t60.5 -147.5z" />
    <glyph glyph-name="ogonek" unicode="&#x2db;" 
d="M424 -180q0 -68 40 -108t106 -40t124 60q4 -4 8.5 -7.5t11.5 -10.5q16 -16 -20 -52q-91 -88 -177 -88q-85 0 -144.5 55.5t-59.5 140.5q0 145 179 281l28 -33q-96 -96 -96 -198z" />
    <glyph glyph-name="tilde" unicode="&#x2dc;" 
d="M281 1214q0 -46 -54 -47q-25 0 -37 25t-12 51q0 74 51.5 124t118.5 50t118.5 -24.5t96.5 -55t81 -55.5t66 -25t49 15.5t19 41.5t-16.5 38t-16.5 33t14.5 34t33.5 13q55 0 55 -75t-51.5 -125t-118.5 -50t-118.5 24.5t-96.5 55t-81 55t-66 24.5q-68 0 -68 -59
q0 -23 16.5 -34.5t16.5 -33.5z" />
    <glyph glyph-name="hungarumlaut" unicode="&#x2dd;" 
d="M523.5 1474q19.5 -17 19.5 -45t-50 -96q-50 -67 -126 -155t-136 -160q-32 -11 -36 22q16 31 40.5 76t50 93t49 93.5t49.5 91.5t44 71.5t47 25.5t48.5 -17zM810 1474q19 -17 19 -47t-41 -79q-59 -82 -134.5 -170t-135.5 -160q-12 -4 -23.5 1t-13.5 21q16 31 41 76t50.5 93
t49 93.5t49.5 91.5t44 71.5t47 25.5t48 -17z" />
    <glyph glyph-name="pi" unicode="&#x3c0;" horiz-adv-x="1099" 
d="M662 750h-191l-90 -588q-18 -123 -29 -144q-11 -22 -52 -22q-40 0 -58 6q88 278 164 748h-160q-86 0 -120 -28t-34 -63t18 -53t38 -32q22 -14 39 -28q40 -31 -7 -86q-25 -32 -58 -32t-66 49t-35 97q-2 95 44 171q46 77 97 111t131 33h588q73 0 105 18t69 76q7 2 21 -4
t14 -20q0 -15 -18 -51q-54 -107 -121 -138q-44 -20 -99 -20h-123q0 -387 34 -489q28 -91 95 -91q51 0 94 51q25 -8 25 -26t-48 -81q-91 -118 -159 -118q-110 0 -108 192v562z" />
    <glyph glyph-name="endash" unicode="&#x2013;" 
d="M1006 521q0 -40 -23 -50h-952q-12 4 -13 16q0 68 23 78h952q13 -4 13 -44z" />
    <glyph glyph-name="emdash" unicode="&#x2014;" horiz-adv-x="2048" 
d="M2030 521q0 -40 -23 -50h-1976q-12 4 -13 16q0 68 23 78h1976q13 -4 13 -44z" />
    <glyph glyph-name="quoteleft" unicode="&#x2018;" horiz-adv-x="512" 
d="M410 1011q0 -46 -36 -74t-98 -28t-110.5 57.5t-48.5 133.5q0 130 70 207.5t175 117.5q40 17 46 -30q-129 -50 -164 -108t-35 -93t19.5 -61.5t54.5 -26.5l41 2q39 0 62.5 -25.5t23.5 -71.5z" />
    <glyph glyph-name="quoteright" unicode="&#x2019;" horiz-adv-x="512" 
d="M102 1324q0 46 36 73.5t98 27.5t110.5 -57.5t48.5 -133.5q0 -130 -69 -206t-176 -119q-40 -17 -46 31q131 51 165 108.5t34 92.5t-19.5 61.5t-54.5 26.5l-41 -2q-39 0 -62.5 25.5t-23.5 71.5z" />
    <glyph glyph-name="quotesinglbase" unicode="&#x201a;" horiz-adv-x="512" 
d="M102 116q0 46 36 73.5t98 27.5t110.5 -57.5t48.5 -133.5q0 -131 -71 -208t-174 -117q-41 -17 -46 31q131 51 165 108.5t34 91.5t-19.5 61t-54.5 27l-41 -2q-39 0 -62.5 26t-23.5 72z" />
    <glyph glyph-name="quotedblleft" unicode="&#x201c;" horiz-adv-x="860" 
d="M410 1011q0 -46 -36 -74t-98 -28t-110.5 57.5t-48.5 133.5q0 130 70 207.5t175 117.5q40 17 46 -30q-129 -50 -164 -108t-35 -93t19.5 -61.5t54.5 -26.5l41 2q39 0 62.5 -25.5t23.5 -71.5zM758 1011q0 -46 -36 -74t-98 -28t-110.5 57.5t-48.5 133.5q0 230 246 325
q33 14 41 -10q4 -12 4 -20q-129 -50 -164 -108t-35 -93t19.5 -61.5t54.5 -26.5l41 2q39 0 62.5 -25.5t23.5 -71.5z" />
    <glyph glyph-name="quotedblright" unicode="&#x201d;" horiz-adv-x="860" 
d="M102 1324q0 46 36 73.5t98 27.5t110.5 -57.5t48.5 -133.5q0 -130 -69 -206t-176 -119q-40 -17 -46 31q131 51 165 108.5t34 92.5t-19.5 61.5t-54.5 26.5l-41 -2q-39 0 -62.5 25.5t-23.5 71.5zM451 1324q0 46 35.5 73.5t97.5 27.5t110.5 -57.5t48.5 -133.5
q0 -130 -69 -206t-176 -119q-33 -14 -41 11q-4 12 -4 20q130 50 164 108t34 93t-19.5 61.5t-53.5 26.5l-41 -2q-39 0 -62.5 25.5t-23.5 71.5z" />
    <glyph glyph-name="quotedblbase" unicode="&#x201e;" horiz-adv-x="860" 
d="M102 116q0 46 36 73.5t98 27.5t110.5 -57.5t48.5 -133.5q0 -131 -71 -208t-174 -117q-41 -17 -46 31q131 51 165 108.5t34 91.5t-19.5 61t-54.5 27l-41 -2q-39 0 -62.5 26t-23.5 72zM451 116q0 46 35.5 73.5t97.5 27.5t110.5 -57.5t48.5 -133.5q0 -131 -71 -208
t-174 -117q-33 -14 -41 10q-4 12 -4 21q130 50 164 108t34 92t-19.5 61t-53.5 27l-41 -2q-39 0 -62.5 26t-23.5 72z" />
    <glyph glyph-name="dagger" unicode="&#x2020;" 
d="M450 1479h70q62 0 68 -17l-31 -448q2 -6 14 -15l379 19q14 -4 14.5 -23.5t0.5 -22.5v-32q0 -29 -15 -33l-379 19q-10 -4 -14 -15l31 -1155q-5 -16 -14 -16h-70q-63 0 -68 16l31 1155q-2 6 -14 15l-379 -19q-14 4 -14.5 23.5t-0.5 21.5v32q0 30 15 34l379 -19q10 4 14 15
l-31 448q6 17 14 17z" />
    <glyph glyph-name="daggerdbl" unicode="&#x2021;" 
d="M450 1479h70q62 0 68 -17l-31 -489q2 -6 14 -15l379 19q14 -4 14.5 -23.5t0.5 -21.5v-32q0 -30 -15 -34l-375 19q-10 -4 -14 -15v-522q2 -6 14 -14l375 18q14 -4 14.5 -23.5t0.5 -22.5v-31q0 -29 -15 -33l-379 18q-10 -4 -14 -14l31 -490q-5 -16 -14 -16h-70
q-63 0 -68 16l31 490q-2 6 -14 14l-379 -18q-14 4 -14.5 23.5t-0.5 22.5v31q0 29 15 33l375 -18q10 4 14 14v522q-2 6 -14 15l-375 -19q-14 4 -14.5 23.5t-0.5 22.5v32q0 29 15 33l379 -19q10 4 14 15l-31 489q6 17 14 17z" />
    <glyph glyph-name="bullet" unicode="&#x2022;" 
d="M751 455q-93 -95 -237 -95t-240 94t-96 238.5t92.5 239t236.5 94.5t240.5 -93t96.5 -238t-93 -240z" />
    <glyph glyph-name="ellipsis" unicode="&#x2026;" horiz-adv-x="2048" 
d="M432 104.5q0 -53.5 -34 -89t-88 -35.5t-90 34.5t-36 88t34 89t88 35.5t90 -34.5t36 -88zM1149 104.5q0 -53.5 -34 -89t-88 -35.5t-90 34.5t-36 88t34 89t88 35.5t90 -34.5t36 -88zM1866 104.5q0 -53.5 -34 -89t-88 -35.5t-90 34.5t-36 88t34 89t88 35.5t90 -34.5t36 -88z
" />
    <glyph glyph-name="perthousand" unicode="&#x2030;" horiz-adv-x="2179" 
d="M2017 343q0 482 -171 482q-83 0 -117.5 -98t-34.5 -232q0 -235 45 -359t127 -124t116.5 98.5t34.5 232.5zM2159 414q0 -209 -81.5 -330t-225.5 -121t-222 125t-78 334t82 330.5t226 121.5t221.5 -125.5t77.5 -334.5zM485 773q0 482 -171 482q-83 0 -117.5 -98t-34.5 -232
q0 -235 45 -359t127 -124t116.5 98.5t34.5 232.5zM1329 343q0 482 -171 482q-83 0 -117.5 -98t-34.5 -232q0 -235 45 -359t127 -124t116.5 98.5t34.5 232.5zM627 846q0 -209 -82 -331t-226 -122t-221.5 126t-77.5 335t81 330t225 121t222.5 -125t78.5 -334zM344 -49
q-41 15 -59 39l862 1327q39 -14 59 -39zM1470 414q0 -209 -81 -330t-225 -121t-222 125t-78 334t82 330.5t226 121.5t221 -125.5t77 -334.5z" />
    <glyph glyph-name="guilsinglleft" unicode="&#x2039;" horiz-adv-x="512" 
d="M455 190q0 -16 -11.5 -22t-23.5 -2q-207 174 -361 346q-2 6 0 16q172 193 361 346q12 4 23.5 -2t11.5 -22q-60 -90 -100 -147.5t-69.5 -101.5t-52.5 -73q-2 -6 -1 -9t1 -7q23 -29 52.5 -73t88.5 -129t81 -120z" />
    <glyph glyph-name="guilsinglright" unicode="&#x203a;" horiz-adv-x="512" 
d="M279 528l-222 322q0 16 11.5 22.5t23.5 1.5q170 -143 249 -226t112 -120q2 -6 0 -16q-154 -172 -361 -346q-12 -4 -23.5 2t-11.5 22q22 35 81 120t89.5 129t51.5 73q2 6 1 9t-1 7z" />
    <glyph glyph-name="fraction" unicode="&#x2044;" horiz-adv-x="307" 
d="M-248 -49q-41 15 -59 39l862 1327q39 -14 59 -39z" />
    <glyph glyph-name="Euro" unicode="&#x20ac;" 
d="M920 1065q-18 0 -21 12q-50 168 -233 168q-123 0 -202 -101.5t-108 -266.5q2 -8 11 -13h456q10 -4 12.5 -10t2.5 -28.5t-2 -28.5t-13 -11h-467q-14 -6 -14 -14v-78q0 -82 6 -135q2 -8 12 -12h463q10 -4 12.5 -9.5t2.5 -28t-2 -29.5t-13 -11h-454q-2 -2 -7 -12
q51 -293 151.5 -362.5t188.5 -69.5q179 0 236 239q2 12 20 12t31 -4q-24 -139 -33 -223q-4 -4 -11 -18t-100 -41t-189 -27t-255 78t-227 416q-4 10 -10 12h-121q-10 4 -12 11t-2 29.5t2 28t12 9.5h111q6 2 8 10q-4 41 -4 95t10 124q-2 8 -8 10h-117q-10 4 -12 10.5t-2 29
t2 28.5t12 10h131q8 4 12 13q78 299 230.5 363.5t266.5 64.5t230 -33q12 -8 15 -17q3 -53 22 -184q-12 -6 -30 -6z" />
    <glyph glyph-name="trademark" unicode="&#x2122;" horiz-adv-x="2002" 
d="M766 1253q0 -13 4 -53q-6 -2 -24 -2t-19 12l-10 39q-12 50 -41.5 63t-132.5 13h-51q-11 -22 -11 -119v-463q0 -84 5.5 -111.5t33.5 -31.5l49 -8q11 -2 11 -20t-2 -21q-90 4 -171 4t-171 -4q-4 8 -4 23t10 18l51 8q29 4 35 31.5t6 111.5v463q0 95 -12 119h-52
q-104 0 -137 -13.5t-45 -62.5l-10 -39q-2 -12 -20 -12t-25 2q2 19 6 81t6 91t2 45q4 2 17 2q12 0 18 -14t14 -14q49 -7 162 -7h297q109 0 162 7q8 0 13 14q4 14 18 14t18 -2v-164zM1757 1389q61 0 115 4q4 -9 4 -25t-10 -16l-37 -4q-29 -4 -41 -32t-10 -106l12 -467
q2 -82 9 -110.5t36 -32.5l45 -8q12 -3 12 -18t-4 -23q-90 4 -170 4t-170 -4q-4 8 -4 23t10 18l52 8q29 4 34 31.5t2 111.5l-12 455h-2l-270 -651q-10 -4 -37 -4t-37 4l-291 645h-2l-4 -365q0 -140 11.5 -180t50.5 -47l47 -8q10 -2 10 -20t-2 -21q-82 4 -151 4t-150 -4
q-2 4 -2 21t10 20l41 8q33 6 42 52t13 173l13 381q4 135 -60 142l-39 4q-10 0 -10 16t4 25q66 -4 127 -4t119 4q4 -2 8 -3t8 -4q10 -25 22.5 -63.5t24.5 -62.5t28.5 -64.5t41.5 -96t53.5 -120t53 -120.5t41 -95t18.5 -43h2l211 518q39 98 57 147l12 7q54 -4 115 -4z" />
    <glyph glyph-name="Omega" unicode="&#x2126;" horiz-adv-x="1566" 
d="M1135 0q-109 0 -232 -6q-10 19 -6 39q84 71 155 141q232 227 232 547q0 106 -33 219q-70 241 -263 356q-99 60 -230 60q-241 1 -368 -178q-109 -156 -107 -379q0 -359 229 -610q72 -79 158 -156q4 -19 -6 -39q-123 6 -218 6h-205q-110 0 -130 -4q-12 8 -15 14
q-8 53 -24 116q-17 63 -27 110q5 2 23 5t24 -14q20 -39 55 -58t129 -19h177v4q-174 135 -244 228q-71 93 -109 182q-37 89 -37 210q-1 121 53 242t149 212q206 197 509 197q152 0 285 -53q268 -107 387 -357q57 -123 57 -243q0 -201 -133 -373q-82 -107 -260 -245v-4h180
q94 0 129 19t56 58q6 16 24 14t23 -5q-15 -68 -28 -117t-24 -109q-2 -6 -14 -14q-20 4 -97 4h-129h-95z" />
    <glyph glyph-name="partialdiff" unicode="&#x2202;" horiz-adv-x="1081" 
d="M687 59q138 105 138 385t-156 389q-55 37 -141 37q-153 -1 -225 -144q-53 -106 -53 -272t71 -286q86 -150 226 -150q86 0 140 41zM127 1552q8 0 25 -4q393 -54 634 -331q242 -276 234 -668q-4 -256 -127 -421t-340 -165t-354 132q-138 132 -138 342q0 209 130 349
t337 140q140 0 244 -88q8 0 16 8q-23 262 -234 447q-188 168 -460 216q0 43 33 43z" />
    <glyph glyph-name="Delta" unicode="&#x2206;" horiz-adv-x="1394" 
d="M258 154h768v4l-405 1022h-5l-358 -1022v-4zM891 0h-381q-300 0 -397 -6q-4 20 -4 39q33 73 92 237l344 947q16 43 16 58t-4 32q8 20 28.5 29.5t47.5 33.5t40 42t27 18t21 -5q24 -98 100 -280l365 -875q23 -51 52 -120.5t54 -116.5q0 -18 -4 -39q-99 6 -397 6z" />
    <glyph glyph-name="product" unicode="&#x220f;" horiz-adv-x="1650" 
d="M1327 1389q50 0 227 6q16 -47 -8 -52l-73 -12q-42 -8 -51 -43.5t-9 -173.5v-1370q0 -137 7 -166t19.5 -39t33.5 -14l73 -12q13 -2 13 -20.5t-5 -31.5q-207 7 -235 7t-238 -7q-4 12 -4 31t13 21l73 12q41 8 50.5 43.5t9.5 173.5v1382q0 161 -25 191h-745q-25 -30 -25 -191
v-1380q0 -137 7 -166t19.5 -39t32.5 -14l74 -12q12 -2 12 -20.5t-4 -31.5q-207 7 -235 7t-238 -7q-4 12 -4 31t12 21l74 12q41 8 50.5 43.5t9.5 173.5v1370q0 137 -7.5 166t-19.5 39t-33 14l-74 12q-12 2 -12 20.5t4 31.5q177 -6 228 -6h1003z" />
    <glyph glyph-name="summation" unicode="&#x2211;" horiz-adv-x="1427" 
d="M1296 -537q-20 5 -76 5h-548q-492 0 -604 -7q-6 26 0 39q12 14 36.5 41t53 60.5t60.5 69.5t58 69l562 653v6l-541 715q-51 72 -108 141.5t-80 98.5q-6 20 0 39q33 -2 49 -2h67l463 -2h222q223 0 313 12q12 2 18 22q5 19 21 19t24 -2q2 -23 9.5 -74t15.5 -107.5t17 -105.5
t13 -72q-12 -6 -31 -6t-26 15l-18 47q-20 55 -47 90t-94 61.5t-314 26.5h-416v-4l422 -572q80 -109 136.5 -173t66.5 -77q6 -15 0 -38q-106 -106 -199 -213l-506 -592v-4h568q256 0 310 19.5t77.5 49t50.5 78.5l25 45q8 12 26 10t31 -10q-20 -49 -53 -191.5t-36 -157.5
t-18 -22z" />
    <glyph glyph-name="minus" unicode="&#x2212;" 
d="M49 428v70h926v-70h-926z" />
    <glyph glyph-name="radical" unicode="&#x221a;" 
d="M66 1004v69h286l326 -969l461 1432h69l-495 -1536h-68l-346 1004h-233z" />
    <glyph glyph-name="infinity" unicode="&#x221e;" horiz-adv-x="1296" 
d="M180 637.5q-55 -73.5 -55 -172.5t55 -172.5t152 -73.5q140 0 203 97.5t90 144.5q-64 117 -129 183.5t-163 66.5t-153 -73.5zM1171 464.5q0 102.5 -54 174.5t-170 72t-175 -100.5t-84 -147.5q63 -118 119.5 -181t155.5 -63q100 0 154 71.5t54 174zM1161 242.5
q-74 -88.5 -215 -88.5q-142 0 -203 102t-86 152q-75 -127 -147 -190.5t-187 -63.5t-188.5 90t-73.5 221t73.5 221t199.5 90q154 0 224.5 -102.5t98.5 -151.5q65 127 129.5 190.5t165.5 63.5q135 0 209 -88.5t74 -222.5t-74 -222.5z" />
    <glyph glyph-name="integral" unicode="&#x222b;" horiz-adv-x="614" 
d="M852 1179.5q0 -30.5 -26.5 -54t-55.5 -23.5t-41.5 21.5t-28.5 48.5t-35.5 45t-56.5 18q-76 0 -117.5 -64.5t-62 -153.5t-26 -184t-9.5 -165t-13 -182.5t-72.5 -512t-411.5 -399.5q-121 0 -129 72q-4 25 8.5 59.5t38.5 34.5t44.5 -11.5t53.5 -36t76 -24.5q86 0 137 119
t68 383q10 145 15 290.5t17 264.5q25 245 136 411.5t327 166.5q55 0 93 -24t54.5 -46.5t16.5 -53z" />
    <glyph glyph-name="approxequal" unicode="&#x2248;" 
d="M272 258q-70 0 -122 -39t-101 -94v84q100 119 238 119q59 0 115.5 -21.5t112.5 -47.5t111.5 -47.5t125.5 -21.5t122 39t101 95v-84q-100 -119 -238 -119q-57 0 -114.5 21.5t-113.5 47t-111.5 47t-125.5 21.5zM272 729q-70 0 -122 -39t-101 -94v84q100 119 238 119
q59 0 115.5 -21.5t112.5 -47t111.5 -47t125.5 -21.5t122 38.5t101 94.5v-84q-100 -119 -238 -119q-57 0 -114.5 21.5t-113.5 47t-111.5 47t-125.5 21.5z" />
    <glyph glyph-name="notequal" unicode="&#x2260;" 
d="M49 182v70h273l294 422h-567v69h617l141 203l57 -41l-112 -162h223v-69h-273l-294 -422h567v-70h-617l-141 -202l-57 40l112 162h-223z" />
    <glyph glyph-name="lessequal" unicode="&#x2264;" 
d="M49 0v70h926v-70h-926zM49 510v70l926 340v-76l-842 -299l842 -299v-76z" />
    <glyph glyph-name="greaterequal" unicode="&#x2265;" 
d="M49 0v70h926v-70h-926zM49 170v76l842 299l-842 299v76l926 -340v-70z" />
    <glyph glyph-name="lozenge" unicode="&#x25ca;" 
d="M512 899l-418 -436l418 -436l418 436zM512 -61l-500 524l500 524l500 -524z" />
    <glyph glyph-name="ff" unicode="&#xfb00;" horiz-adv-x="1198" 
d="M405.5 1326.5q-55.5 -92.5 -55.5 -247.5v-176q2 -6 15 -14h383q10 6 12 14q0 210 65 363q4 12 -6 25t-31.5 37t-68 57.5t-152.5 33.5t-161.5 -92.5zM367 1389q124 124 283 124t249 -102q6 -2 14 0q38 50 118.5 95.5t166.5 45.5t145.5 -36t59.5 -80q0 -27 -30 -58.5
t-58 -31.5q-27 0 -40 12t-41 40q-62 62 -124 62q-110 0 -150 -101t-40 -220v-236q2 -6 14 -14h262q10 -4 12 -12.5t2 -46.5t-14 -44h-264q-10 -6 -12 -14v-547q0 -94 9 -128t44 -38l108 -14q23 -4 9 -51l-62 2l-393 -2q-4 12 -4 30t12 19l70 10q35 4 41 41t6 131v512
q0 35 -5 42t-16 7h-377q-10 -6 -12 -14v-545q0 -94 6 -132t41 -42l70 -10q12 -2 12 -19t-4 -30l-53 2l-356 -2q-15 45 8 49l69 10q35 4 41 41t6 131v512q0 35 -5 42t-15 7h-49q-25 0 -25 29q77 48 94 78q0 319 177 496z" />
    <glyph glyph-name="fi" unicode="&#xfb01;" horiz-adv-x="1134" 
d="M924 725v-500q0 -94 6 -130t41 -42l61 -10q12 -2 12 -19t-4 -30l-48 2l-345 -2q-4 12 -4 30t12 19l62 10q35 6 41 42t6 130v494q0 35 -3 51t-22 16h-377q-10 -6 -12 -14v-547q0 -94 6 -131t41 -41l70 -10q12 -2 12 -19t-4 -30l-53 2l-356 -2q-15 45 8 49l69 10
q35 4 41 41t6 131v512q0 35 -5 42t-15 7h-49q-25 0 -25 29q77 48 94 78q4 158 41 297t136 237q125 125 282 125t240 -84q37 -37 37 -63q0 -39 -30 -70.5t-59 -31.5q-28 0 -47.5 24.5t-45 53t-63 53t-101.5 24.5q-120 0 -175 -92.5t-55 -247.5v-215q2 -6 15 -14h262
q161 0 215.5 25.5t66.5 25.5t19 -6q-4 -106 -4 -209z" />
    <glyph glyph-name="fl" unicode="&#xfb02;" horiz-adv-x="1134" 
d="M559 1460q-209 0 -209 -321v-236q2 -6 15 -14h387q10 6 12 14v385q0 46 -10 69t-47 50q-73 53 -148 53zM924 1319v-1094q0 -94 6 -130t41 -42l61 -10q12 -2 12 -19t-4 -30l-48 2l-345 -2q-4 12 -4 30t12 19l62 10q35 6 41 42t6 130v547q-2 6 -14 14h-388q-10 -6 -12 -14
v-547q0 -94 6 -131t41 -41l70 -10q12 -2 12 -19t-4 -30l-53 2l-356 -2q-15 45 8 49l69 10q35 4 41 41t6 131v512q0 35 -5 42t-15 7h-49q-25 0 -25 29q77 48 94 78q0 368 179 547q113 113 274 112q101 0 169 -42q26 -16 40 -9q12 8 29.5 20.5t28.5 12.5t18 -6
q-4 -106 -4 -209z" />
    <glyph glyph-name="ffi" unicode="&#xfb03;" horiz-adv-x="1703" 
d="M405.5 1324.5q-55.5 -92.5 -55.5 -247.5v-174q2 -6 15 -14h383q10 6 12 14q0 208 65 361q4 12 -6 25t-31.5 37t-68 57.5t-152.5 33.5t-161.5 -92.5zM659 1511q63 0 129 -24.5t113 -77.5q6 -2 14 0l19 18q125 125 283 125t241 -84q37 -37 37 -63q0 -41 -30.5 -71.5
t-58.5 -30.5t-47.5 24.5t-45 53t-62.5 53t-101 24.5q-120 0 -175 -92t-55 -248v-215q2 -6 14 -14h262q161 0 215.5 25.5t66.5 25.5t19 -6q-4 -106 -4 -209v-500q0 -94 6 -130t41 -42l62 -10q12 -2 12 -19t-4 -30l-48 2l-345 -2q-15 45 8 49l61 10q35 6 41 42t6 130v494
q0 35 -3 51t-21 16h-377q-10 -6 -12 -14v-545q0 -94 6 -132t41 -42l69 -10q12 -2 12 -19t-4 -30l-52 2l-357 -2q-4 12 -4 30t12 19l70 10q35 4 41 41t6 131v512q0 35 -5 42t-16 7h-377q-10 -6 -12 -14v-547q0 -94 6 -131t41 -41l70 -10q12 -2 12 -19t-4 -30l-53 2l-356 -2
q-15 45 8 49l69 10q35 4 41 41t6 131v512q0 35 -5 42t-15 7h-49q-25 0 -25 29q77 48 94 78q0 318 177 493q125 125 292 125z" />
    <glyph glyph-name="ffl" unicode="&#xfb04;" horiz-adv-x="1703" 
d="M405.5 1326.5q-55.5 -92.5 -55.5 -247.5v-176q2 -6 15 -14h383q10 6 12 14q0 210 65 363q4 12 -6 25t-31.5 37t-68 57.5t-152.5 33.5t-161.5 -92.5zM1128 1460q-208 0 -208 -321v-236q0 -4 5 -7t9 -7h387q10 6 12 14v385q0 46 -10 68.5t-46 49.5q-72 54 -149 54z
M1493 1319v-1094q0 -94 6 -130t41 -42l62 -10q12 -2 12 -19t-4 -30l-48 2l-345 -2q-15 45 8 49l61 10q35 6 41 42t6 130v547q-2 6 -14 14h-387q-10 -6 -12 -14v-545q0 -94 6 -132t41 -42l69 -10q12 -2 12 -19t-4 -30l-52 2l-357 -2q-4 12 -4 30t12 19l70 10q35 4 41 41
t6 131v512q0 35 -5 42t-16 7h-377q-10 -6 -12 -14v-547q0 -94 6 -131t41 -41l70 -10q12 -2 12 -19t-4 -30l-53 2l-356 -2q-15 45 8 49l69 10q35 4 41 41t6 131v512q0 35 -5 42t-15 7h-49q-25 0 -25 29q77 48 94 78q0 319 177 496q124 124 283 124t249 -102q6 -2 14 0
q6 8 27 29q113 113 272 112q102 0 170 -42q26 -16 41 -8q50 32 59 32t15 -6q-4 -106 -4 -209z" />
    <glyph glyph-name="apple" 
 />
    <glyph glyph-name="oldcurrency" 
d="M844 462.5q0 67.5 -26.5 128t-72 105.5t-105.5 71t-128 26t-128 -26t-105.5 -71t-71 -105.5t-25.5 -128t25.5 -128t71 -105.5t105.5 -71.5t128 -26.5t128 26.5t105.5 71.5t72 105.5t26.5 128zM123 465.5q0 140.5 90 247.5l-125 125l49 49l125 -125q107 90 247.5 90
t252.5 -90l125 125l49 -49l-125 -125q92 -109 92 -250t-92 -250l125 -125l-49 -49l-125 125q-109 -92 -250 -92t-250 92l-125 -125l-49 49l125 125q-90 112 -90 252.5z" />
  </font>
</defs>
</svg>
