<?xml version="1.0" encoding="utf-8"?>
<!-- Generator: Adobe Illustrator 19.0.0, SVG Export Plug-In . SVG Version: 6.00 Build 0)  -->
<svg version="1.1" id="Layer_1" xmlns="http://www.w3.org/2000/svg" xmlns:xlink="http://www.w3.org/1999/xlink" x="0px" y="0px"
	 viewBox="0 0 682 84.1" enable-background="new 0 0 682 84.1" xml:space="preserve">
<g id="XMLID_2_">
	<g id="XMLID_305_">
		<path fill="white" id="XMLID_306_" d="M32.1,58.7c-0.7,0.2-1.6,0.4-2.6,0.4c-4.3,0-7.8-2.1-10.4-6.3c-2.6-4.2-3.9-9.8-3.9-17
			c0-7.4,1.3-13.3,4-17.6c2.6-4.3,6.2-6.4,10.8-6.4c1,0,1.7,0.1,2.3,0.3c0.6,0.2,1.1,0.5,1.7,0.9L44,20.9V9.7
			c-2.2-0.6-4.4-1-6.5-1.3c-2.1-0.3-4.1-0.4-6-0.4c-8.6,0-15.3,2.6-20.1,7.7C6.5,20.8,4,27.8,4,36.8c0,8.5,2.2,15.1,6.5,19.5
			c4.3,4.5,10.7,6.7,18.9,6.7c1.6,0,3.6-0.1,5.9-0.4c2.3-0.3,4.9-0.7,7.9-1.3l1.5-11.7l-10.2,7.6C33.6,58,32.8,58.5,32.1,58.7z
			 M76.9,23.9c-1.3,0-2.7,0.4-4.1,1.3c-1.4,0.8-3.5,2.6-6.2,5.2v-6.8l-12.7,3.2c1,1.8,1.8,3.6,2.3,5.4c0.5,1.8,0.7,3.7,0.7,5.8v12.3
			c0,2.6-0.2,4.7-0.7,6.4c-0.5,1.7-1.2,3.4-2.3,5.2h15.7c-1-1.7-1.8-3.4-2.3-5.1c-0.5-1.7-0.7-3.8-0.7-6.5v-19
			c0.2,0,0.5-0.1,0.9-0.1c1.6-0.2,2.7-0.2,3.3-0.2c1.6,0,3.1,0.3,4.5,0.9c1.4,0.6,3.1,1.7,5.1,3.4V24.9c-0.6-0.3-1.1-0.5-1.7-0.7
			C78,24,77.5,23.9,76.9,23.9z M116.4,27.8c0.3,0.7,0.5,1.4,0.5,1.8c0,0.3,0,0.7-0.1,1.1c-0.1,0.5-0.3,1.1-0.5,1.9l-6.2,19.9
			l-7.7-20.6c-0.2-0.6-0.3-1-0.4-1.5c-0.1-0.4-0.2-0.8-0.2-1c0-0.6,0.2-1.3,0.6-2.1c0.4-0.8,1-1.7,1.9-3H86.6
			c2.5,2.6,4.4,5.4,5.5,8.3c0.1,0.2,0.1,0.3,0.1,0.3l12.7,30.1c-1.8,4.3-3.1,7.1-4.1,8.5c-1,1.4-2.1,2.1-3.2,2.1
			c-0.4,0-0.9-0.1-1.4-0.4c-0.5-0.3-1.1-0.6-1.8-1.2l-5.1-3.9v9.5c1.2,0.2,2.3,0.4,3.3,0.5c1,0.1,1.8,0.2,2.6,0.2
			c3.2,0,5.8-0.9,7.8-2.8c2-1.9,4.1-6,6.5-12.2l11.1-28.8c0.9-2.4,1.9-4.3,2.8-5.9c1-1.6,2.1-3,3.4-4.3h-12.2
			C115.5,25.9,116.1,27,116.4,27.8z M151.8,40.5l-5.5-3c-1.7-0.9-2.8-1.8-3.5-2.7c-0.7-0.9-1-1.8-1-2.9c0-1.2,0.4-2.3,1.3-3.1
			c0.9-0.8,2-1.2,3.3-1.2c1.2,0,4.2,1.7,8.8,5.2c1.1,0.8,2,1.4,2.6,1.9v-9.2c-1.7-0.5-3.5-0.9-5.3-1.1c-1.8-0.3-3.6-0.4-5.3-0.4
			c-4.5,0-8,1-10.5,3c-2.5,2-3.7,4.7-3.7,8.3c0,2.1,0.5,4,1.6,5.6c1.1,1.6,2.8,3.1,5.1,4.5l5.6,3.4c0.1,0.1,0.2,0.1,0.4,0.2
			c3.1,1.9,4.6,3.7,4.6,5.6c0,1.3-0.5,2.5-1.4,3.4c-0.9,0.9-2.1,1.4-3.5,1.4c-1.8,0-5.3-2-10.4-6c-1-0.8-1.7-1.4-2.2-1.8v9.3
			c1.9,0.7,3.9,1.2,6,1.6c2,0.4,4,0.5,6,0.5c4.4,0,8-1.1,10.7-3.3c2.7-2.2,4-5.1,4-8.7c0-2.2-0.6-4.2-1.7-5.8
			C156.4,43.6,154.5,42,151.8,40.5z M190,57.2c-3.1,0-5.2-0.5-6.3-1.6c-1.1-1.1-1.7-3.2-1.7-6.3V28.4h12.1v-3.9H182V13.6
			c-3.1,3.5-5.8,6.5-8.4,8.8c-2.5,2.4-5,4.4-7.4,6h6.2v23.4c0,4,0.7,6.9,2.1,8.4c1.4,1.6,3.9,2.3,7.3,2.3c2.8,0,5.4-0.5,7.8-1.5
			c2.5-1,4.5-2.3,6.1-4.1c-1,0.1-1.9,0.2-2.9,0.2C192,57.2,191,57.2,190,57.2z M233.4,49.7V33.9c0-1.9-0.1-3.2-0.3-4.1
			c-0.2-0.9-0.5-1.6-1-2.2c-1.1-1.3-2.5-2.2-4.4-2.8c-1.9-0.6-4.3-0.9-7.3-0.9c-2.3,0-4.7,0.2-7,0.5c-2.4,0.4-4.7,0.9-7.1,1.6v10.3
			c0.4-0.4,0.9-0.9,1.6-1.5c4.9-4.7,8.4-7.1,10.4-7.1c2.1,0,3.6,0.5,4.5,1.6c0.9,1.1,1.3,3,1.3,5.7v5.9c-0.1,0-0.2,0-0.4,0
			c-1.7-0.1-3-0.2-3.8-0.2c-5.7,0-10,0.9-12.7,2.7c-2.7,1.8-4.1,4.5-4.1,8.2c0,3.1,1,5.7,2.9,7.7c1.9,2.1,4.4,3.1,7.3,3.1
			c1.3,0,2.9-0.4,4.8-1.3c1.9-0.9,3.9-2.1,6-3.7c0.2,1,0.4,1.9,0.7,2.7c0.3,0.8,0.7,1.6,1.1,2.2l10.4-2.2c-1-1.5-1.8-3.1-2.2-4.6
			C233.7,54.1,233.4,52.1,233.4,49.7z M224.1,56.6c-0.6,0.1-1.3,0.2-2,0.3c-0.7,0.1-1.6,0.1-2.5,0.1c-2.3,0-4.1-0.6-5.4-1.7
			c-1.3-1.1-1.9-2.7-1.9-4.7c0-2.3,0.9-4,2.7-5.1c1.8-1.1,4.8-1.9,9.1-2.2V56.6z M259.2,50.2V4.6l-13.3,3.2c1.3,1.8,2.3,3.6,2.8,5.3
			c0.6,1.7,0.8,3.6,0.8,5.9v31.2c0,2.6-0.2,4.7-0.7,6.4c-0.5,1.7-1.2,3.4-2.3,5.2h15.7c-1-1.7-1.8-3.4-2.3-5.1
			C259.4,55,259.2,52.9,259.2,50.2z M286.2,50.2V4.6l-13.3,3.2c1.3,1.8,2.3,3.6,2.8,5.3c0.6,1.7,0.8,3.6,0.8,5.9v31.2
			c0,2.6-0.2,4.7-0.7,6.4c-0.5,1.7-1.2,3.4-2.3,5.2h15.7c-1-1.7-1.8-3.4-2.3-5.1C286.5,55,286.2,52.9,286.2,50.2z M308.8,16.3
			c2,0,3.5-0.4,4.4-1.1c1-0.7,1.4-1.9,1.4-3.4c0-1.6-0.5-2.7-1.4-3.5c-1-0.7-2.4-1.1-4.4-1.1c-2,0-3.5,0.4-4.5,1.1
			c-1,0.7-1.4,1.9-1.4,3.5c0,1.6,0.5,2.7,1.4,3.5C305.2,15.9,306.7,16.3,308.8,16.3z M313.8,50.2V23.6l-12.7,3.2
			c1.1,1.8,1.8,3.6,2.3,5.4c0.5,1.8,0.7,3.7,0.7,5.8v12.3c0,2.6-0.2,4.7-0.7,6.4c-0.5,1.7-1.2,3.4-2.3,5.2h15.7
			c-1-1.7-1.8-3.4-2.2-5.1C314,55,313.8,52.9,313.8,50.2z M329.6,24.4v10.5l7.5-5.6c0.6-0.4,1.2-0.7,1.7-0.9
			c0.6-0.2,1.1-0.3,1.6-0.3h5.8l-20,33.8h32.8v-11l-7.9,6.3c-0.4,0.4-0.9,0.6-1.4,0.8c-0.5,0.2-1,0.3-1.7,0.3h-8.4l20.1-33.8H329.6z
			 M394.1,57.3c-5,0-8.8-1.3-11.4-3.8c-2.6-2.6-3.9-6.3-3.9-11.3v-0.6h23.8v-0.4c0-5.3-1.3-9.5-4-12.6c-2.7-3.1-6.4-4.6-11.1-4.6
			c-5.5,0-9.9,1.9-13.4,5.6c-3.5,3.7-5.2,8.5-5.2,14.4c0,5.8,1.7,10.4,5,13.8c3.3,3.4,7.7,5.2,13.2,5.2c2.9,0,5.7-0.5,8.3-1.6
			c2.6-1.1,5.1-2.7,7.4-4.8c-1.9,0.3-3.5,0.5-5,0.7C396.5,57.2,395.2,57.3,394.1,57.3z M380.8,30.4c1.2-2.2,3-3.3,5.3-3.3
			c1.9,0,3.5,1,4.5,2.9c1.1,1.9,1.6,4.6,1.6,8.1l-13.4,1.9C378.9,35.8,379.6,32.6,380.8,30.4z M447.8,49V4.7l-13.1,3
			c0.1,0.1,0.1,0.3,0.3,0.5c2.1,3.9,3.2,7.2,3.2,10v8.2c-1.4-0.8-2.7-1.5-4.1-1.9c-1.4-0.4-2.8-0.6-4.3-0.6c-4.9,0-9,2-12.3,6
			c-3.3,4-5,8.9-5,14.8c0,5.2,1.3,9.4,4,12.8c2.7,3.4,6,5,10,5c1.4,0,3.1-0.4,4.9-1.2c1.8-0.8,4.1-2.1,7-4v5.4l12.5-2.9
			c-1-1.8-1.7-3.5-2.2-5.1C448,53,447.8,51.2,447.8,49z M438.2,56.5c-0.8,0.2-1.6,0.3-2.2,0.4c-0.7,0.1-1.3,0.1-1.9,0.1
			c-3.7,0-6.6-1.2-8.7-3.7c-2.1-2.5-3.1-6-3.1-10.5c0-4.4,1-7.9,3.1-10.6c2.1-2.7,4.8-4,8.2-4c0.8,0,1.6,0.1,2.4,0.3
			c0.8,0.2,1.5,0.4,2.2,0.8V56.5z M510,32.7l-7.1-4.4c-3.2-2-5.2-3.5-6.1-4.7c-0.9-1.1-1.3-2.5-1.3-4c0-2.3,0.8-4.1,2.4-5.6
			c1.6-1.4,3.7-2.1,6.4-2.1c1,0,1.8,0.1,2.6,0.4c0.7,0.3,1.6,0.7,2.5,1.5l8.4,6.7V9.4c-2.1-0.5-4.1-0.8-6.1-1
			c-2-0.2-3.9-0.3-5.8-0.3c-6,0-10.5,1.3-13.7,3.8c-3.2,2.5-4.8,6.1-4.8,10.8c0,3,0.7,5.5,2,7.7c1.3,2.2,3.6,4.3,6.8,6.4l7.8,5.1
			c2.6,1.7,4.3,3.2,5.2,4.5c0.9,1.3,1.4,2.7,1.4,4.3c0,2.4-0.8,4.3-2.5,5.8c-1.6,1.5-3.8,2.2-6.5,2.2c-1.6,0-2.8-0.1-3.6-0.4
			c-0.8-0.3-1.6-0.8-2.4-1.6l-9.2-8.6V60c2.7,0.8,5.1,1.4,7.4,1.8c2.3,0.4,4.5,0.6,6.7,0.6c6.2,0,10.9-1.3,14.1-3.9
			c3.2-2.6,4.9-6.4,4.9-11.4c0-3.1-0.7-5.7-2.1-7.8C516.1,37,513.6,34.8,510,32.7z M562.1,53.7l-10.4-15.7l7.4-6.5
			c0.1-0.1,0.2-0.2,0.5-0.4c2.8-2.5,6.1-4.7,9.8-6.7h-15.4c0.5,0.7,0.9,1.3,1.1,1.8c0.2,0.4,0.3,0.8,0.3,1.1c0,0.4-0.1,0.8-0.3,1.3
			c-0.2,0.5-0.5,0.9-0.9,1.4l-10.7,12.2l12.3,19.6h13.9c-1.4-0.9-2.7-1.9-3.9-3.1C564.7,57.5,563.5,55.9,562.1,53.7z M542.8,50.7
			v-46l-13.4,3.2c1.3,1.8,2.2,3.6,2.8,5.3c0.6,1.7,0.8,3.6,0.8,5.9v31.2c0,2.7-0.2,4.9-0.7,6.5c-0.5,1.7-1.2,3.4-2.2,5.1h15.6
			c-1-1.7-1.8-3.4-2.2-5C543,55.2,542.8,53.1,542.8,50.7z M584.2,16.3c2,0,3.5-0.4,4.4-1.1c1-0.7,1.4-1.9,1.4-3.4
			c0-1.6-0.5-2.7-1.4-3.5c-1-0.7-2.4-1.1-4.4-1.1c-2,0-3.5,0.4-4.5,1.1c-1,0.7-1.4,1.9-1.4,3.5c0,1.6,0.5,2.7,1.4,3.5
			C580.7,15.9,582.2,16.3,584.2,16.3z M589.2,50.2V23.6l-12.7,3.2c1.1,1.8,1.8,3.6,2.3,5.4c0.5,1.8,0.7,3.7,0.7,5.8v12.3
			c0,2.6-0.2,4.7-0.7,6.4c-0.5,1.7-1.2,3.4-2.3,5.2h15.7c-1-1.7-1.8-3.4-2.2-5.1C589.5,55,589.2,52.9,589.2,50.2z M638.3,50.7V37.6
			c0-4.6-0.8-8.1-2.3-10.3c-1.5-2.2-3.8-3.4-7-3.4c-1.5,0-3.3,0.4-5.5,1.2c-2.1,0.8-4.9,2.1-8.2,4v-5.5l-12.7,3.2
			c1,1.8,1.8,3.6,2.2,5.4c0.5,1.8,0.7,3.7,0.7,5.8v12.3c0,2.6-0.2,4.7-0.7,6.4c-0.5,1.7-1.2,3.4-2.2,5.2h15.7
			c-1-1.7-1.8-3.4-2.3-5.1c-0.5-1.7-0.7-3.8-0.7-6.5V29.9c0.7-0.2,1.4-0.3,2.1-0.3c0.6-0.1,1.2-0.1,1.9-0.1c3.6,0,6,0.7,7.3,2.2
			c1.3,1.5,1.9,4.6,1.9,9.3v9.1c0,2.7-0.2,4.9-0.7,6.5c-0.5,1.7-1.2,3.4-2.2,5.1h15.6c-1-1.7-1.8-3.4-2.2-5
			C638.5,55.2,638.3,53.1,638.3,50.7z M676.5,45.2c-1.2-1.6-3.1-3.2-5.8-4.7l-5.5-3c-1.7-0.9-2.8-1.8-3.5-2.7c-0.7-0.9-1-1.8-1-2.9
			c0-1.2,0.4-2.3,1.3-3.1c0.9-0.8,2-1.2,3.3-1.2c1.2,0,4.2,1.7,8.8,5.2c1.1,0.8,2,1.4,2.6,1.9v-9.2c-1.7-0.5-3.5-0.9-5.3-1.1
			c-1.8-0.3-3.6-0.4-5.3-0.4c-4.5,0-8,1-10.5,3c-2.5,2-3.7,4.7-3.7,8.3c0,2.1,0.5,4,1.6,5.6c1.1,1.6,2.8,3.1,5.1,4.5l5.6,3.4
			c0.1,0.1,0.2,0.1,0.4,0.2c3.1,1.9,4.6,3.7,4.6,5.6c0,1.3-0.5,2.5-1.4,3.4c-0.9,0.9-2.1,1.4-3.5,1.4c-1.8,0-5.3-2-10.4-6
			c-1-0.8-1.7-1.4-2.2-1.8v9.3c1.9,0.7,3.9,1.2,6,1.6c2,0.4,4,0.5,6,0.5c4.4,0,8-1.1,10.7-3.3c2.7-2.2,4-5.1,4-8.7
			C678.2,48.8,677.6,46.8,676.5,45.2z"/>
	</g>
</g>
</svg>
