<?xml version="1.0" encoding="utf-8"?>
<!-- Generator: Adobe Illustrator 19.0.1, SVG Export Plug-In . SVG Version: 6.00 Build 0)  -->
<!DOCTYPE svg PUBLIC "-//W3C//DTD SVG 1.1//EN" "http://www.w3.org/Graphics/SVG/1.1/DTD/svg11.dtd">
<svg version="1.1" xmlns="http://www.w3.org/2000/svg" xmlns:xlink="http://www.w3.org/1999/xlink" x="0px" y="0px"
	 viewBox="0 0 20 20" style="enable-background:new 0 0 20 20;" xml:space="preserve">
<style type="text/css">
	.st0{fill:#FF4F4F;}
</style>
<g id="Layer_1">
	<path class="st0" d="M13.8,14.5c-0.4,0.2-0.8,0-1-0.4c-0.2-0.4,0-0.8,0.4-1c0.2-0.1,0.4-0.2,0.5-0.3c0.2-0.1,0.3-0.2,0.5-0.4
		c0.1-0.1,0.3-0.3,0.4-0.5c0.1-0.2,0.2-0.4,0.3-0.5c0.1-0.2,0.1-0.4,0.2-0.6c0-0.2,0.1-0.4,0.1-0.6c0-0.2,0-0.4-0.1-0.6
		c0-0.2-0.1-0.4-0.2-0.6c-0.1-0.2-0.2-0.4-0.3-0.5c-0.1-0.2-0.2-0.3-0.4-0.5c-0.3-0.3-0.6-0.5-1-0.7c-0.4-0.2-0.6-0.6-0.4-1
		c0.2-0.4,0.6-0.6,1-0.4c0.6,0.2,1.1,0.6,1.5,1c0.2,0.2,0.4,0.4,0.6,0.7C16,7.7,16.1,8,16.3,8.3c0.1,0.3,0.2,0.6,0.3,0.9
		c0.1,0.3,0.1,0.6,0.1,0.9s0,0.6-0.1,0.9c-0.1,0.3-0.2,0.6-0.3,0.9c-0.1,0.3-0.3,0.6-0.4,0.8c-0.2,0.3-0.4,0.5-0.6,0.7
		c-0.2,0.2-0.4,0.4-0.7,0.6C14.3,14.2,14,14.3,13.8,14.5z"/>
	<path class="st0" d="M15.1,17c-0.4,0.2-0.8,0-1-0.4c-0.2-0.4,0-0.8,0.4-1c0.3-0.1,0.7-0.3,1-0.5c0.3-0.2,0.6-0.5,0.9-0.7
		c0.3-0.3,0.5-0.6,0.7-0.9c0.2-0.3,0.4-0.7,0.5-1c0.2-0.4,0.3-0.7,0.4-1.1c0.1-0.4,0.1-0.8,0.1-1.2s0-0.8-0.1-1.2
		c-0.1-0.4-0.2-0.8-0.4-1.1c-0.1-0.3-0.3-0.7-0.5-1c-0.2-0.3-0.5-0.6-0.7-0.9c-0.3-0.3-0.6-0.5-0.9-0.7c-0.3-0.2-0.7-0.4-1-0.5
		c-0.4-0.2-0.6-0.6-0.4-1c0.2-0.4,0.6-0.6,1-0.4c0.5,0.2,0.9,0.4,1.3,0.7c0.4,0.3,0.8,0.6,1.1,0.9c0.3,0.3,0.6,0.7,0.9,1.1
		c0.3,0.4,0.5,0.8,0.7,1.3c0.2,0.5,0.3,0.9,0.4,1.4c0.1,0.5,0.2,1,0.2,1.5c0,0.5-0.1,1-0.2,1.5c-0.1,0.5-0.2,1-0.4,1.4
		c-0.2,0.5-0.4,0.9-0.7,1.3c-0.3,0.4-0.6,0.8-0.9,1.1c-0.3,0.3-0.7,0.6-1.1,0.9C16,16.6,15.6,16.8,15.1,17z"/>
	<path class="st0" d="M9.2,3c-1.5,1.1-3,2.3-4.5,3.4h-3C1,6.4,0.4,7,0.4,7.7v4.9C0.4,13.4,1,14,1.7,14h3c1.5,1.1,3,2.3,4.5,3.4
		c0.7,0.5,1.5,0.4,1.5-0.5c0-4.5,0-9,0-13.5C10.7,2.5,9.9,2.5,9.2,3z"/>
</g>
<g id="Layer_2">
</g>
</svg>
