<?xml version="1.0" encoding="utf-8"?>
<!-- Generator: Adobe Illustrator 19.0.1, SVG Export Plug-In . SVG Version: 6.00 Build 0)  -->
<!DOCTYPE svg PUBLIC "-//W3C//DTD SVG 1.1//EN" "http://www.w3.org/Graphics/SVG/1.1/DTD/svg11.dtd">
<svg version="1.1" id="Layer_1" xmlns="http://www.w3.org/2000/svg" xmlns:xlink="http://www.w3.org/1999/xlink" x="0px" y="0px"
	 viewBox="0 0 20 20" style="enable-background:new 0 0 20 20;" xml:space="preserve">
<style type="text/css">
	.st0{fill:#604FFF;}
</style>
<path class="st0" d="M14.5,11.9c0.1-0.2,0.2-0.4,0.3-0.5c0.1-0.2,0.1-0.4,0.2-0.6c0-0.2,0.1-0.4,0.1-0.6c0-0.2,0-0.4-0.1-0.6
	c0-0.2-0.1-0.4-0.2-0.6c-0.1-0.2-0.2-0.4-0.3-0.5c-0.1-0.2-0.2-0.3-0.4-0.5c-0.3-0.3-0.6-0.5-1-0.7c-0.4-0.2-0.6-0.6-0.4-1
	c0.2-0.4,0.6-0.6,1-0.4c0.6,0.2,1.1,0.6,1.5,1c0.2,0.2,0.4,0.4,0.6,0.7c0.2,0.2,0.3,0.5,0.4,0.8c0.1,0.3,0.2,0.6,0.3,0.9
	c0.1,0.3,0.1,0.6,0.1,0.9c0,0.3,0,0.6-0.1,0.9c-0.1,0.3-0.2,0.6-0.3,0.9c-0.1,0.3-0.3,0.6-0.4,0.8c0,0.1-0.1,0.1-0.1,0.2
	c-0.2,0.2-0.2,0.1-0.4-0.1c-0.2-0.2-0.4-0.4-0.6-0.6C14.4,12.2,14.3,12.1,14.5,11.9z"/>
<path class="st0" d="M16.6,14.1c0.2-0.2,0.3-0.4,0.4-0.6c0.2-0.3,0.4-0.7,0.5-1c0.2-0.4,0.3-0.7,0.3-1.1c0.1-0.4,0.1-0.8,0.1-1.2
	S18,9.4,18,9c-0.1-0.4-0.2-0.8-0.3-1.1c-0.1-0.3-0.3-0.7-0.5-1c-0.2-0.3-0.5-0.6-0.7-0.9c-0.3-0.3-0.6-0.5-0.9-0.7
	c-0.3-0.2-0.7-0.4-1-0.5c-0.4-0.2-0.6-0.6-0.4-1s0.6-0.6,1-0.4c0.5,0.2,0.9,0.4,1.3,0.7c0.4,0.3,0.8,0.6,1.1,0.9
	c0.3,0.3,0.6,0.7,0.9,1.1c0.3,0.4,0.5,0.8,0.7,1.3c0.2,0.5,0.3,0.9,0.4,1.4c0.1,0.5,0.2,1,0.2,1.5c0,0.5-0.1,1-0.2,1.5
	c-0.1,0.5-0.2,1-0.4,1.4c-0.2,0.5-0.4,0.9-0.7,1.3c-0.2,0.3-0.4,0.6-0.6,0.8c-0.2,0.2-0.2,0.1-0.4,0c-0.2-0.2-0.4-0.4-0.7-0.7
	C16.5,14.2,16.5,14.3,16.6,14.1z"/>
<path class="st0" d="M3.5,6.5H1.7C1,6.5,0.4,7.1,0.4,7.8v4.9C0.4,13.4,1,14,1.7,14h2.9c1.5,1.1,3,2.3,4.5,3.4
	c0.7,0.5,1.5,0.4,1.5-0.5c0-1.1,0-2.1,0-3.1c0-0.4-0.1-0.5-0.3-0.8c-2.1-2.1-4.2-4.2-6.4-6.4C3.8,6.5,3.7,6.5,3.5,6.5z"/>
<path class="st0" d="M1.8,2.1L1.8,2.1c0.5-0.5,1.2-0.5,1.7,0l14.6,14.6c0.5,0.5,0.5,1.2,0,1.7l0,0c-0.5,0.5-1.2,0.5-1.7,0L1.8,3.7
	C1.4,3.3,1.4,2.5,1.8,2.1z"/>
<path class="st0" d="M9.2,3.1C8.5,3.5,7.9,4,7.3,4.5C6.9,4.7,7.1,4.9,7.4,5.2c1,1,2,2,2.9,2.9c0.2,0.2,0.3,0.2,0.3,0V3.5
	C10.6,2.6,9.8,2.5,9.2,3.1z"/>
</svg>
