<?xml version="1.0" encoding="utf-8"?>
<!-- Generator: Adobe Illustrator 19.0.1, SVG Export Plug-In . SVG Version: 6.00 Build 0)  -->
<!DOCTYPE svg PUBLIC "-//W3C//DTD SVG 1.1//EN" "http://www.w3.org/Graphics/SVG/1.1/DTD/svg11.dtd">
<svg version="1.1" id="Layer_1" xmlns="http://www.w3.org/2000/svg" xmlns:xlink="http://www.w3.org/1999/xlink" x="0px" y="0px"
	 viewBox="-471 272 17 17" style="enable-background:new -471 272 17 17;" xml:space="preserve">
<style type="text/css">
	.st0{fill:#FFFFFF;}
</style>
<path class="st0" d="M-454.4,276.3c-0.5,0.3-1.1,0.4-1.7,0.6c-0.6-0.9-1.6-1.6-2.7-1.8c-0.2,0-0.4-0.1-0.6-0.1
	c-1.9,0-3.5,1.4-3.8,3.2c0,0.2-0.1,0.4-0.1,0.6c-2.2-0.8-4-2.4-5-4.5c-0.1-0.1-0.2-0.2-0.3-0.2c-0.1,0-0.2,0.1-0.3,0.1
	c-0.6,1-0.8,2.1-0.5,3.2c-0.1,0-0.1,0-0.1,0c-0.1,0-0.2,0.1-0.3,0.3c-0.3,1.2,0,2.4,0.7,3.3c-0.1,0-0.1,0-0.2,0.1
	c-0.1,0.1-0.1,0.2-0.1,0.3c0.3,1.2,1.2,2.2,2.3,2.6c-1.2,0.4-2.4,0.6-3.6,0.5c-0.1,0-0.3,0.1-0.3,0.2c0,0.1,0,0.3,0.1,0.4
	c1.3,0.9,2.7,1.6,4.3,1.8c0.5,0.1,1,0.1,1.5,0.1c4.3,0,8.1-2.9,9.2-7c0.1-0.2,0.1-0.5,0.2-0.7c0-0.1,0-0.1,0-0.2
	c0-0.1,0-0.2,0.1-0.3l0,0c0.6-0.7,1.2-1.4,1.6-2.3c0.1-0.1,0-0.3-0.1-0.4C-454.1,276.1-454.3,276.1-454.4,276.3z"/>
</svg>
